<svg width="1260" height="522" viewBox="0 0 1260 522" fill="none" xmlns="http://www.w3.org/2000/svg">
<path d="M393 413.815H330.234V522H222.534V413.815H0V337.051L228.596 0H330.234V328.124H393V413.815ZM222.534 328.124V239.577C222.534 231.246 222.652 221.368 222.89 209.943C223.366 198.517 223.841 187.092 224.317 175.666C224.792 164.241 225.268 154.124 225.743 145.317C226.456 136.272 226.932 129.964 227.17 126.394H224.317C219.799 136.153 215.044 145.674 210.052 154.958C205.059 164.003 199.234 173.524 192.577 183.521L97.0018 328.124H222.534Z" fill="white"/>
<path d="M807 261.52C807 302.448 803.767 338.982 797.301 371.123C791.067 403.264 780.906 430.549 766.82 452.978C752.965 475.407 734.722 492.518 712.092 504.311C689.462 516.104 661.982 522 629.654 522C589.012 522 555.644 511.71 529.55 491.131C503.456 470.32 484.174 440.492 471.705 401.645C459.235 362.567 453 315.859 453 261.52C453 206.719 458.658 159.895 469.973 121.049C481.519 81.9708 500.223 52.0266 526.086 31.2159C551.949 10.4053 586.472 0 629.654 0C670.065 0 703.317 10.4053 729.411 31.2159C755.736 51.7953 775.249 81.6239 787.949 120.702C800.65 159.548 807 206.488 807 261.52ZM559.339 261.52C559.339 300.136 561.417 332.392 565.573 358.29C569.961 383.956 577.235 403.264 587.395 416.213C597.556 429.161 611.642 435.636 629.654 435.636C647.434 435.636 661.405 429.277 671.566 416.559C681.957 403.611 689.346 384.303 693.734 358.637C698.121 332.739 700.315 300.367 700.315 261.52C700.315 222.905 698.121 190.649 693.734 164.751C689.346 138.853 681.957 119.43 671.566 106.481C661.405 93.301 647.434 86.711 629.654 86.711C611.642 86.711 597.556 93.301 587.395 106.481C577.235 119.43 569.961 138.853 565.573 164.751C561.417 190.649 559.339 222.905 559.339 261.52Z" fill="white"/>
<path d="M1260 413.815H1197.23V522H1089.53V413.815H867V337.051L1095.6 0H1197.23V328.124H1260V413.815ZM1089.53 328.124V239.577C1089.53 231.246 1089.65 221.368 1089.89 209.943C1090.37 198.517 1090.84 187.092 1091.32 175.666C1091.79 164.241 1092.27 154.124 1092.74 145.317C1093.46 136.272 1093.93 129.964 1094.17 126.394H1091.32C1086.8 136.153 1082.04 145.674 1077.05 154.958C1072.06 164.003 1066.23 173.524 1059.58 183.521L964.002 328.124H1089.53Z" fill="white"/>
</svg>
