<svg width="90" height="90" viewBox="0 0 90 90" fill="none" xmlns="http://www.w3.org/2000/svg">
<rect width="90" height="90" rx="45" fill="#F46D06"/>
<path d="M53.7626 25.4998H36.1989C32.7754 25.4998 30 28.2751 30 31.6987V57.5276C30 60.9512 32.7754 63.7266 36.1989 63.7266H53.7626C57.1862 63.7266 59.9616 60.9512 59.9616 57.5276V31.6987C59.9616 28.2751 57.1862 25.4998 53.7626 25.4998Z" stroke="white" stroke-width="2.25" stroke-linecap="round" stroke-linejoin="round"/>
<path d="M50.6576 32.7321H39.2929C38.1517 32.7321 37.2266 33.6572 37.2266 34.7984V38.4144C37.2266 39.5556 38.1517 40.4807 39.2929 40.4807H50.6576C51.7988 40.4807 52.7239 39.5556 52.7239 38.4144V34.7984C52.7239 33.6572 51.7988 32.7321 50.6576 32.7321Z" stroke="white" stroke-width="2.25" stroke-linecap="round" stroke-linejoin="round"/>
<path d="M38.0032 50.5212C38.9628 50.5212 39.7408 49.7432 39.7408 48.7836C39.7408 47.824 38.9628 47.046 38.0032 47.046C37.0436 47.046 36.2656 47.824 36.2656 48.7836C36.2656 49.7432 37.0436 50.5212 38.0032 50.5212Z" fill="white"/>
<path d="M44.9563 50.5212C45.916 50.5212 46.6939 49.7432 46.6939 48.7836C46.6939 47.824 45.916 47.046 44.9563 47.046C43.9967 47.046 43.2188 47.824 43.2188 48.7836C43.2188 49.7432 43.9967 50.5212 44.9563 50.5212Z" fill="white"/>
<path d="M51.9016 50.5212C52.8613 50.5212 53.6392 49.7432 53.6392 48.7836C53.6392 47.824 52.8613 47.046 51.9016 47.046C50.942 47.046 50.1641 47.824 50.1641 48.7836C50.1641 49.7432 50.942 50.5212 51.9016 50.5212Z" fill="white"/>
<path d="M38.0032 58.8614C38.9628 58.8614 39.7408 58.0835 39.7408 57.1238C39.7408 56.1642 38.9628 55.3862 38.0032 55.3862C37.0436 55.3862 36.2656 56.1642 36.2656 57.1238C36.2656 58.0835 37.0436 58.8614 38.0032 58.8614Z" fill="white"/>
<path d="M44.9563 58.8614C45.916 58.8614 46.6939 58.0835 46.6939 57.1238C46.6939 56.1642 45.916 55.3862 44.9563 55.3862C43.9967 55.3862 43.2188 56.1642 43.2188 57.1238C43.2188 58.0835 43.9967 58.8614 44.9563 58.8614Z" fill="white"/>
<path d="M51.9016 58.8614C52.8613 58.8614 53.6392 58.0835 53.6392 57.1238C53.6392 56.1642 52.8613 55.3862 51.9016 55.3862C50.942 55.3862 50.1641 56.1642 50.1641 57.1238C50.1641 58.0835 50.942 58.8614 51.9016 58.8614Z" fill="white"/>
</svg>
