<svg width="48" height="48" viewBox="0 0 48 48" fill="none" xmlns="http://www.w3.org/2000/svg">
<path d="M16 24C18.1217 24 20.1566 23.1571 21.6569 21.6569C23.1571 20.1566 24 18.1217 24 16C24 13.8783 23.1571 11.8434 21.6569 10.3431C20.1566 8.84285 18.1217 8 16 8C13.8783 8 11.8434 8.84285 10.3431 10.3431C8.84285 11.8434 8 13.8783 8 16C8 18.1217 8.84285 20.1566 10.3431 21.6569C11.8434 23.1571 13.8783 24 16 24ZM34 24C35.5913 24 37.1174 23.3679 38.2426 22.2426C39.3679 21.1174 40 19.5913 40 18C40 16.4087 39.3679 14.8826 38.2426 13.7574C37.1174 12.6321 35.5913 12 34 12C32.4087 12 30.8826 12.6321 29.7574 13.7574C28.6321 14.8826 28 16.4087 28 18C28 19.5913 28.6321 21.1174 29.7574 22.2426C30.8826 23.3679 32.4087 24 34 24ZM8.5 28C7.30653 28 6.16193 28.4741 5.31802 29.318C4.47411 30.1619 4 31.3065 4 32.5V33C4 33 4 42 16 42C28 42 28 33 28 33V32.5C28 31.3065 27.5259 30.1619 26.682 29.318C25.8381 28.4741 24.6935 28 23.5 28H8.5ZM34 39C31.658 39 29.864 38.638 28.49 38.084C29.2898 36.7345 29.7917 35.2295 29.962 33.67C29.9814 33.4805 29.9941 33.2904 30 33.1V32.5C30.0025 30.8245 29.356 29.2131 28.196 28.004L28.4 28H39.6C40.767 28 41.8861 28.4636 42.7113 29.2887C43.5364 30.1139 44 31.233 44 32.4C44 32.4 44 39 34 39Z" fill="#4A2C21"/>
</svg>
