<svg width="48" height="48" viewBox="0 0 48 48" fill="none" xmlns="http://www.w3.org/2000/svg">
<path d="M8.58404 33.7395L8.48665 33.7129C7.02854 33.3172 5.72536 32.5567 4.68158 31.5315C3.63779 30.5072 2.8534 29.2182 2.43111 27.7671C1.7928 25.5698 1.86451 23.2272 2.63827 21.0733L2.75248 20.7537C3.20045 19.5063 3.85027 18.3509 4.6683 17.3302C4.81526 17.1469 5.58552 15.9732 7.3924 14.8459C9.19929 13.7187 14.119 11.8102 17.7506 11.8102H21.3795C22.1833 11.8102 22.9801 11.8713 23.7645 11.989M29.7129 14.0147C31.1046 14.8433 32.3768 15.8853 33.4782 17.1177L33.479 17.1186C34.0474 17.7551 34.5405 18.4457 34.9531 19.1787C35.8042 20.6949 36.4687 23.0557 36.4687 24.9483V25.105C36.4687 25.4777 36.451 25.8487 36.4156 26.2152" stroke="#CD7F23" stroke-width="2" stroke-miterlimit="10" stroke-linecap="round" stroke-linejoin="round"/>
<path d="M25.6557 18.8264C23.7404 17.9946 21.5813 17.9184 19.6122 18.6133L19.6105 18.6139C18.7255 18.9263 17.7602 18.9262 16.8753 18.6137L16.7565 18.5718C14.8632 17.9034 12.7872 17.9763 10.9456 18.7762L10.7288 18.8704C7.75788 20.1607 5.85676 23.059 5.85693 26.2625V26.5575C5.8572 29.9975 7.56515 33.2132 10.4153 35.1395L10.5222 35.2118C11.6827 35.9962 12.981 36.5389 14.3401 36.8161" stroke="#CD7F23" stroke-width="2" stroke-miterlimit="10" stroke-linecap="round" stroke-linejoin="round"/>
<path d="M16.2419 17.8456L16.7228 16.7794C16.9518 16.2719 17.4579 15.9464 18.0147 15.9488L18.831 15.9523C19.3835 15.9546 19.8838 16.2792 20.1109 16.7829L20.5953 17.8568" stroke="#552914" stroke-width="1.5" stroke-miterlimit="10" stroke-linecap="round" stroke-linejoin="round"/>
<path d="M15.9732 29.666C14.651 31.3884 14.2803 33.7404 14.2803 34.9621C14.2803 37.3099 15.232 39.4356 16.7707 40.9734C18.3084 42.512 20.4341 43.4638 22.7819 43.4638H24.063C25.6681 43.4638 27.1696 43.0193 28.4497 42.2456C29.4891 41.6188 30.7914 41.6188 31.8298 42.2456C33.1109 43.0193 34.6115 43.4638 36.2166 43.4638H37.4976C38.4546 43.4638 40.5259 42.9811 41.4702 42.4145" stroke="#CD7F23" stroke-width="2" stroke-miterlimit="10" stroke-linecap="round" stroke-linejoin="round"/>
<path d="M15.9732 29.666C17.7629 27.3347 20.427 26.4595 22.7819 26.4595H24.063C25.0652 26.4595 26.0257 26.6331 26.9181 26.9509C29.0021 27.6937 31.2774 27.6937 33.3614 26.9509C34.2538 26.6331 35.2153 26.4595 36.2166 26.4595H37.4976C39.8455 26.4595 41.9711 27.4112 43.5098 28.9499C45.0485 30.4886 46.0002 32.6142 46.0002 34.9621C46.0002 37.5844 43.8311 40.998 41.4702 42.4145" stroke="#CD7F23" stroke-width="2" stroke-miterlimit="10" stroke-linecap="round" stroke-linejoin="round"/>
<path d="M27.9631 26.7859L28.444 25.7197C28.673 25.2122 29.1791 24.8867 29.7359 24.8891L30.5522 24.8926C31.1047 24.895 31.605 25.2195 31.832 25.7232L32.3165 26.7971" stroke="#552914" stroke-width="1.5" stroke-miterlimit="10" stroke-linecap="round" stroke-linejoin="round"/>
<path d="M30.3 27.6683L33.1958 30.5642C35.0452 32.4136 35.2467 35.3438 33.6681 37.429C31.8973 39.7678 28.3824 39.7678 26.6117 37.429C25.0329 35.3438 25.2345 32.4135 27.0839 30.5642L29.9937 27.6544" stroke="#552914" stroke-width="2" stroke-miterlimit="10" stroke-linecap="round" stroke-linejoin="round"/>
<path d="M30.1399 33.1189V31.4037" stroke="#552914" stroke-width="2" stroke-miterlimit="10" stroke-linecap="round" stroke-linejoin="round"/>
<path d="M31.4434 35.9189L32.421 34.5097" stroke="#552914" stroke-width="2" stroke-miterlimit="10" stroke-linecap="round" stroke-linejoin="round"/>
<path d="M28.8365 35.9189L27.8589 34.5097" stroke="#552914" stroke-width="2" stroke-miterlimit="10" stroke-linecap="round" stroke-linejoin="round"/>
<path d="M22.6777 15.907L24.8347 15.4337C27.4798 14.8532 30.0277 13.8956 32.4003 12.5903L32.4556 12.5599C33.6826 11.8849 34.6211 10.7851 35.0947 9.46717C35.7635 7.60642 37.3414 6.21984 39.2728 5.79595L39.3985 5.76842C39.3237 5.68573 37.6499 5.2591 35.8377 4.81636C32.9478 4.11032 29.8935 4.755 27.5364 6.5699C25.9836 7.7656 24.8251 9.39962 24.2109 11.2608L22.6777 15.907Z" stroke="#552914" stroke-width="1.5" stroke-miterlimit="10" stroke-linecap="round" stroke-linejoin="round"/>
<path d="M38.0472 5.75159L34.7359 6.47825C31.9869 7.0815 29.4897 8.515 27.5825 10.5847L20.8811 17.8569" stroke="#552914" stroke-width="1.5" stroke-miterlimit="10" stroke-linecap="round" stroke-linejoin="round"/>
</svg>
