<svg width="48" height="48" viewBox="0 0 48 48" fill="none" xmlns="http://www.w3.org/2000/svg">
<g clip-path="url(#clip0_466_6091)">
<path d="M30.3681 33.884H0.9375V0.9375H45.1798V28.2482" stroke="#552914" stroke-width="2" stroke-miterlimit="10" stroke-linecap="round" stroke-linejoin="round"/>
<path d="M31.5515 30.1191H7.52708C7.52708 28.5591 6.26239 27.2944 4.70239 27.2944V7.5272C6.26239 7.5272 7.52708 6.26251 7.52708 4.70251H38.5902C38.5902 6.26251 39.8549 7.5272 41.4149 7.5272V25.9031" stroke="#CD7F23" stroke-width="2" stroke-miterlimit="10" stroke-linecap="round" stroke-linejoin="round"/>
<path d="M10.3508 14.8814H35.7666" stroke="#552914" stroke-width="2" stroke-miterlimit="10" stroke-linecap="round" stroke-linejoin="round"/>
<path d="M30.1187 32.9426C30.1187 31.8544 31.193 30.9875 31.5855 30.0412C31.9922 29.0602 31.8608 27.6913 32.6001 26.9521C33.3393 26.2128 34.7083 26.3443 35.6893 25.9375C36.6356 25.5451 37.5025 24.4707 38.5907 24.4707C39.6789 24.4707 40.5457 25.5451 41.492 25.9375C42.473 26.3443 43.842 26.2129 44.5812 26.9522C45.3205 27.6915 45.189 29.0603 45.5957 30.0413C45.9882 30.9875 47.0626 31.8544 47.0626 32.9426C47.0626 34.0309 45.9882 34.8977 45.5957 35.844C45.189 36.825 45.3204 38.1939 44.5811 38.9331C43.8418 39.6725 42.4729 39.5409 41.4919 39.9477C40.5456 40.3401 39.6787 41.4145 38.5906 41.4145C37.5023 41.4145 36.6355 40.3401 35.6892 39.9477C34.7082 39.5409 33.3392 39.6724 32.6 38.933C31.8607 38.1938 31.9922 36.8249 31.5855 35.8439C31.193 34.8977 30.1187 34.0309 30.1187 32.9426Z" stroke="#CD7F23" stroke-width="2" stroke-miterlimit="10" stroke-linecap="round" stroke-linejoin="round"/>
<path d="M41.8856 39.8147V47.0625L38.5903 45.18L35.2959 47.0625V39.8156" stroke="#CD7F23" stroke-width="2" stroke-miterlimit="10" stroke-linecap="round" stroke-linejoin="round"/>
<path d="M42.2553 33.8113C42.7332 31.7875 41.48 29.7595 39.4562 29.2816C37.4324 28.8038 35.4044 30.057 34.9265 32.0807C34.4487 34.1045 35.7019 36.1325 37.7257 36.6104C39.7494 37.0882 41.7774 35.835 42.2553 33.8113Z" stroke="#552914" stroke-width="2" stroke-miterlimit="10" stroke-linecap="round" stroke-linejoin="round"/>
<path d="M10.3508 26.3533C10.3508 26.3533 11.7628 24.3765 12.2335 21.6467L12.9254 25.1059C13.0704 25.8312 13.7074 26.3533 14.447 26.3533C15.3041 26.3533 15.9989 25.6585 15.9989 24.8015V23.5294L16.4843 24.2575C17.3572 25.5669 18.8268 26.3534 20.4005 26.3534H21.6469" stroke="#CD7F23" stroke-width="2" stroke-miterlimit="10" stroke-linecap="round" stroke-linejoin="round"/>
</g>
<defs>
<clipPath id="clip0_466_6091">
<rect width="48" height="48" fill="white"/>
</clipPath>
</defs>
</svg>
