<svg width="48" height="48" viewBox="0 0 48 48" fill="none" xmlns="http://www.w3.org/2000/svg">
<path d="M20.2815 10.6126C28.3587 0.442009 45.4087 2.10027 45.4087 2.10027C39.886 10.0572 42.3491 17.0521 38.3273 24.018C36.6846 26.8633 33.9876 28.72 31.0147 29.3805" stroke="#552914" stroke-width="2" stroke-miterlimit="10" stroke-linecap="round" stroke-linejoin="round"/>
<path d="M9.18327 30.0037C3.00719 33.2721 2.0524 42.58 2.0524 42.58C6.79916 40.4497 10.1904 42.4979 14.2591 41.0685C15.921 40.4847 17.179 39.233 17.8416 37.709" stroke="#552914" stroke-width="2" stroke-miterlimit="10" stroke-linecap="round" stroke-linejoin="round"/>
<path d="M29.2607 18.3419C31.7034 14.9158 34.3185 11.613 37.0995 8.44855" stroke="#552914" stroke-width="2" stroke-miterlimit="10" stroke-linecap="round" stroke-linejoin="round"/>
<path d="M13 35C11.2951 35.9056 9.62607 36.9062 8.00005 38" stroke="#552914" stroke-width="2" stroke-miterlimit="10" stroke-linecap="round" stroke-linejoin="round"/>
<path d="M6.63867 6.69006C6.63867 6.69006 26.0184 8.19622 30.9703 21.8015C33.0974 27.6457 30.0842 34.1078 24.2399 36.2349C18.3957 38.362 11.9337 35.3487 9.80655 29.5045C7.05549 21.946 10.6958 15.4851 6.63867 6.69006Z" stroke="#CD7F23" stroke-width="2" stroke-miterlimit="10" stroke-linecap="round" stroke-linejoin="round"/>
<path d="M25.8904 40.7699L24.3215 36.4594C21.5228 28.77 17.9714 21.3759 13.719 14.3848" stroke="#CD7F23" stroke-width="2" stroke-miterlimit="10" stroke-linecap="round" stroke-linejoin="round"/>
</svg>
