<svg width="64" height="64" viewBox="0 0 64 64" fill="none" xmlns="http://www.w3.org/2000/svg">
<rect width="64" height="64" rx="16" fill="#552914" fill-opacity="0.2"/>
<path d="M44.72 36H38.6667C37.9594 36 37.2811 36.281 36.781 36.781C36.281 37.2811 36 37.9594 36 38.6667V44.72" stroke="#4A2C21" stroke-width="2" stroke-linecap="round" stroke-linejoin="round"/>
<path d="M25.333 20.4534V22.6667C25.333 23.7276 25.7544 24.745 26.5046 25.4951C27.2547 26.2453 28.2721 26.6667 29.333 26.6667C30.0403 26.6667 30.7185 26.9477 31.2186 27.4478C31.7187 27.9478 31.9997 28.6261 31.9997 29.3334C31.9997 30.8 33.1997 32 34.6663 32C35.3736 32 36.0519 31.7191 36.552 31.219C37.0521 30.7189 37.333 30.0406 37.333 29.3334C37.333 27.8667 38.533 26.6667 39.9997 26.6667H44.2263" stroke="#4A2C21" stroke-width="2" stroke-linecap="round" stroke-linejoin="round"/>
<path d="M30.6667 45.2667V40.0001C30.6667 39.2928 30.3858 38.6146 29.8857 38.1145C29.3856 37.6144 28.7073 37.3334 28.0001 37.3334C27.2928 37.3334 26.6145 37.0525 26.1144 36.5524C25.6144 36.0523 25.3334 35.374 25.3334 34.6667V33.3334C25.3334 32.6262 25.0524 31.9479 24.5524 31.4478C24.0523 30.9477 23.374 30.6667 22.6667 30.6667H18.7334" stroke="#4A2C21" stroke-width="2" stroke-linecap="round" stroke-linejoin="round"/>
<path d="M32.0003 45.3334C39.3641 45.3334 45.3337 39.3639 45.3337 32.0001C45.3337 24.6363 39.3641 18.6667 32.0003 18.6667C24.6365 18.6667 18.667 24.6363 18.667 32.0001C18.667 39.3639 24.6365 45.3334 32.0003 45.3334Z" stroke="#4A2C21" stroke-width="2" stroke-linecap="round" stroke-linejoin="round"/>
</svg>
