<svg width="28" height="28" viewBox="0 0 28 28" fill="none" xmlns="http://www.w3.org/2000/svg">
<path d="M13.9997 11.1066C13.4274 11.1066 12.868 11.2763 12.3922 11.5942C11.9164 11.9121 11.5456 12.364 11.3266 12.8927C11.1076 13.4214 11.0503 14.0031 11.1619 14.5644C11.2736 15.1256 11.5491 15.6412 11.9538 16.0458C12.3584 16.4505 12.874 16.726 13.4352 16.8377C13.9965 16.9493 14.5782 16.892 15.1069 16.673C15.6356 16.454 16.0875 16.0832 16.4054 15.6074C16.7233 15.1316 16.893 14.5722 16.893 13.9999C16.893 13.62 16.8182 13.2437 16.6728 12.8927C16.5274 12.5417 16.3142 12.2227 16.0456 11.954C15.7769 11.6854 15.4579 11.4722 15.1069 11.3268C14.7559 11.1814 14.3796 11.1066 13.9997 11.1066ZM25.5847 8.24825C25.5793 7.34723 25.4134 6.45438 25.0947 5.61159C24.8605 4.99472 24.4982 4.43453 24.0316 3.96797C23.5651 3.50141 23.0049 3.13909 22.388 2.90492C21.5452 2.58624 20.6524 2.42031 19.7513 2.41492C18.2463 2.33325 17.803 2.33325 13.9997 2.33325C10.1963 2.33325 9.75301 2.33325 8.24801 2.41492C7.34699 2.42031 6.45414 2.58624 5.61134 2.90492C4.99448 3.13909 4.43428 3.50141 3.96772 3.96797C3.50116 4.43453 3.13884 4.99472 2.90467 5.61159C2.586 6.45438 2.42007 7.34723 2.41467 8.24825C2.33301 9.75325 2.33301 10.1966 2.33301 13.9999C2.33301 17.8033 2.33301 18.2466 2.41467 19.7516C2.42813 20.6556 2.59378 21.5509 2.90467 22.3999C3.1365 23.0146 3.49869 23.5718 3.96634 24.0333C4.43114 24.5023 4.99246 24.8646 5.61134 25.0949C6.45414 25.4136 7.34699 25.5795 8.24801 25.5849C9.75301 25.6666 10.1963 25.6666 13.9997 25.6666C17.803 25.6666 18.2463 25.6666 19.7513 25.5849C20.6524 25.5795 21.5452 25.4136 22.388 25.0949C23.0069 24.8646 23.5682 24.5023 24.033 24.0333C24.5007 23.5718 24.8629 23.0146 25.0947 22.3999C25.4123 21.5528 25.5782 20.6563 25.5847 19.7516C25.6663 18.2466 25.6663 17.8033 25.6663 13.9999C25.6663 10.1966 25.6663 9.75325 25.5847 8.24825ZM22.6213 17.5816C22.5845 18.3016 22.4308 19.0109 22.1663 19.6816C21.9399 20.2412 21.6031 20.7496 21.1763 21.1765C20.7494 21.6034 20.241 21.9401 19.6813 22.1666C19.0043 22.4164 18.2911 22.5543 17.5697 22.5749H10.4297C9.70829 22.5543 8.99508 22.4164 8.31801 22.1666C7.73928 21.952 7.21674 21.6089 6.78967 21.1632C6.36666 20.7449 6.04016 20.2393 5.83301 19.6816C5.58304 19.005 5.44894 18.2911 5.43634 17.5699V10.4299C5.44894 9.70874 5.58304 8.99484 5.83301 8.31825C6.04764 7.73952 6.39068 7.21698 6.83634 6.78992C7.25695 6.36976 7.76198 6.04368 8.31801 5.83325C8.99508 5.58346 9.70829 5.44555 10.4297 5.42492H17.5697C18.2911 5.44555 19.0043 5.58346 19.6813 5.83325C20.2601 6.04788 20.7826 6.39093 21.2097 6.83659C21.6327 7.25489 21.9592 7.76057 22.1663 8.31825C22.4161 8.99532 22.554 9.70854 22.5747 10.4299V13.9999C22.5747 16.4033 22.6563 16.6483 22.6213 17.5699V17.5816ZM20.7547 8.90159C20.6158 8.52473 20.3968 8.1825 20.1128 7.8985C19.8288 7.6145 19.4865 7.39549 19.1097 7.25658C18.5922 7.07722 18.0472 6.99034 17.4997 6.99992H10.4997C9.94932 7.0053 9.40425 7.10799 8.88967 7.30325C8.51859 7.43585 8.17998 7.64592 7.89636 7.91949C7.61273 8.19306 7.39058 8.52386 7.24467 8.88992C7.07586 9.40966 6.99311 9.95349 6.99967 10.4999V17.4999C7.01188 18.0496 7.11436 18.5935 7.30301 19.1099C7.44192 19.4868 7.66092 19.829 7.94492 20.113C8.22892 20.397 8.57116 20.616 8.94801 20.7549C9.44595 20.9374 9.96967 21.0398 10.4997 21.0583H17.4997C18.05 21.0529 18.5951 20.9502 19.1097 20.7549C19.4865 20.616 19.8288 20.397 20.1128 20.113C20.3968 19.829 20.6158 19.4868 20.7547 19.1099C20.9499 18.5953 21.0526 18.0503 21.058 17.4999V10.4999C21.0578 9.94907 20.9549 9.40308 20.7547 8.88992V8.90159ZM13.9997 18.4566C13.415 18.4566 12.836 18.3412 12.2959 18.1171C11.7559 17.893 11.2654 17.5645 10.8525 17.1506C10.4395 16.7366 10.1124 16.2452 9.88968 15.7045C9.66698 15.1639 9.55314 14.5846 9.55467 13.9999C9.55468 13.118 9.81635 12.2559 10.3066 11.5227C10.7968 10.7896 11.4935 10.2184 12.3086 9.88139C13.1236 9.54442 14.0203 9.45685 14.8851 9.62976C15.7499 9.80267 16.544 10.2283 17.1668 10.8527C17.7896 11.4772 18.2132 12.2724 18.3838 13.1376C18.5544 14.0029 18.4645 14.8994 18.1254 15.7135C17.7863 16.5277 17.2133 17.2229 16.4788 17.7112C15.7444 18.1995 14.8816 18.4589 13.9997 18.4566ZM18.6663 10.4183C18.4084 10.391 18.1698 10.2692 17.9963 10.0764C17.8228 9.88359 17.7269 9.63343 17.7269 9.37408C17.7269 9.11474 17.8228 8.86458 17.9963 8.67179C18.1698 8.47899 18.4084 8.35722 18.6663 8.32992C18.9242 8.35722 19.1629 8.47899 19.3364 8.67179C19.5098 8.86458 19.6058 9.11474 19.6058 9.37408C19.6058 9.63343 19.5098 9.88359 19.3364 10.0764C19.1629 10.2692 18.9242 10.391 18.6663 10.4183Z" fill="#4D4D4D"/>
</svg>
