<svg width="41" height="32" viewBox="0 0 41 32" fill="none" xmlns="http://www.w3.org/2000/svg">
<g clip-path="url(#clip0_460_810)">
<path d="M4.73201 21.3744L3.29099 24.8369C3.24598 24.9399 3.10446 24.9399 3.05941 24.8369L1.59912 21.368C1.55409 21.2586 1.39326 21.2714 1.3611 21.3873L0.00372595 26.5746C-0.0155731 26.6518 0.0423242 26.7291 0.125953 26.7291H0.595564C0.653462 26.7291 0.704927 26.6905 0.717791 26.6325L1.51549 23.5755C1.54765 23.4596 1.70848 23.4468 1.75351 23.5562L3.05941 26.6647C3.10446 26.7677 3.24598 26.7677 3.29099 26.6647L4.59046 23.5883C4.6355 23.4789 4.79633 23.4918 4.82849 23.6077L5.61976 26.639C5.63262 26.6969 5.68408 26.7355 5.74198 26.7355H6.21159C6.29522 26.7355 6.35311 26.6582 6.33383 26.581L4.97644 21.4002C4.93785 21.2714 4.77702 21.265 4.73201 21.3744Z" fill="white"/>
<path d="M12.0595 21.9407C11.4677 21.3744 10.7665 21.0912 9.94947 21.0912C9.11319 21.0912 8.39912 21.3744 7.80729 21.9343C7.20901 22.4942 6.91309 23.1764 6.91309 23.9616C6.91309 24.7789 7.20901 25.4805 7.79441 26.0533C8.17397 26.4201 8.59853 26.6711 9.0746 26.7998C9.34476 26.877 9.62784 26.9157 9.93019 26.9157C10.7729 26.9157 11.4934 26.626 12.0724 26.0597C12.6578 25.4869 12.9473 24.7918 12.9473 23.9616C12.9408 23.1829 12.6449 22.5071 12.0595 21.9407ZM11.5063 25.4998C11.0753 25.9245 10.5671 26.1369 9.9752 26.1369C9.33191 26.1369 8.79153 25.931 8.34765 25.5191C7.90377 25.1072 7.68505 24.5987 7.68505 24.0002C7.68505 23.4081 7.89735 22.9061 8.32834 22.4878C8.75937 22.063 9.27402 21.8571 9.87872 21.8571C10.5156 21.8571 11.0495 22.063 11.487 22.4749C11.9244 22.8868 12.1367 23.3952 12.1367 24.0002C12.1496 24.5794 11.9308 25.0814 11.5063 25.4998Z" fill="white"/>
<path d="M17.7584 21.2714C17.5526 21.2714 17.3853 21.4387 17.3853 21.6446V24.7596C17.3853 25.2166 17.2631 25.5641 17.0251 25.8151C16.7806 26.0661 16.4461 26.1948 16.0086 26.1948C15.5712 26.1948 15.2303 26.0596 14.9922 25.7893C14.7542 25.519 14.632 25.1329 14.632 24.6309V21.6446C14.632 21.4387 14.4647 21.2714 14.2588 21.2714C14.053 21.2714 13.8857 21.4387 13.8857 21.6446V24.5086C13.8857 25.3066 14.0852 25.8987 14.4711 26.3106C14.8635 26.7161 15.3846 26.922 16.0344 26.922C16.6712 26.922 17.1794 26.7225 17.559 26.3235C17.9385 25.9245 18.1315 25.3839 18.1315 24.7145V21.6511C18.138 21.4387 17.9707 21.2714 17.7584 21.2714Z" fill="white"/>
<path d="M23.2264 21.4259V24.7854C23.2264 24.9334 23.0463 25.0107 22.9434 24.9012L19.4696 21.3293C19.3667 21.2199 19.1865 21.2971 19.1865 21.4452V26.5617C19.1865 26.6518 19.2637 26.729 19.3538 26.729H19.7719C19.862 26.729 19.9392 26.6518 19.9392 26.5617V23.2537C19.9392 23.1056 20.1193 23.0284 20.2223 23.1378L23.6961 26.6904C23.799 26.7998 23.9791 26.7226 23.9791 26.5746V21.4259C23.9791 21.3358 23.9019 21.2585 23.8119 21.2585H23.3937C23.3037 21.2585 23.2264 21.3358 23.2264 21.4259Z" fill="white"/>
<path d="M24.7578 21.6254V21.6318C24.7578 21.8378 24.9251 21.9987 25.1245 21.9987H25.8579C25.9672 21.9987 26.0573 22.0888 26.0573 22.1982V26.3558C26.0573 26.5617 26.2246 26.7226 26.424 26.7226C26.6298 26.7226 26.7907 26.5553 26.7907 26.3558V22.2046C26.7907 22.0952 26.8807 22.0051 26.9901 22.0051H27.7234C27.9293 22.0051 28.0901 21.8378 28.0901 21.6383V21.6254C28.0901 21.4194 27.9229 21.2585 27.7234 21.2585H25.1181C24.9251 21.2585 24.7578 21.4259 24.7578 21.6254Z" fill="white"/>
<path d="M34.0664 21.6254V26.3558C34.0664 26.5617 34.2336 26.7226 34.4331 26.7226C34.639 26.7226 34.7998 26.5553 34.7998 26.3558V21.6254C34.7998 21.4194 34.6326 21.2585 34.4331 21.2585C34.2336 21.2585 34.0664 21.4259 34.0664 21.6254Z" fill="white"/>
<path d="M31.0171 21.4452L33.2174 26.285C33.3267 26.5231 33.1529 26.7934 32.8891 26.7934H32.8827C32.7411 26.7934 32.6126 26.7098 32.5547 26.581L32.0078 25.3711C32.0078 25.3647 32.0014 25.3582 31.995 25.3582H29.6469C29.6405 25.3582 29.6341 25.3647 29.6341 25.3711L29.0936 26.5746C29.0358 26.7033 28.9071 26.787 28.7656 26.787C28.5019 26.787 28.3282 26.5167 28.4375 26.2786L30.6184 21.4388C30.6891 21.2715 30.9336 21.2715 31.0171 21.4452ZM30.792 22.7774L29.9235 24.7146C29.9171 24.7275 29.9235 24.7404 29.9365 24.7404H31.6798C31.6926 24.7404 31.699 24.7275 31.6926 24.7146L30.8179 22.7774C30.8179 22.7646 30.7984 22.7646 30.792 22.7774Z" fill="white"/>
<path d="M40.0104 21.4259V24.779C40.0104 24.9334 39.8237 25.0042 39.7207 24.8948L36.2535 21.3293C36.1505 21.2199 35.9639 21.2971 35.9639 21.4452V26.5553C35.9639 26.6454 36.0412 26.7226 36.1311 26.7226H36.5428C36.633 26.7226 36.71 26.6454 36.71 26.5553V23.2537C36.71 23.1056 36.8967 23.0284 36.9996 23.1378L40.4669 26.684C40.5698 26.7934 40.7565 26.7162 40.7565 26.5681V21.4259C40.7565 21.3358 40.6795 21.2585 40.5893 21.2585H40.1776C40.0874 21.2585 40.0104 21.3358 40.0104 21.4259Z" fill="white"/>
<path d="M20.2166 32C15.1924 32 10.1104 30.9574 10.1104 28.9558C10.1104 28.737 10.284 28.5632 10.5028 28.5632C10.7215 28.5632 10.8952 28.737 10.8952 28.9558C10.8952 29.8956 14.4398 31.2085 20.2166 31.2085C25.9935 31.2085 29.538 29.8956 29.538 28.9558C29.538 28.737 29.7116 28.5632 29.9306 28.5632C30.1493 28.5632 30.3229 28.737 30.3229 28.9558C30.3293 30.951 25.2408 32 20.2166 32Z" fill="white"/>
<path d="M31.8602 17.2811C31.8151 17.2811 31.7764 17.2875 31.7378 17.3004L27.1704 11.1349C26.9259 10.8002 26.585 10.6071 26.2119 10.5878C25.8516 10.5685 25.5042 10.7165 25.234 10.9997C25.1247 11.1155 25.0089 11.1735 24.8802 11.167C24.7451 11.1606 24.6165 11.0769 24.5071 10.9289L21.5865 6.90649C21.3356 6.55894 20.9689 6.353 20.5829 6.34657C20.2034 6.33369 19.8367 6.52033 19.573 6.84857L19.3671 7.10599C19.3221 7.15748 19.2771 7.20897 19.232 7.26689C18.5051 8.15504 17.7782 9.03676 17.0512 9.9249C16.7811 10.2531 16.4787 10.6007 16.067 10.6972C15.9705 10.723 15.8675 10.723 15.7711 10.723L15.3722 10.3239C15.0956 10.0472 14.7482 9.91204 14.3815 9.95065C14.002 9.98928 13.661 10.2081 13.4294 10.562L9.1579 17.0108C9.05497 17.1395 8.95206 17.2747 8.84912 17.4034C8.77835 17.3326 8.68187 17.2875 8.57893 17.2875C8.36021 17.2875 8.18652 17.4613 8.18652 17.6801C8.18652 18.1178 8.47599 18.6198 11.9434 19.0252C14.1564 19.2827 17.0963 19.4243 20.2163 19.4243C23.3363 19.4243 26.2762 19.2827 28.4891 19.0252C31.9564 18.6262 32.246 18.1242 32.246 17.6801C32.2524 17.4613 32.0725 17.2811 31.8602 17.2811ZM20.2163 18.6262C14.8254 18.6262 11.0814 18.2208 9.60178 17.8346C10.2708 17.4613 11.4481 16.3543 13.5259 13.6191C14.4844 12.3577 13.5324 13.1622 13.378 12.6923C13.7382 12.229 14.2078 11.8428 14.7032 11.5339C14.7932 11.4759 14.9026 11.418 15.0055 11.4502C15.0892 11.4759 15.1535 11.5532 15.2049 11.624C15.6488 12.2225 16.0863 12.8146 16.5301 13.4132C16.6266 13.5419 16.7167 13.7349 16.6073 13.8508C16.4658 13.9924 16.2471 13.8122 16.0477 13.7607C15.7904 13.6963 15.5266 13.9023 15.4365 14.1533C15.3465 14.4043 15.3979 14.681 15.4687 14.9385C15.7711 16.039 16.1763 17.2361 17.405 17.6737C17.8103 17.146 17.3021 16.4702 17.0191 15.8009C16.9483 15.6335 17.0834 15.3825 17.2699 15.3568C17.3793 15.3439 17.4758 15.4147 17.5659 15.4855C17.5659 15.4855 18.1513 16.1935 18.563 16.0068C18.7238 15.936 18.756 15.8009 18.8589 15.685C18.9361 15.6014 18.8782 15.5885 18.9876 15.6078C19.0455 15.6207 19.1355 15.7172 19.187 15.7558C19.4572 15.9553 19.7402 16.1613 19.9397 16.438C20.0876 16.644 20.1584 16.94 20.4028 17.0172C20.5122 17.0494 20.6409 17.0237 20.7245 16.9465C20.8081 16.8692 20.8531 16.747 20.8274 16.6311C20.8081 16.541 20.7567 16.4638 20.6988 16.3865C19.663 14.9127 18.4794 13.7543 17.4437 12.2804C17.2957 12.0681 17.0577 11.8557 17.0319 11.5982C17.0255 11.4824 17.0705 11.3215 17.1477 11.1542L20.004 7.59513C20.0554 7.5887 20.1069 7.5887 20.1841 7.53721C20.4736 7.33767 20.8789 7.43422 21.0397 7.74314C21.1619 7.97485 21.1941 8.2387 21.2198 8.49613C21.2327 8.612 21.2391 8.73427 21.1877 8.83725C21.0976 9.01744 20.866 9.0625 20.6859 9.15905C20.2484 9.41005 20.1777 10.015 20.2549 10.5106C20.3321 11.0061 20.4929 11.521 20.3449 12.0037C20.2034 12.4606 19.7852 12.8597 19.8818 13.323C19.959 13.7092 20.3707 13.9345 20.7438 14.0567C21.1233 14.179 21.5415 14.2691 21.7988 14.5652C22.0947 14.9063 22.0819 15.3825 22.0947 15.8073C22.1011 16.1548 22.0819 16.7534 22.4035 16.9851C22.9117 16.7984 22.8538 16.1033 22.738 15.6078C22.648 15.2345 22.5836 14.8548 22.5322 14.4686C22.4743 14.0503 22.3971 13.6255 22.3906 13.2136C22.3906 13.0849 22.4164 12.9176 22.5386 12.8854C22.6415 12.8597 22.738 12.9433 22.8088 13.0206C23.2848 13.5354 23.5357 14.2241 23.9024 14.8097C24.0632 15.0736 24.2498 15.3568 24.5071 15.5305C24.6872 15.6528 24.996 15.7429 25.2147 15.6335C25.2598 15.6142 25.2984 15.582 25.3305 15.5499C25.4206 15.4533 25.4142 15.2989 25.4013 15.1701C25.3627 14.7454 25.3434 14.3592 25.1568 13.9666C25.0153 13.6706 24.7837 13.3745 24.7194 13.0463C24.6486 12.7052 24.803 12.8146 24.803 12.8146C25.0925 13.0528 25.3756 13.3874 25.4785 13.7478C25.858 15.0479 26.5592 14.3528 26.5592 14.3528C26.9066 14.0439 27.447 14.0953 27.7558 14.4365C28.4763 15.2281 29.4156 16.9207 30.0201 18.0084C28.1739 18.3366 24.7902 18.6262 20.2163 18.6262Z" fill="white"/>
<path d="M3.375 16.7534C3.375 16.7083 3.38785 16.6632 3.40716 16.6246C3.42647 16.586 3.45217 16.5538 3.48436 16.5217C3.51652 16.4959 3.55511 16.4702 3.59372 16.4573C3.63874 16.4444 3.67735 16.438 3.72237 16.438C3.76741 16.438 3.81245 16.4509 3.85104 16.4702C3.88962 16.4895 3.92824 16.5152 3.95397 16.5474C3.97971 16.5796 4.00544 16.6182 4.01829 16.6568C4.03115 16.6954 4.0376 16.7405 4.0376 16.7855C4.0376 16.8306 4.02472 16.8756 4.00544 16.9142C3.98613 16.9529 3.9604 16.9915 3.92824 17.0172C3.89608 17.0494 3.85746 17.0687 3.81888 17.0816C3.78026 17.0945 3.73525 17.1009 3.69021 17.1009C3.64516 17.1009 3.60015 17.088 3.56154 17.0687C3.52295 17.0494 3.48436 17.0236 3.45863 16.9915C3.43289 16.9593 3.40716 16.9207 3.39428 16.8821C3.38143 16.8435 3.375 16.7984 3.375 16.7534Z" fill="white"/>
<path d="M3.71549 17.1396C3.70904 17.1396 3.70261 17.1396 3.69619 17.1396C3.64472 17.1396 3.59968 17.1267 3.55466 17.1074C3.50962 17.0881 3.47103 17.0559 3.43887 17.0237C3.40668 16.9851 3.38095 16.9465 3.36167 16.9015C3.34236 16.8564 3.33594 16.8049 3.33594 16.7534C3.33594 16.702 3.34879 16.6569 3.37452 16.6119C3.39383 16.5668 3.42599 16.5346 3.45815 16.5024C3.49677 16.4702 3.53535 16.4445 3.5804 16.4316C3.62541 16.4123 3.67688 16.4059 3.72835 16.4123C3.77981 16.4123 3.82486 16.4252 3.86987 16.4445C3.91491 16.4638 3.9535 16.496 3.98566 16.5282C4.01785 16.5604 4.04355 16.6054 4.05643 16.6505C4.07574 16.6955 4.08217 16.747 4.07574 16.792C4.07574 16.8435 4.06286 16.8886 4.04355 16.9336C4.02427 16.9787 3.99211 17.0173 3.95992 17.0495C3.92776 17.0817 3.88275 17.1074 3.83771 17.1203C3.79912 17.1331 3.76051 17.1396 3.71549 17.1396ZM3.41314 16.7534C3.41314 16.792 3.41957 16.8306 3.43242 16.8693C3.4453 16.9079 3.46458 16.9401 3.49031 16.9658C3.51605 16.9916 3.54821 17.0173 3.5804 17.0302C3.61898 17.0495 3.65757 17.0559 3.69619 17.0559C3.73477 17.0559 3.77981 17.0495 3.81197 17.0366C3.85056 17.0238 3.88275 17.0044 3.90848 16.9787C3.93419 16.9529 3.95992 16.9208 3.9728 16.8886C3.99211 16.85 3.99854 16.8114 3.99854 16.7727C3.99854 16.7341 3.99211 16.6955 3.97923 16.6569C3.96638 16.6183 3.94707 16.5861 3.92134 16.5604C3.8956 16.5346 3.86344 16.5089 3.83128 16.496C3.79267 16.4767 3.75408 16.4702 3.71549 16.4702C3.67688 16.4638 3.63186 16.4767 3.59967 16.4896C3.56109 16.5024 3.52893 16.5217 3.50319 16.5475C3.47746 16.5732 3.45173 16.6054 3.43242 16.6376C3.42599 16.6762 3.41314 16.7148 3.41314 16.7534Z" fill="white"/>
<path d="M2.66075 15.0094C2.65431 15.0609 2.62858 15.0995 2.58998 15.1317C2.55138 15.1638 2.50635 15.1703 2.45489 15.1638C2.40986 15.1574 2.36483 15.1317 2.33909 15.093C2.30693 15.0544 2.3005 15.0094 2.30693 14.9579C2.31336 14.9064 2.33909 14.8678 2.37769 14.842C2.41629 14.8099 2.46132 14.797 2.50635 14.8099C2.55782 14.8163 2.59642 14.842 2.62858 14.8807C2.66075 14.9193 2.67361 14.9643 2.66075 15.0094ZM4.77721 15.4921C4.73862 15.4534 4.68073 15.4277 4.60353 15.4213L3.23971 15.2282C3.18181 15.2218 3.1368 15.2218 3.10461 15.2282C3.07245 15.2346 3.04672 15.2475 3.02098 15.2668L3.04029 14.9128L4.63569 15.1381C4.71931 15.151 4.78364 15.1381 4.82868 15.1123L4.77721 15.4921Z" fill="white"/>
<path d="M4.80254 15.5693L4.75108 15.5178C4.71892 15.4856 4.66745 15.4663 4.59667 15.4534L3.23288 15.2604C3.16211 15.2475 3.12995 15.2539 3.11064 15.2604C3.08491 15.2668 3.06563 15.2797 3.03989 15.2925L2.97554 15.3376L3.00128 14.8678L4.63529 15.0995C4.70603 15.1123 4.76393 15.0995 4.80897 15.0802L4.87329 15.0415L4.80254 15.5693ZM3.15568 15.1831C3.18142 15.1831 3.21358 15.1831 3.24574 15.1896L4.60955 15.3827C4.66745 15.3891 4.71246 15.4084 4.75108 15.4277L4.78966 15.1638C4.74465 15.1767 4.69318 15.1767 4.63529 15.1703L3.07848 14.945L3.06563 15.196C3.07848 15.1896 3.09136 15.1896 3.10421 15.1831C3.1171 15.1831 3.13637 15.1831 3.15568 15.1831ZM2.48665 15.2024C2.47378 15.2024 2.46735 15.2024 2.45448 15.2024C2.39658 15.196 2.35155 15.1638 2.31295 15.1188C2.27436 15.0737 2.26149 15.0158 2.27436 14.9579C2.28079 14.9 2.31295 14.8549 2.35798 14.8163C2.40302 14.7777 2.46092 14.7648 2.51881 14.7712C2.57671 14.7777 2.62817 14.8099 2.66034 14.8549C2.6925 14.9 2.7118 14.9579 2.69894 15.0158C2.6925 15.0737 2.66034 15.1252 2.61531 15.1638C2.57671 15.1896 2.53168 15.2024 2.48665 15.2024ZM2.48021 14.842C2.44805 14.842 2.42232 14.8549 2.39658 14.8742C2.36442 14.9 2.34512 14.9321 2.33869 14.9708C2.33225 15.0094 2.33869 15.048 2.36442 15.0802C2.39015 15.1123 2.41588 15.1316 2.45448 15.1381C2.49308 15.1445 2.53168 15.1316 2.56384 15.1123C2.59601 15.0866 2.61531 15.0544 2.62174 15.0158C2.62817 14.9772 2.61531 14.945 2.59601 14.9128C2.57027 14.8806 2.53811 14.8614 2.49951 14.8549C2.49951 14.842 2.49308 14.842 2.48021 14.842Z" fill="white"/>
<path d="M5.09217 13.5355C5.11791 13.6578 5.11148 13.8187 5.06644 14.031C5.00212 14.3207 4.87345 14.533 4.66758 14.6682C4.46173 14.8033 4.23015 14.842 3.97281 14.7841C3.73481 14.7326 3.54825 14.6038 3.41315 14.3979C3.27805 14.1919 3.23947 13.9474 3.30379 13.6642C3.33595 13.5033 3.4003 13.3553 3.47747 13.2266L3.70908 13.2781C3.59329 13.381 3.51609 13.5226 3.47747 13.7028C3.43246 13.8959 3.46462 14.0697 3.57398 14.2177C3.67692 14.3657 3.83772 14.4623 4.05644 14.5137C4.26874 14.5588 4.44888 14.533 4.60326 14.4301C4.7512 14.3335 4.85414 14.1791 4.89918 13.9731C4.93777 13.7929 4.91849 13.6127 4.84771 13.439L5.09217 13.5355Z" fill="white"/>
<path d="M4.19187 14.8484C4.12109 14.8484 4.04392 14.842 3.96672 14.8227C3.72226 14.7712 3.52284 14.636 3.38132 14.4172C3.23977 14.2048 3.20118 13.9474 3.2655 13.6513C3.29769 13.4904 3.36201 13.336 3.44564 13.2008L3.45849 13.1815L3.78658 13.2523L3.73511 13.2974C3.62575 13.3939 3.555 13.5291 3.51639 13.7028C3.4778 13.8895 3.50353 14.0504 3.60647 14.192C3.70295 14.3335 3.85736 14.4236 4.0632 14.4687C4.26265 14.5138 4.43633 14.488 4.57785 14.3915C4.71937 14.2949 4.81588 14.1533 4.85447 13.9538C4.89306 13.7801 4.87378 13.6063 4.803 13.439L4.77084 13.3617L5.11824 13.5033L5.12466 13.5226C5.15682 13.6449 5.14394 13.8187 5.09893 14.0375C5.03461 14.3335 4.89306 14.5524 4.68079 14.694C4.53926 14.7969 4.37198 14.8484 4.19187 14.8484ZM3.49068 13.2652C3.41991 13.3875 3.36201 13.5226 3.32985 13.6707C3.27196 13.941 3.30412 14.1791 3.43921 14.3786C3.56786 14.5781 3.75442 14.7004 3.97957 14.7519C4.22403 14.8034 4.44918 14.7648 4.64863 14.6425C4.84162 14.5138 4.97026 14.3078 5.03461 14.0311C5.07319 13.838 5.08605 13.6835 5.06677 13.5677L4.90594 13.5033C4.95741 13.6578 4.96383 13.8187 4.93167 13.9796C4.88663 14.192 4.78369 14.3529 4.62289 14.4623C4.46206 14.5652 4.26907 14.5974 4.05035 14.5459C3.8252 14.4944 3.65794 14.3915 3.54858 14.237C3.43921 14.0826 3.40702 13.8959 3.44564 13.6964C3.4778 13.5355 3.54212 13.4003 3.63863 13.2974L3.49068 13.2652Z" fill="white"/>
<path d="M4.35239 12.7825C4.41028 12.8082 4.46818 12.8276 4.51322 12.8404C4.68048 12.8984 4.84773 12.8919 5.00214 12.8276C5.16297 12.7632 5.27233 12.628 5.34308 12.4285C5.41385 12.2162 5.41385 12.0231 5.34308 11.8493L5.56823 11.9652C5.60042 12.1196 5.58754 12.2998 5.52322 12.4993C5.43313 12.7696 5.28518 12.9563 5.06646 13.0657C4.85416 13.1751 4.60973 13.1815 4.33954 13.0979C4.09508 13.0206 3.92139 12.879 3.81203 12.686C3.70267 12.4929 3.68336 12.2869 3.74768 12.081L3.75414 12.0617C3.82489 11.8622 3.94713 11.7206 4.13366 11.6369C4.3138 11.5597 4.51965 11.5533 4.73837 11.6176L4.35239 12.7825ZM4.46818 11.8171C4.19801 11.7785 4.0243 11.8815 3.94713 12.1132L3.94067 12.1261C3.90851 12.229 3.90851 12.332 3.95356 12.435C3.99214 12.5379 4.06934 12.6216 4.18513 12.686L4.46818 11.8171Z" fill="white"/>
<path d="M4.68751 13.1879C4.57172 13.1879 4.44951 13.1686 4.32726 13.1235C4.07638 13.0399 3.89627 12.8983 3.78045 12.6923C3.66466 12.4864 3.64535 12.274 3.71613 12.0552L3.72256 12.0359C3.79333 11.8235 3.92843 11.6754 4.12142 11.5918C4.31441 11.5081 4.52668 11.5017 4.75186 11.5725L4.78402 11.5854L4.77114 11.6175L4.39804 12.7502C4.44305 12.7696 4.48809 12.7824 4.52668 12.7953C4.68751 12.8468 4.84191 12.8403 4.99629 12.7824C5.14427 12.7245 5.25363 12.5958 5.31152 12.4091C5.37584 12.2096 5.37584 12.023 5.31152 11.8557L5.27291 11.7784L5.601 11.9393L5.60745 11.9586C5.64604 12.1195 5.62673 12.3062 5.56241 12.5121C5.47235 12.7889 5.31152 12.9884 5.08637 13.0978C4.9577 13.1621 4.82903 13.1879 4.68751 13.1879ZM4.44305 11.6047C4.34014 11.6047 4.23721 11.624 4.1407 11.669C3.96701 11.7463 3.85123 11.875 3.78045 12.068L3.77402 12.0873C3.7097 12.2869 3.72898 12.4799 3.83192 12.6666C3.93485 12.8532 4.10854 12.9884 4.34014 13.0656C4.59746 13.1493 4.83549 13.1428 5.04133 13.0399C5.2472 12.9369 5.39515 12.7502 5.47878 12.4928C5.53667 12.3126 5.55598 12.1453 5.52382 11.9973L5.38873 11.9329C5.43374 12.0938 5.42089 12.2676 5.36299 12.4478C5.29222 12.6601 5.17 12.8017 5.00274 12.8661C4.83549 12.9305 4.66178 12.9369 4.48809 12.879C4.43662 12.8596 4.38516 12.8403 4.32726 12.8146L4.2951 12.8017L4.67466 11.6433C4.60388 11.6175 4.52668 11.6047 4.44305 11.6047ZM4.20505 12.7309L4.16643 12.7116C4.04422 12.6473 3.96059 12.5572 3.92197 12.4478C3.87696 12.3383 3.87696 12.2225 3.90912 12.1131L3.91555 12.1002C3.99917 11.8492 4.18574 11.7398 4.47524 11.7784L4.52025 11.7849L4.20505 12.7309ZM4.35942 11.8492C4.16001 11.8492 4.03779 11.9393 3.97344 12.1259L3.96701 12.1388C3.93485 12.2354 3.94128 12.3255 3.97344 12.422C4.00563 12.5057 4.06352 12.5765 4.15358 12.628L4.41089 11.8492C4.39804 11.8492 4.37873 11.8492 4.35942 11.8492Z" fill="white"/>
<path d="M6.59129 9.84123C6.59129 9.96353 6.53982 10.1244 6.44331 10.3175C6.30824 10.5814 6.1281 10.7487 5.89653 10.8324C5.66492 10.9096 5.43334 10.8903 5.19531 10.768C4.97659 10.6586 4.82864 10.4848 4.75143 10.2531C4.67423 10.0214 4.69997 9.77045 4.82864 9.513C4.90584 9.36498 4.99589 9.24268 5.11168 9.1333L5.32398 9.24271C5.18888 9.31349 5.07952 9.42933 4.99589 9.59666C4.90584 9.77688 4.89296 9.95064 4.95731 10.118C5.02163 10.2918 5.1503 10.4269 5.34971 10.5234C5.5427 10.62 5.72281 10.6393 5.89653 10.5814C6.07021 10.5234 6.19888 10.4011 6.29536 10.2145C6.37899 10.0472 6.40472 9.8734 6.37899 9.68678L6.59129 9.84123Z" fill="white"/>
<path d="M5.62006 10.9096C5.47208 10.9096 5.32413 10.871 5.17619 10.8002C4.95101 10.6844 4.79663 10.5041 4.713 10.2596C4.62937 10.015 4.65511 9.75758 4.7902 9.4937C4.86738 9.34568 4.96389 9.21053 5.07968 9.10754L5.09898 9.08826L5.39491 9.2427L5.33056 9.27488C5.20192 9.33925 5.09898 9.45509 5.01535 9.616C4.93173 9.78333 4.91885 9.94423 4.97674 10.1116C5.03466 10.2725 5.1633 10.4012 5.34987 10.4977C5.52998 10.5878 5.71012 10.6071 5.87095 10.5556C6.03178 10.4977 6.16042 10.3819 6.2505 10.2017C6.32767 10.0408 6.35986 9.87342 6.33413 9.69323L6.32125 9.60957L6.6236 9.83482V9.8541C6.6236 9.98283 6.57213 10.1437 6.46923 10.3432C6.33413 10.6136 6.14114 10.7937 5.90311 10.871C5.81305 10.8903 5.71654 10.9096 5.62006 10.9096ZM5.11184 9.17192C5.00893 9.26845 4.9253 9.39074 4.85452 9.5259C4.72585 9.7769 4.70658 10.015 4.77732 10.2403C4.85452 10.4655 4.99605 10.6329 5.20835 10.7358C5.4335 10.8517 5.65865 10.871 5.8838 10.7937C6.10252 10.7165 6.28266 10.5556 6.4113 10.2982C6.50139 10.1244 6.5464 9.9764 6.55928 9.86056L6.42418 9.75758C6.43704 9.92491 6.39845 10.0794 6.32767 10.2274C6.23119 10.4205 6.08967 10.5556 5.90953 10.6136C5.72942 10.6779 5.53643 10.6522 5.33699 10.5556C5.13114 10.4526 4.99605 10.3111 4.9253 10.1308C4.86095 9.95066 4.87383 9.76401 4.96389 9.57736C5.04109 9.42935 5.13757 9.31994 5.24693 9.2427L5.11184 9.17192Z" fill="white"/>
<path d="M5.54306 8.77943C5.47229 8.73437 5.38223 8.71509 5.2793 8.72794L5.4337 8.38685L5.62669 8.50912C5.5945 8.43834 5.57522 8.35468 5.57522 8.26455C5.57522 8.17446 5.60096 8.07794 5.66528 7.97495C5.7296 7.87197 5.81968 7.79474 5.93547 7.73682L6.06411 7.95564C5.95475 7.99424 5.87758 8.05862 5.81968 8.14871C5.78107 8.20663 5.76176 8.26455 5.76176 8.32893C5.75533 8.48981 5.84542 8.63142 6.03195 8.74726L6.68813 9.15916C6.79106 9.22351 6.894 9.25568 7.00979 9.25568L6.77818 9.62255C6.74602 9.57106 6.72671 9.53242 6.70743 9.51314C6.68813 9.49382 6.64954 9.46807 6.57876 9.42301L5.54306 8.77943Z" fill="white"/>
<path d="M6.77748 9.70621L6.74532 9.65472C6.71316 9.59037 6.69385 9.56463 6.681 9.5582C6.66812 9.54531 6.64239 9.52602 6.55876 9.47453L5.52306 8.8245C5.45871 8.78589 5.37508 8.76658 5.28502 8.77946L5.2207 8.78589L5.42012 8.35468L5.56164 8.44477C5.54879 8.39331 5.54234 8.34182 5.54234 8.29033C5.53591 8.19378 5.56807 8.09082 5.63885 7.98141C5.70317 7.87843 5.79968 7.78834 5.92189 7.73042L5.95405 7.71753L6.12776 8.00716L6.08915 8.02002C5.99267 8.05862 5.91546 8.11657 5.864 8.20024C5.83184 8.2517 5.81253 8.30965 5.81253 8.36111C5.8061 8.50915 5.88973 8.63785 6.06341 8.74726L6.71959 9.15916C6.8161 9.21708 6.91258 9.24928 7.02194 9.24928H7.08626L6.77748 9.70621ZM5.33649 8.68934C5.42012 8.68934 5.49732 8.70866 5.56164 8.75372L6.59737 9.40373C6.69385 9.46165 6.71959 9.48739 6.73247 9.50028C6.74532 9.51314 6.7582 9.53245 6.77748 9.56463L6.94474 9.29431C6.84826 9.28146 6.7582 9.24928 6.66812 9.19779L6.01195 8.78589C5.81895 8.6636 5.72247 8.50915 5.7289 8.33536C5.7289 8.27101 5.75463 8.20666 5.79325 8.14229C5.84469 8.05862 5.92189 7.99427 6.0184 7.94921L5.92832 7.79477C5.83184 7.84626 5.75463 7.91704 5.70317 8.00716C5.64527 8.10368 5.61311 8.18735 5.61954 8.27101C5.61954 8.35468 5.63885 8.43191 5.67101 8.50272L5.72247 8.61213L5.46516 8.45123L5.33649 8.68934Z" fill="white"/>
<path d="M6.82249 7.77545C6.87396 7.82048 6.91258 7.85265 6.95116 7.88486C7.09268 7.99427 7.24709 8.0393 7.42077 8.03287C7.59446 8.02644 7.74243 7.93632 7.8711 7.76899C8.00617 7.59523 8.07052 7.40858 8.05764 7.22196L8.23135 7.40215C8.21204 7.56305 8.14127 7.72396 8.01263 7.89129C7.83891 8.11654 7.63307 8.24527 7.39504 8.27744C7.15703 8.30961 6.92543 8.23881 6.69385 8.06505C6.49443 7.9106 6.37219 7.72396 6.3336 7.4987C6.29499 7.27988 6.34003 7.08035 6.47513 6.90659L6.48798 6.89373C6.61665 6.7264 6.78391 6.63628 6.98332 6.61699C7.18277 6.6041 7.37576 6.66202 7.56229 6.79718L6.82249 7.77545ZM7.25352 6.90016C7.00906 6.77786 6.81607 6.81007 6.66169 7.00314L6.65524 7.00957C6.59091 7.09324 6.55875 7.19622 6.56518 7.30563C6.57161 7.41504 6.61665 7.51799 6.70028 7.61455L7.25352 6.90016Z" fill="white"/>
<path d="M7.29921 8.32239C7.09336 8.32239 6.88749 8.24516 6.68807 8.09068C6.48223 7.92981 6.35356 7.73673 6.31497 7.50502C6.27636 7.27334 6.3214 7.06738 6.46292 6.88076L6.47577 6.86788C6.61087 6.69412 6.79101 6.59756 6.99685 6.57828C7.20915 6.56539 7.40857 6.62977 7.59513 6.76489L7.62729 6.78421L7.60799 6.81638L6.88106 7.76248C6.91965 7.79465 6.95184 7.82683 6.984 7.84614C7.1191 7.9491 7.26062 7.99416 7.42788 7.98773C7.58871 7.9813 7.73023 7.89761 7.85244 7.73673C7.98111 7.5694 8.04543 7.38918 8.03258 7.21542L8.02616 7.11887L8.28347 7.38276V7.40207C8.26416 7.5694 8.18696 7.73673 8.05832 7.90407C7.87818 8.13575 7.66591 8.2709 7.41499 8.30308C7.36998 8.32239 7.33782 8.32239 7.29921 8.32239ZM7.05475 6.65548C7.03547 6.65548 7.01616 6.65548 6.99685 6.65548C6.80386 6.66837 6.64949 6.75204 6.52724 6.91294L6.51439 6.9258C6.38572 7.09313 6.34068 7.27977 6.37929 7.49217C6.41788 7.70453 6.53367 7.88475 6.72666 8.03276C6.94538 8.20009 7.17056 8.2709 7.39571 8.23873C7.62729 8.20655 7.82671 8.08425 7.98754 7.86543C8.10333 7.71099 8.1741 7.56294 8.19984 7.41493L8.0969 7.30552C8.08405 7.46642 8.0197 7.62732 7.90391 7.78822C7.76882 7.96198 7.60798 8.05851 7.42788 8.06497C7.24774 8.0714 7.08048 8.0199 6.93253 7.91049C6.89395 7.87832 6.8489 7.84615 6.79744 7.80108L6.7717 7.78177L7.51793 6.80996C7.36998 6.70697 7.21558 6.65548 7.05475 6.65548ZM6.70095 7.67881L6.66876 7.64661C6.57871 7.54366 6.52724 7.43425 6.52082 7.31195C6.51439 7.19611 6.54655 7.0867 6.62375 6.9966L6.63018 6.99017C6.79101 6.78421 7.00328 6.74561 7.26705 6.8743L7.30563 6.89362L6.70095 7.67881ZM6.99043 6.86788C6.87464 6.86788 6.77813 6.91937 6.6945 7.02878L6.68807 7.03521C6.62375 7.11244 6.59802 7.20254 6.60444 7.30552C6.61087 7.39561 6.64303 7.47928 6.70095 7.55652L7.19627 6.90651C7.1191 6.88076 7.05475 6.86788 6.99043 6.86788Z" fill="white"/>
<path d="M9.19056 6.1214C9.26131 6.18575 9.33851 6.23081 9.42214 6.25013L9.19056 6.49466L9.06189 6.3724C9.09405 6.53973 9.03615 6.70706 8.89463 6.8551C8.75954 7.00311 8.61159 7.08035 8.46361 7.09964C8.31566 7.11896 8.18699 7.07389 8.0712 6.96448C7.94899 6.84864 7.89106 6.72637 7.90394 6.59122C7.91037 6.45606 7.96184 6.32733 8.05189 6.19864L8.23846 5.92832C8.32851 5.79317 8.32851 5.69018 8.24488 5.60652C8.18056 5.5486 8.10336 5.52285 8.00688 5.54217C7.91037 5.55503 7.81389 5.61941 7.71095 5.72882C7.58874 5.85752 7.51796 6.01199 7.49223 6.19864L7.30566 6.02485C7.35713 5.86397 7.44719 5.72236 7.57586 5.58723C7.76242 5.3877 7.92968 5.28474 8.0712 5.28474C8.21272 5.27829 8.35425 5.34266 8.49577 5.47136L9.19056 6.1214ZM8.48934 5.81891C8.49577 5.88972 8.42502 6.02485 8.27704 6.23724C8.12267 6.46249 8.12267 6.64271 8.26419 6.78429C8.33497 6.84864 8.4186 6.88082 8.50865 6.87439C8.59871 6.86796 8.68876 6.8229 8.77884 6.72637C8.86247 6.63628 8.90748 6.52687 8.90748 6.39814C8.90748 6.26941 8.85602 6.16 8.75311 6.06991L8.48934 5.81891Z" fill="white"/>
<path d="M8.41128 7.14465C8.27619 7.14465 8.1604 7.09316 8.05746 6.99663C7.92882 6.87433 7.87093 6.73921 7.87735 6.59759C7.89021 6.45601 7.94167 6.32085 8.03173 6.18569L8.21829 5.91541C8.32123 5.76094 8.27619 5.6837 8.22472 5.63867C8.16683 5.58718 8.1025 5.56786 8.01888 5.58075C7.93525 5.59361 7.83874 5.65153 7.74226 5.75451C7.62647 5.87678 7.55569 6.02482 7.52996 6.20501L7.51711 6.27582L7.25977 6.03768L7.26622 6.01836C7.32412 5.85749 7.41417 5.70302 7.54284 5.56786C7.74226 5.36193 7.90951 5.25895 8.06392 5.25252C8.21829 5.24606 8.36627 5.31044 8.51422 5.45202L9.20256 6.10203C9.26688 6.16641 9.33765 6.20501 9.42128 6.22433L9.47917 6.23719L9.18325 6.55256L9.09962 6.47532C9.09962 6.62334 9.0353 6.75849 8.91305 6.89365C8.77153 7.04812 8.61716 7.13179 8.46275 7.15108C8.45633 7.14465 8.43059 7.14465 8.41128 7.14465ZM8.07034 5.50994C8.14755 5.50994 8.21829 5.53569 8.27619 5.59361C8.34696 5.65796 8.39843 5.77383 8.27619 5.96044L8.08962 6.23076C8.00599 6.35305 7.95456 6.48175 7.9481 6.60405C7.94167 6.72632 7.99314 6.83573 8.1025 6.94514C8.20544 7.04167 8.32766 7.08673 8.46275 7.06741C8.59785 7.05455 8.73937 6.97089 8.86804 6.83573C9.00314 6.68772 9.05458 6.53967 9.02887 6.38523L9.00956 6.27582L9.18967 6.44958L9.35693 6.27582C9.28618 6.25007 9.22186 6.21144 9.16394 6.15352L8.47561 5.50351C8.34696 5.38121 8.21187 5.31687 8.07677 5.32329C7.94167 5.32972 7.78084 5.42628 7.60073 5.61935C7.48495 5.74162 7.40132 5.87678 7.34985 6.01836L7.47206 6.13423C7.50422 5.9669 7.58143 5.82529 7.69079 5.70945C7.80015 5.59361 7.90309 5.52926 8.006 5.51637C8.03173 5.50994 8.05104 5.50994 8.07034 5.50994ZM8.49491 6.91297C8.39843 6.91297 8.3148 6.88079 8.24403 6.80999C8.0832 6.66197 8.0832 6.46244 8.25045 6.2179C8.43702 5.95401 8.45633 5.85749 8.45633 5.81886L8.4499 5.72876L8.78441 6.04411C8.89378 6.14709 8.94524 6.26293 8.94524 6.39809C8.94524 6.53324 8.9002 6.64908 8.81015 6.75207C8.72006 6.84859 8.61716 6.90008 8.51422 6.90654C8.50779 6.91297 8.50134 6.91297 8.49491 6.91297ZM8.51422 5.88967C8.49491 5.95401 8.43702 6.06343 8.30835 6.2565C8.16683 6.46889 8.1604 6.6298 8.2955 6.75207C8.35982 6.80999 8.43059 6.84216 8.51422 6.83573C8.59785 6.8293 8.68148 6.78424 8.75868 6.70057C8.83588 6.61691 8.87447 6.51393 8.87447 6.39809C8.87447 6.28225 8.82943 6.17927 8.73295 6.0956L8.51422 5.88967Z" fill="white"/>
<path d="M11.262 4.36423C11.3328 4.4479 11.4036 4.50582 11.4743 4.53799L11.1527 4.79545C11.1463 4.73753 11.1398 4.69246 11.127 4.66672C11.1141 4.64097 11.0819 4.58948 11.0305 4.5187L10.4386 3.785C10.3679 3.70134 10.2842 3.6563 10.1749 3.6563C10.0719 3.6563 9.97543 3.68848 9.89826 3.75283L9.89181 3.75926C9.81463 3.81718 9.76959 3.90084 9.74386 4.00382C9.72455 4.1068 9.74386 4.1969 9.81463 4.28056L10.4258 5.04001C10.4708 5.0915 10.503 5.13011 10.5287 5.14942C10.5544 5.16871 10.593 5.18803 10.6445 5.20734L10.3228 5.46477C10.31 5.40042 10.2971 5.35536 10.2842 5.32961C10.2714 5.30387 10.2392 5.26526 10.1942 5.21377L9.58303 4.46721C9.51871 4.38355 9.42865 4.33848 9.32571 4.33206C9.22278 4.32563 9.13272 4.35137 9.0491 4.40929L9.04267 4.41572C8.95904 4.48653 8.914 4.57662 8.90757 4.69246C8.90115 4.8083 8.93973 4.91771 9.02336 5.01427L9.60876 5.74151C9.64738 5.78657 9.67954 5.81875 9.7117 5.83806L9.80175 5.8831L9.48655 6.13409C9.48009 6.07617 9.46081 6.02468 9.4222 5.97965L8.54733 4.89197C8.51514 4.85336 8.45724 4.81476 8.36719 4.78256L8.6245 4.53799L8.72101 4.66029C8.72744 4.48007 8.80464 4.33206 8.96547 4.20333L8.97189 4.1969C9.13272 4.06817 9.30641 4.02314 9.50582 4.06174L9.51871 4.01025C9.53801 3.86224 9.61519 3.72065 9.75028 3.59835L9.7889 3.56618C9.93685 3.44391 10.0913 3.39242 10.2456 3.39885C10.4065 3.41174 10.5416 3.48251 10.6509 3.6241L11.262 4.36423Z" fill="white"/>
<path d="M9.46654 6.20492L9.46011 6.13411C9.45369 6.08262 9.4408 6.04402 9.40222 5.99895L8.52732 4.91773C8.49516 4.87913 8.44369 4.84695 8.36006 4.81475L8.30859 4.79546L8.63668 4.48655L8.70743 4.57021C8.73316 4.42217 8.81679 4.28701 8.95189 4.1776C9.11272 4.04245 9.29286 3.99741 9.48585 4.02316L9.49227 4.00384C9.51158 3.84937 9.59521 3.70135 9.73673 3.57263L9.77532 3.54045C9.92972 3.41818 10.097 3.36026 10.2578 3.36669C10.4251 3.37955 10.573 3.45679 10.6888 3.60483L11.2807 4.3385C11.345 4.41574 11.4093 4.47366 11.4801 4.49941L11.538 4.52515L11.1198 4.86624L11.1134 4.80189C11.1069 4.7504 11.1005 4.70534 11.0877 4.67962C11.0812 4.66674 11.0619 4.62813 10.9976 4.54447L10.4058 3.81077C10.3414 3.73353 10.2642 3.69493 10.1742 3.69493C10.0777 3.69493 9.99404 3.72067 9.91684 3.78502L9.91041 3.79145C9.83967 3.84937 9.79463 3.92018 9.77532 4.0167C9.75601 4.10682 9.77532 4.19049 9.83321 4.26127L10.4443 5.02071C10.483 5.07221 10.5215 5.10438 10.5409 5.1237C10.5666 5.14298 10.5987 5.1623 10.6438 5.17516L10.7081 5.19447L10.29 5.53559L10.2771 5.47765C10.2642 5.40687 10.2514 5.37469 10.2449 5.36181C10.2321 5.33606 10.1999 5.29746 10.1613 5.24597L9.55017 4.49298C9.49227 4.41574 9.41507 4.37714 9.31859 4.37068C9.22851 4.36425 9.13845 4.38999 9.0677 4.44149C8.98405 4.50583 8.94546 4.5895 8.94546 4.69891C8.93903 4.80832 8.97762 4.90487 9.0484 4.99497L9.6338 5.72221C9.66596 5.76727 9.69812 5.79302 9.73031 5.81234L9.86537 5.88311L9.46654 6.20492ZM8.44369 4.77615C8.50801 4.80832 8.55305 4.8405 8.58521 4.87913L9.46011 5.96678C9.48585 5.99895 9.50512 6.03759 9.51801 6.07619L9.74316 5.896L9.70457 5.87669C9.66596 5.85094 9.62737 5.81876 9.58875 5.76727L9.00335 5.03357C8.91973 4.93062 8.87471 4.81475 8.88114 4.68605C8.88757 4.55733 8.93261 4.45434 9.02909 4.38357L9.03551 4.37714C9.1256 4.31276 9.22208 4.28701 9.33144 4.29347C9.44723 4.2999 9.53731 4.35139 9.61449 4.44149L10.2256 5.19447C10.2707 5.24597 10.2964 5.29103 10.3157 5.31677C10.3286 5.33606 10.3414 5.36181 10.3479 5.40044L10.573 5.22022C10.5473 5.20736 10.5215 5.19447 10.5023 5.18162C10.4765 5.1623 10.4379 5.1237 10.3929 5.06578L9.78174 4.30633C9.711 4.21623 9.68526 4.11325 9.70457 3.99741C9.73031 3.888 9.78174 3.79791 9.86537 3.73353L9.87183 3.7271C9.95546 3.65629 10.0584 3.62412 10.1742 3.62412C10.29 3.62412 10.3865 3.66918 10.4637 3.7657L11.0555 4.49941C11.1134 4.57021 11.1456 4.62167 11.1584 4.65388C11.1649 4.67317 11.1713 4.69891 11.1777 4.72466L11.4029 4.53801C11.345 4.50583 11.2807 4.44791 11.2292 4.38357L10.6373 3.64986C10.528 3.51471 10.4058 3.44393 10.2514 3.43747C10.1034 3.42461 9.95546 3.48253 9.81393 3.59194L9.77532 3.62412C9.64665 3.73996 9.56947 3.87511 9.55659 4.0167L9.53731 4.10682L9.50512 4.10039C9.31859 4.06176 9.15133 4.10682 9.00335 4.22909C8.84898 4.35139 8.77178 4.49298 8.77178 4.66674V4.76329L8.63668 4.59593L8.44369 4.77615Z" fill="white"/>
<path d="M12.0336 2.73609C12.0722 2.71678 12.1172 2.69747 12.1623 2.69747C12.2073 2.69104 12.2459 2.69747 12.2909 2.71034C12.3295 2.72321 12.3681 2.74252 12.4067 2.76827C12.4389 2.79401 12.471 2.83262 12.4904 2.87124C12.5097 2.90985 12.5289 2.95491 12.5354 2.99994C12.5418 3.04501 12.5354 3.08364 12.5289 3.12867C12.5161 3.1673 12.4968 3.20591 12.471 3.24451C12.4453 3.28314 12.4131 3.30889 12.3746 3.32818C12.3359 3.34749 12.2909 3.36681 12.2459 3.37324C12.2009 3.37967 12.1558 3.37324 12.1172 3.36681C12.0786 3.35392 12.04 3.33463 12.0014 3.30889C11.9693 3.28314 11.9371 3.24451 11.9178 3.20591C11.8985 3.1673 11.8792 3.12224 11.8728 3.07718C11.8663 3.03215 11.8728 2.98709 11.8792 2.94848C11.8921 2.90985 11.9114 2.87124 11.9371 2.83262C11.9628 2.78757 11.995 2.76183 12.0336 2.73609Z" fill="white"/>
<path d="M12.1944 3.4055C12.1623 3.4055 12.1301 3.39907 12.0979 3.39261C12.0529 3.37975 12.0078 3.36044 11.9693 3.32826C11.9306 3.29609 11.8985 3.25745 11.8728 3.21885C11.847 3.17379 11.8342 3.12876 11.8277 3.07726C11.8213 3.02577 11.8277 2.98071 11.8406 2.93568C11.8534 2.89062 11.8728 2.84557 11.9049 2.80695C11.9371 2.76834 11.9693 2.73616 12.0143 2.71042C12.0593 2.68467 12.1044 2.6718 12.1558 2.66537C12.2073 2.65893 12.2523 2.66537 12.2974 2.67824C12.3424 2.69111 12.3874 2.71042 12.426 2.7426C12.4646 2.77478 12.4968 2.81339 12.5225 2.85201C12.5482 2.89706 12.5611 2.94211 12.5675 2.9936C12.574 3.04509 12.5675 3.09012 12.5547 3.13518C12.5418 3.18025 12.5225 3.22528 12.4903 3.26391C12.4582 3.30252 12.426 3.33469 12.381 3.36044C12.3359 3.38618 12.2909 3.39907 12.2394 3.4055C12.2266 3.39907 12.2137 3.4055 12.1944 3.4055ZM12.0529 2.76834C12.0143 2.78765 11.9885 2.81339 11.9628 2.84557C11.9371 2.87775 11.9242 2.90993 11.9114 2.94854C11.8985 2.98717 11.8985 3.02577 11.9049 3.06438C11.9114 3.10301 11.9242 3.14161 11.9435 3.18025C11.9628 3.21885 11.9885 3.2446 12.0207 3.27034C12.0529 3.29609 12.0851 3.30894 12.1236 3.32183C12.1623 3.33469 12.2008 3.33469 12.2394 3.32826C12.278 3.32183 12.3166 3.30894 12.3552 3.28966C12.3874 3.27034 12.4196 3.2446 12.4453 3.21242C12.471 3.18025 12.4839 3.14804 12.4968 3.10944C12.5096 3.07084 12.5096 3.03866 12.5032 2.9936C12.4968 2.95497 12.4839 2.91636 12.4646 2.87775C12.4453 2.83913 12.4196 2.81339 12.3874 2.78765C12.3552 2.7619 12.3231 2.7426 12.2845 2.73616C12.2459 2.72329 12.2073 2.72329 12.1687 2.72329C12.1301 2.73616 12.0915 2.74903 12.0529 2.76834Z" fill="white"/>
<path d="M13.3004 1.13357C13.2553 1.15288 13.2039 1.15288 13.1588 1.13357C13.1138 1.11426 13.0816 1.08208 13.0623 1.03703C13.043 0.991981 13.043 0.946931 13.0623 0.901878C13.0816 0.856827 13.1138 0.824647 13.1588 0.798905C13.2039 0.779597 13.2489 0.779597 13.2939 0.798905C13.339 0.818212 13.3711 0.850393 13.3904 0.895443C13.4097 0.940493 13.4097 0.985546 13.3904 1.03703C13.3775 1.08208 13.3454 1.11426 13.3004 1.13357ZM13.9951 3.19305C14.008 3.14156 13.9951 3.07721 13.9694 3.00641L13.4226 1.73854C13.3968 1.68062 13.3775 1.64201 13.3583 1.6227C13.339 1.60339 13.3132 1.58408 13.2811 1.57121L13.5963 1.39744L14.2331 2.87769C14.2653 2.95492 14.3103 3.00641 14.3554 3.03215L13.9951 3.19305Z" fill="white"/>
<path d="M13.9445 3.25092L13.9574 3.18011C13.9702 3.13505 13.9574 3.08358 13.9317 3.01921L13.3848 1.75778C13.3591 1.69342 13.3398 1.66768 13.3269 1.6548C13.3076 1.6355 13.2883 1.62263 13.2626 1.60975L13.1918 1.58401L13.61 1.35875L13.6228 1.39737L14.2597 2.87762C14.2854 2.94197 14.3241 2.98703 14.3691 3.01278L14.4398 3.04495L13.9445 3.25092ZM13.3527 1.57757C13.3655 1.58401 13.372 1.59688 13.3848 1.60332C13.4106 1.62906 13.4363 1.66768 13.462 1.73204L14.0088 2.99346C14.0281 3.04495 14.041 3.09001 14.0474 3.13505L14.279 3.02564C14.2469 2.99346 14.2147 2.94843 14.1954 2.89693L13.5714 1.45529L13.3527 1.57757ZM13.2304 1.18499C13.2047 1.18499 13.179 1.17855 13.1532 1.17212C13.0953 1.15281 13.0568 1.11419 13.031 1.05627C13.0053 1.00478 13.0053 0.94686 13.031 0.895372C13.0503 0.837449 13.0953 0.798834 13.1468 0.773091C13.1983 0.747349 13.2562 0.747349 13.3076 0.773091C13.3655 0.792399 13.4041 0.831014 13.4234 0.888937C13.4492 0.94686 13.4492 0.998348 13.4234 1.05627C13.4041 1.11419 13.3655 1.15281 13.3076 1.17212C13.2883 1.18499 13.2562 1.18499 13.2304 1.18499ZM13.2304 0.824579C13.2111 0.824579 13.1919 0.831014 13.1725 0.837449C13.134 0.856757 13.1082 0.882502 13.0953 0.921117C13.0825 0.959733 13.0825 0.99191 13.0953 1.03053C13.1082 1.06914 13.1404 1.09489 13.1725 1.10776C13.2111 1.12063 13.2497 1.12063 13.2883 1.10776C13.3269 1.09489 13.3462 1.06914 13.3655 1.03053C13.3784 0.99191 13.3784 0.959733 13.3655 0.921117C13.3527 0.888937 13.3269 0.863194 13.2883 0.843887C13.269 0.831014 13.2497 0.824579 13.2304 0.824579Z" fill="white"/>
<path d="M15.8229 2.44647C15.7328 2.53657 15.5913 2.6138 15.3854 2.68459C15.1088 2.78113 14.8579 2.78113 14.6328 2.67172C14.414 2.56875 14.2597 2.38854 14.1696 2.13754C14.086 1.90585 14.0988 1.6806 14.2082 1.45534C14.3111 1.23009 14.5041 1.06919 14.7743 0.979086C14.9287 0.927598 15.0831 0.901855 15.2375 0.901855L15.3147 1.12711C15.1667 1.08206 15.0059 1.09493 14.8322 1.15285C14.6457 1.21721 14.517 1.33306 14.4398 1.50039C14.369 1.66772 14.369 1.85436 14.4398 2.06675C14.5106 2.2727 14.6263 2.41429 14.7936 2.49152C14.9544 2.56875 15.141 2.57518 15.3404 2.50439C15.5141 2.44003 15.662 2.33706 15.7714 2.18259L15.8229 2.44647Z" fill="white"/>
<path d="M15.0053 2.78751C14.8702 2.78751 14.7415 2.76177 14.6257 2.70384C14.3941 2.59443 14.2333 2.40779 14.1432 2.15036C14.0596 1.91223 14.0725 1.6741 14.1818 1.44241C14.2912 1.21072 14.4906 1.04339 14.7737 0.946848C14.9345 0.888925 15.0953 0.863183 15.2497 0.869617H15.2755L15.3848 1.18498L15.314 1.16567C15.1789 1.12705 15.0181 1.13349 14.8509 1.19141C14.6708 1.25577 14.5485 1.35875 14.4842 1.51964C14.4134 1.6741 14.4198 1.86074 14.4842 2.06026C14.5549 2.25977 14.6643 2.38849 14.8187 2.45928C14.9731 2.53007 15.1468 2.53651 15.3334 2.47215C15.5006 2.41423 15.6421 2.31126 15.7451 2.16323L15.7965 2.09243L15.8544 2.46572L15.8415 2.47859C15.7515 2.56869 15.6035 2.65235 15.3912 2.72315C15.2626 2.76177 15.1339 2.78751 15.0053 2.78751ZM15.224 0.933978C15.0825 0.933978 14.9409 0.959721 14.7994 1.01121C14.5357 1.10131 14.3491 1.25577 14.2526 1.47459C14.1497 1.68698 14.1432 1.91223 14.214 2.13105C14.2976 2.36918 14.4456 2.54295 14.6579 2.63949C14.8702 2.74246 15.1146 2.74246 15.3784 2.65236C15.5649 2.588 15.7 2.5172 15.7901 2.43354L15.7643 2.2662C15.655 2.38849 15.5263 2.48502 15.3719 2.53651C15.1661 2.6073 14.9731 2.6073 14.7994 2.52364C14.6257 2.43997 14.5035 2.29195 14.4263 2.07956C14.3491 1.86074 14.3491 1.66123 14.4263 1.48746C14.5035 1.31369 14.6386 1.18498 14.838 1.12062C14.9924 1.06913 15.1404 1.04982 15.2755 1.07557L15.224 0.933978Z" fill="white"/>
<path d="M16.0864 1.41661C16.0992 1.48097 16.1057 1.5389 16.1185 1.58395C16.1571 1.75772 16.2472 1.89287 16.3887 1.99584C16.5303 2.09882 16.6975 2.12456 16.9034 2.07951C17.1221 2.02802 17.2829 1.93148 17.3987 1.77702L17.418 2.02802C17.3022 2.13743 17.1414 2.2211 16.942 2.26615C16.6654 2.33051 16.4273 2.29833 16.2215 2.16961C16.0156 2.0409 15.8805 1.84138 15.8162 1.56464C15.7583 1.32008 15.784 1.09482 15.8934 0.901745C16.0028 0.708669 16.1636 0.57995 16.3759 0.5349L16.3952 0.528465C16.601 0.483412 16.7876 0.515592 16.9548 0.631438C17.1221 0.747284 17.2314 0.914618 17.2829 1.13987L16.0864 1.41661ZM16.9677 1.01115C16.8583 0.760157 16.6846 0.663619 16.4466 0.721542H16.4338C16.3308 0.747284 16.2408 0.805207 16.1764 0.888872C16.1121 0.978976 16.0799 1.08838 16.0864 1.2171L16.9677 1.01115Z" fill="white"/>
<path d="M16.6721 2.33699C16.4984 2.33699 16.3375 2.29194 16.196 2.20827C15.9837 2.07312 15.8422 1.86717 15.7778 1.57756C15.72 1.32012 15.7457 1.08843 15.8615 0.888919C15.9773 0.68297 16.1445 0.554254 16.3697 0.502766L16.389 0.496331C16.6077 0.451278 16.8071 0.483459 16.9744 0.605739C17.1417 0.728023 17.2575 0.901792 17.3218 1.13348L17.3282 1.1721L16.1317 1.45528C16.1381 1.50676 16.151 1.55181 16.1574 1.59043C16.196 1.75133 16.2796 1.88648 16.4147 1.98302C16.5434 2.07956 16.7042 2.1053 16.8972 2.06025C17.1031 2.00876 17.2639 1.91222 17.3668 1.77064L17.4247 1.6934L17.4569 2.06025L17.444 2.07312C17.3218 2.18897 17.161 2.27263 16.9487 2.32412C16.8522 2.32412 16.7621 2.33699 16.6721 2.33699ZM16.5691 0.541382C16.5176 0.541382 16.4598 0.547816 16.4019 0.560689L16.3826 0.567124C16.1767 0.612177 16.0223 0.734458 15.9194 0.921099C15.8165 1.10774 15.7907 1.32656 15.8486 1.55825C15.9129 1.82856 16.0416 2.02163 16.2346 2.14392C16.4276 2.2662 16.6656 2.29194 16.9294 2.23402C17.1159 2.18897 17.2703 2.11817 17.3797 2.0152L17.3668 1.86717C17.251 1.98945 17.103 2.06668 16.9101 2.11174C16.6978 2.16322 16.5112 2.13104 16.3633 2.02163C16.2217 1.91222 16.1252 1.77064 16.0802 1.59043C16.0673 1.53894 16.0609 1.48102 16.048 1.4231L16.0416 1.39092L17.2317 1.11418C17.1738 0.921099 17.0709 0.766638 16.9229 0.663662C16.82 0.579997 16.6978 0.541382 16.5691 0.541382ZM16.048 1.2622V1.21715C16.0416 1.082 16.0738 0.959715 16.1445 0.869611C16.2153 0.773073 16.3118 0.71515 16.4212 0.689408H16.434C16.6914 0.631485 16.8779 0.734458 17.0001 0.99833L17.0194 1.03695L16.048 1.2622ZM16.5691 0.740893C16.5305 0.740893 16.4919 0.747331 16.4533 0.753766H16.4404C16.344 0.773073 16.2603 0.830996 16.2024 0.908227C16.151 0.979022 16.1188 1.06912 16.1188 1.16566L16.9165 0.979022C16.8329 0.818123 16.7171 0.740893 16.5691 0.740893Z" fill="white"/>
<path d="M19.7664 1.79643C19.6571 1.86079 19.4962 1.89941 19.2839 1.91872C18.988 1.94446 18.75 1.87366 18.5634 1.7192C18.3769 1.56474 18.274 1.35236 18.2482 1.08849C18.2289 0.843922 18.2997 0.625103 18.4541 0.438462C18.6149 0.245387 18.8336 0.142413 19.1231 0.116669C19.2904 0.103797 19.4448 0.116669 19.5927 0.16172L19.612 0.399847C19.4833 0.322616 19.3225 0.290438 19.136 0.303308C18.9366 0.316181 18.7822 0.399847 18.6728 0.541438C18.5634 0.683026 18.512 0.869668 18.5313 1.08849C18.5506 1.30731 18.6278 1.4682 18.7693 1.58405C18.9108 1.6999 19.0845 1.75138 19.2904 1.73207C19.4769 1.7192 19.6442 1.64841 19.7857 1.52613L19.7664 1.79643Z" fill="white"/>
<path d="M19.1745 1.95725C18.9236 1.95725 18.7113 1.88645 18.5441 1.74487C18.3511 1.58397 18.2417 1.35871 18.216 1.08841C18.1967 0.837407 18.2674 0.605715 18.4347 0.412639C18.5955 0.213126 18.8336 0.103717 19.1295 0.0779729C19.2968 0.0651013 19.4576 0.0779729 19.612 0.123024L19.6377 0.12946L19.6634 0.464124L19.6055 0.425509C19.4833 0.348278 19.3289 0.322536 19.1552 0.335409C18.9687 0.348278 18.8207 0.425509 18.7178 0.560662C18.6148 0.695816 18.5698 0.869585 18.5827 1.08197C18.602 1.28792 18.6727 1.44881 18.8078 1.55179C18.9365 1.6612 19.1102 1.70625 19.3032 1.69338C19.4833 1.68051 19.6377 1.61615 19.7792 1.5003L19.8435 1.44238L19.8114 1.8221L19.7985 1.82853C19.6892 1.89289 19.5219 1.9315 19.3032 1.95081C19.2517 1.95081 19.2131 1.95725 19.1745 1.95725ZM19.2453 0.142332C19.2067 0.142332 19.1681 0.142332 19.1295 0.148768C18.8528 0.168075 18.6341 0.277485 18.4862 0.457689C18.3318 0.637893 18.2674 0.850277 18.2868 1.08197C18.3061 1.33297 18.409 1.53892 18.5891 1.68694C18.7692 1.83497 19.0008 1.90576 19.2839 1.88002C19.4833 1.86715 19.6313 1.82853 19.7342 1.77704L19.7471 1.60327C19.612 1.69981 19.464 1.7513 19.2968 1.76417C19.078 1.78348 18.8915 1.73199 18.7499 1.60971C18.602 1.48743 18.5183 1.31366 18.4991 1.08841C18.4797 0.856715 18.5312 0.670073 18.647 0.515612C18.7628 0.367586 18.93 0.277485 19.1359 0.264613C19.3032 0.251742 19.4447 0.277485 19.5734 0.335409L19.5605 0.187383C19.464 0.155203 19.3546 0.142332 19.2453 0.142332Z" fill="white"/>
<path d="M20.1262 0.341915C20.1262 0.251813 20.1005 0.168146 20.0361 0.0909158L20.4092 0.0523006L20.4028 0.283992C20.4478 0.219633 20.5057 0.16171 20.5829 0.110223C20.6601 0.0587364 20.7566 0.0394287 20.8724 0.0394287C20.9882 0.0394287 21.104 0.078044 21.2134 0.148839L21.0911 0.374096C21.0011 0.3033 20.9046 0.264685 20.8017 0.264685C20.7309 0.264685 20.673 0.277556 20.6215 0.3033C20.48 0.380531 20.4092 0.534992 20.4028 0.747376L20.39 1.52612C20.39 1.64196 20.4157 1.75137 20.4736 1.84791L20.0361 1.84147C20.0683 1.78999 20.0811 1.75137 20.0876 1.72563C20.094 1.69988 20.1005 1.6484 20.1005 1.57117L20.1262 0.341915Z" fill="white"/>
<path d="M20.5442 1.88653L19.9846 1.88009L20.0167 1.82861C20.0489 1.76425 20.0617 1.7385 20.0682 1.71919C20.0746 1.70632 20.0746 1.66771 20.081 1.57117L20.1003 0.341917C20.1003 0.264687 20.0746 0.187457 20.0167 0.110226L19.9717 0.0651747L20.4477 0.0136878V0.18102C20.4863 0.142405 20.5249 0.110226 20.57 0.0780465C20.6536 0.0265595 20.7565 -0.00561987 20.8787 0.000816026C21.001 0.000816026 21.1232 0.0394313 21.239 0.116662L21.2647 0.135969L21.1103 0.43202L21.0782 0.406275C20.9945 0.341917 20.9045 0.303302 20.808 0.303302H20.8015C20.7436 0.303302 20.6857 0.316175 20.6472 0.341917C20.5185 0.412713 20.4542 0.554301 20.4477 0.76025L20.4349 1.53899C20.4349 1.6484 20.4606 1.75137 20.5121 1.84791L20.5442 1.88653ZM20.1003 1.8093L20.4156 1.81573C20.377 1.72563 20.3577 1.62909 20.3577 1.52612L20.3705 0.747377C20.377 0.515686 20.4542 0.35479 20.6085 0.271123C20.6664 0.238943 20.7308 0.226072 20.808 0.226072C20.9109 0.226072 21.001 0.258251 21.0846 0.316175L21.1682 0.155277C21.0717 0.10379 20.9752 0.0716108 20.8723 0.0716108C20.8659 0.0716108 20.8659 0.0716108 20.8594 0.0716108C20.7565 0.0716108 20.6664 0.0909184 20.6021 0.135969C20.5313 0.18102 20.4735 0.238943 20.4349 0.296867L20.3641 0.393405L20.3705 0.0844823L20.1003 0.116662C20.1454 0.187457 20.1647 0.264687 20.1647 0.341917L20.1454 1.57117C20.1454 1.68058 20.1389 1.71919 20.1325 1.7385C20.1261 1.75781 20.1197 1.77712 20.1003 1.8093Z" fill="white"/>
<path d="M21.6385 0.914729C21.6256 0.979087 21.6192 1.03701 21.6127 1.08206C21.5935 1.25583 21.6321 1.41673 21.7286 1.55832C21.825 1.69991 21.9795 1.78357 22.1853 1.80288C22.404 1.82862 22.597 1.78357 22.7514 1.6806L22.6871 1.92516C22.5391 1.98952 22.3654 2.01526 22.1596 1.99596C21.8765 1.96378 21.6642 1.8608 21.5098 1.67416C21.3554 1.48752 21.2975 1.24939 21.3233 0.966217C21.349 0.715218 21.4455 0.509268 21.6127 0.361242C21.78 0.213218 21.973 0.148859 22.1917 0.174603H22.211C22.4233 0.200346 22.5842 0.290449 22.7064 0.451346C22.8222 0.612242 22.8736 0.811756 22.8543 1.03701L21.6385 0.914729ZM22.6034 0.818191C22.5777 0.547884 22.4491 0.399857 22.2046 0.374115H22.1917C22.0824 0.361242 21.9859 0.386988 21.8894 0.451346C21.7993 0.515703 21.735 0.605807 21.6964 0.728087L22.6034 0.818191Z" fill="white"/>
<path d="M22.3072 2.04097C22.2622 2.04097 22.2107 2.04097 22.1593 2.03453C21.8698 2.00236 21.6446 1.89295 21.4838 1.69987C21.3294 1.50679 21.2586 1.25579 21.2908 0.966179C21.3165 0.702307 21.4195 0.496361 21.5932 0.341899C21.7669 0.187438 21.9727 0.116643 22.1979 0.142387H22.2172C22.4359 0.16813 22.6096 0.264668 22.7382 0.438438C22.8605 0.605769 22.9119 0.811718 22.8926 1.04984V1.08846L22.854 1.08202L21.6704 0.959744C21.6639 1.01123 21.6575 1.05628 21.6511 1.0949C21.6318 1.26223 21.6704 1.41669 21.7604 1.54541C21.8505 1.68056 21.9984 1.75779 22.1914 1.7771C22.4037 1.79641 22.5838 1.75779 22.7318 1.66125L22.809 1.60977L22.7189 1.96374L22.7061 1.97018C22.5967 2.01523 22.4616 2.04097 22.3072 2.04097ZM22.1207 0.20031C21.947 0.20031 21.7862 0.264668 21.6511 0.38695C21.4902 0.528538 21.4002 0.721614 21.3745 0.966179C21.3487 1.23649 21.4066 1.46818 21.5481 1.64838C21.6961 1.82859 21.902 1.93156 22.1722 1.9573C22.3651 1.97661 22.5324 1.9573 22.6675 1.89938L22.7061 1.75779C22.5581 1.83502 22.3908 1.86076 22.1979 1.84146C21.9792 1.81571 21.8119 1.73205 21.709 1.57759C21.606 1.42956 21.5674 1.26223 21.5867 1.07559C21.5932 1.03054 21.5996 0.972614 21.6125 0.901821L21.6189 0.86964L21.6511 0.876075L22.8348 0.998359C22.8476 0.79241 22.7961 0.618641 22.6932 0.470615C22.5838 0.316154 22.423 0.226053 22.2236 0.206745H22.2043C22.1722 0.206745 22.1464 0.20031 22.1207 0.20031ZM22.6482 0.856768L21.6575 0.753795L21.6704 0.715179C21.709 0.586461 21.7797 0.483488 21.8762 0.41913C21.9727 0.354769 22.0885 0.322592 22.1979 0.335462H22.2107C22.4745 0.361207 22.616 0.522103 22.6418 0.811718L22.6482 0.856768ZM21.754 0.695872L22.5646 0.779537C22.5324 0.554283 22.4166 0.432 22.2043 0.406257H22.1914C22.0885 0.393385 21.9984 0.41913 21.9148 0.477053C21.8441 0.528538 21.7862 0.599334 21.754 0.695872Z" fill="white"/>
<path d="M24.2882 2.06677C24.2689 2.16331 24.2753 2.24698 24.3011 2.33064L23.973 2.25985L24.0116 2.08608C23.8829 2.20192 23.7157 2.24054 23.5098 2.19549C23.3104 2.15687 23.1689 2.07321 23.0788 1.95736C22.9887 1.84152 22.9566 1.70636 22.9887 1.55834C23.0209 1.39744 23.0981 1.28159 23.2139 1.22367C23.3297 1.15931 23.4712 1.13357 23.6256 1.14644L23.9537 1.16575C24.1145 1.17218 24.2046 1.11426 24.2303 0.998415C24.2496 0.914749 24.2239 0.837519 24.166 0.760288C24.1017 0.689492 23.9987 0.638004 23.8508 0.605827C23.6771 0.567212 23.5098 0.586519 23.3361 0.66375L23.3876 0.412751C23.5484 0.374135 23.7221 0.374135 23.9022 0.412751C24.1724 0.470673 24.3461 0.554339 24.4233 0.67662C24.5005 0.798903 24.5262 0.946927 24.4876 1.13357L24.2882 2.06677ZM24.1788 1.30734C24.1209 1.34595 23.9666 1.35882 23.7092 1.34595C23.4391 1.33308 23.2782 1.42318 23.2396 1.62269C23.2203 1.71923 23.2332 1.8029 23.2911 1.88013C23.3425 1.95736 23.4326 2.00885 23.5548 2.03459C23.6771 2.06033 23.7929 2.03459 23.9022 1.97023C24.0116 1.90587 24.0759 1.8029 24.1017 1.66775L24.1788 1.30734Z" fill="white"/>
<path d="M24.3525 2.38212L23.9279 2.29201L23.9537 2.1826C23.8315 2.25983 23.6771 2.27914 23.497 2.24053C23.2911 2.19547 23.1431 2.11181 23.0402 1.98953C22.9437 1.86724 22.9115 1.71922 22.9437 1.55832C22.9823 1.38455 23.0659 1.26227 23.1881 1.19791C23.3104 1.13355 23.4519 1.10781 23.6192 1.11425L23.9473 1.13355C24.1338 1.13999 24.1724 1.05632 24.1853 0.9984C24.1981 0.92117 24.1853 0.856812 24.1274 0.792454C24.0695 0.728093 23.973 0.676608 23.8379 0.650863C23.6771 0.618685 23.5098 0.637993 23.3425 0.708786L23.2782 0.734531L23.349 0.393429L23.3747 0.386994C23.542 0.348378 23.7221 0.348378 23.9022 0.386994C24.1853 0.444917 24.359 0.535017 24.449 0.67017C24.5327 0.798889 24.5584 0.959785 24.5134 1.15286L24.3204 2.07963C24.3011 2.16973 24.3075 2.2534 24.3332 2.32419L24.3525 2.38212ZM24.0116 2.23409L24.2432 2.28558C24.2303 2.21478 24.2303 2.13755 24.2496 2.06032L24.4426 1.13355C24.4812 0.959785 24.4619 0.811762 24.3847 0.702351C24.3139 0.59294 24.1402 0.509274 23.8894 0.451351C23.7221 0.419171 23.5677 0.412736 23.4133 0.444917L23.3811 0.612247C23.542 0.554325 23.7028 0.541455 23.8572 0.573632C24.0116 0.605813 24.1209 0.663735 24.1917 0.740966C24.2625 0.824631 24.2882 0.914735 24.2625 1.00484C24.2432 1.09494 24.1724 1.20435 23.9537 1.19791L23.6256 1.17861C23.4776 1.17217 23.3425 1.19791 23.2332 1.25584C23.1238 1.31376 23.0531 1.41673 23.0209 1.57119C22.9887 1.71278 23.0209 1.83507 23.1045 1.94447C23.1881 2.05389 23.3297 2.13112 23.5162 2.16973C23.7092 2.20835 23.8636 2.17617 23.9858 2.06676L24.0695 1.98953L24.0116 2.23409ZM23.6513 2.07963C23.6192 2.07963 23.587 2.07319 23.5484 2.06676C23.4133 2.04101 23.3168 1.98309 23.2589 1.89942C23.201 1.81576 23.1817 1.71922 23.201 1.61624C23.2461 1.4103 23.394 1.30732 23.6578 1.30732C23.6771 1.30732 23.6899 1.30732 23.7092 1.30732C24.0309 1.32663 24.1274 1.29445 24.1531 1.27514L24.2303 1.21722L24.1338 1.66773C24.1017 1.80932 24.0309 1.91873 23.9151 1.99596C23.8379 2.04745 23.7478 2.07963 23.6513 2.07963ZM23.6642 1.37812C23.4391 1.37812 23.3168 1.46178 23.2782 1.62912C23.2589 1.71278 23.2718 1.79001 23.3232 1.86081C23.3683 1.9316 23.4519 1.97665 23.5677 2.0024C23.6835 2.0217 23.7864 2.0024 23.8894 1.94447C23.9858 1.88012 24.0502 1.79001 24.0759 1.66773L24.1402 1.37812C24.0759 1.39743 23.9537 1.40386 23.7221 1.39099C23.6899 1.37812 23.6771 1.37812 23.6642 1.37812Z" fill="white"/>
<path d="M26.862 2.90977C26.8233 3.01275 26.8105 3.10285 26.8298 3.18008L26.4374 3.0385C26.4824 3.00632 26.5146 2.97415 26.5339 2.9484C26.5532 2.92266 26.5789 2.87117 26.6046 2.7875L26.9199 1.89292C26.9584 1.78994 26.9456 1.6934 26.8941 1.6033C26.8362 1.5132 26.7655 1.44884 26.669 1.41666L26.6561 1.41022C26.566 1.37804 26.4695 1.37804 26.373 1.41022C26.2765 1.4424 26.2058 1.5132 26.1736 1.60974L25.8455 2.53007C25.8198 2.59443 25.8069 2.63948 25.8069 2.67809C25.8005 2.71027 25.8069 2.75532 25.8198 2.80681L25.4338 2.67166C25.4853 2.62661 25.511 2.59443 25.5239 2.56868C25.5368 2.54294 25.556 2.49789 25.5753 2.43353L25.9034 1.51963C25.942 1.41666 25.9356 1.32012 25.8841 1.23002C25.8391 1.13992 25.7683 1.07556 25.6783 1.03694H25.6718C25.5689 0.998326 25.466 1.0112 25.363 1.06912C25.2601 1.12704 25.1894 1.21715 25.1443 1.33299L24.8291 2.21471C24.8098 2.2662 24.797 2.31768 24.797 2.3563L24.8034 2.45284L24.4238 2.31768C24.4689 2.2855 24.501 2.24045 24.5203 2.18253L24.9899 0.869611C25.0092 0.818123 25.0092 0.747327 24.9899 0.657227L25.3373 0.747327L25.2858 0.895353C25.4403 0.80525 25.6139 0.798815 25.8005 0.863173H25.8069C25.9999 0.933968 26.135 1.06269 26.1994 1.24933L26.2508 1.23002C26.3859 1.16566 26.5467 1.16566 26.7269 1.21715L26.7719 1.23002C26.952 1.29438 27.0807 1.39735 27.1514 1.53894C27.2222 1.68053 27.2286 1.83499 27.1707 2.00876L26.862 2.90977Z" fill="white"/>
<path d="M26.8743 3.2381L26.3661 3.05788L26.4175 3.01928C26.4626 2.98708 26.4947 2.9549 26.5076 2.93562C26.5205 2.92273 26.5398 2.88412 26.5719 2.78758L26.8871 1.89299C26.9193 1.80289 26.9129 1.71278 26.8614 1.63555C26.81 1.55189 26.7392 1.49397 26.6555 1.46179L26.6427 1.45535C26.5591 1.42317 26.4754 1.42961 26.3854 1.46179C26.2953 1.49397 26.2374 1.55189 26.2052 1.64199L25.8772 2.56232C25.8514 2.63955 25.8385 2.67817 25.8385 2.69747C25.8321 2.72322 25.8385 2.76827 25.8514 2.81332L25.8643 2.87768L25.3561 2.69747L25.4011 2.65886C25.459 2.61381 25.4783 2.58163 25.4847 2.56876C25.4976 2.54301 25.5169 2.49796 25.5362 2.44004L25.8643 1.52615C25.8965 1.43604 25.89 1.35238 25.8514 1.26871C25.8064 1.18504 25.7485 1.12712 25.6584 1.08851C25.5619 1.05633 25.4719 1.06276 25.3754 1.11425C25.2789 1.16574 25.2146 1.2494 25.1759 1.35881L24.8607 2.24053C24.8414 2.29201 24.835 2.33707 24.835 2.36924L24.8479 2.51727L24.3525 2.3435L24.4104 2.30489C24.449 2.27914 24.4748 2.24053 24.4941 2.18904L24.9637 0.876121C24.9765 0.831071 24.9765 0.76671 24.9637 0.683045L24.9572 0.625122L25.3947 0.740968L25.3561 0.843941C25.4976 0.786018 25.652 0.786018 25.8193 0.850379C26.0187 0.921172 26.1538 1.04346 26.231 1.22366L26.2438 1.21722C26.3854 1.15286 26.5526 1.14643 26.7392 1.19792L26.7842 1.21722C26.9708 1.28158 27.1058 1.39099 27.1831 1.53902C27.2603 1.68704 27.2667 1.85438 27.2024 2.03458L26.8871 2.92273C26.855 3.01928 26.8421 3.10295 26.855 3.18015L26.8743 3.2381ZM26.5076 3.03214L26.7842 3.12869C26.7842 3.05788 26.7971 2.98065 26.8292 2.89699L27.1445 2.00884C27.2024 1.84794 27.1959 1.69991 27.1252 1.5712C27.0544 1.44248 26.9322 1.3395 26.7649 1.28158L26.7199 1.26227C26.5526 1.21722 26.3982 1.21722 26.2696 1.27515L26.1859 1.30732L26.1731 1.27515C26.1087 1.09494 25.9865 0.979094 25.8 0.914737C25.6134 0.850379 25.4526 0.856814 25.3046 0.940479L25.221 0.991967L25.2918 0.792456L25.0408 0.72166C25.0473 0.792456 25.0473 0.850379 25.028 0.895429L24.5584 2.20835C24.5455 2.2534 24.5198 2.28558 24.4941 2.31776L24.7642 2.4143V2.36924C24.7642 2.32419 24.7771 2.27271 24.7964 2.21478L25.1116 1.33307C25.1567 1.20435 25.2339 1.10781 25.3432 1.04989C25.4526 0.985532 25.5684 0.97266 25.6777 1.01771C25.7871 1.06276 25.8643 1.13356 25.9157 1.23009C25.9672 1.33307 25.9736 1.43604 25.9351 1.54545L25.607 2.45935C25.5812 2.52371 25.5684 2.56876 25.5491 2.60094C25.5362 2.62024 25.5169 2.64599 25.4912 2.67173L25.7614 2.76827C25.7549 2.73609 25.7549 2.71035 25.7614 2.69104C25.7678 2.65242 25.7806 2.60094 25.8064 2.53658L26.1345 1.61625C26.1731 1.50684 26.2503 1.42961 26.3596 1.39099C26.4626 1.35238 26.5719 1.35238 26.6684 1.39099L26.6813 1.39743C26.7842 1.43604 26.8678 1.5004 26.9257 1.59694C26.9836 1.69348 26.9965 1.80289 26.9579 1.91873L26.6427 2.81332C26.6105 2.90342 26.5848 2.9549 26.5655 2.98065C26.5526 2.99354 26.5333 3.01282 26.5076 3.03214Z" fill="white"/>
<path d="M28.6568 2.72953C28.6954 2.74884 28.7276 2.78102 28.7533 2.8132C28.779 2.85182 28.7983 2.88399 28.8112 2.92904C28.824 2.96765 28.824 3.01271 28.8176 3.05777C28.8112 3.1028 28.7983 3.14144 28.779 3.18647C28.7597 3.2251 28.7276 3.26371 28.6954 3.28945C28.6632 3.3152 28.6246 3.33451 28.5796 3.34737C28.541 3.36026 28.496 3.36026 28.4509 3.36026C28.4059 3.3538 28.3673 3.34094 28.3287 3.32163C28.2901 3.30234 28.2515 3.27014 28.2258 3.23796C28.2 3.20579 28.1808 3.16718 28.1679 3.12212C28.155 3.08352 28.155 3.03846 28.1614 2.99339C28.1679 2.94836 28.1808 2.90973 28.2 2.86469C28.2193 2.82607 28.2515 2.78746 28.2837 2.76171C28.3159 2.73597 28.3544 2.71666 28.3995 2.70379C28.4381 2.69092 28.4831 2.69092 28.5281 2.69092C28.5796 2.69092 28.6182 2.70379 28.6568 2.72953Z" fill="white"/>
<path d="M28.4952 3.39254C28.4823 3.39254 28.4695 3.39254 28.4566 3.39254C28.4115 3.38611 28.3601 3.37325 28.3151 3.34751C28.27 3.32176 28.2314 3.28959 28.2057 3.25095C28.1735 3.21235 28.1542 3.16729 28.1414 3.12226C28.1285 3.07719 28.1221 3.0257 28.1285 2.98067C28.1349 2.93561 28.1478 2.88412 28.1735 2.83907C28.1993 2.79402 28.2314 2.7554 28.27 2.72966C28.3086 2.69748 28.3536 2.67817 28.3987 2.6653C28.4437 2.65243 28.4887 2.64599 28.5402 2.65243C28.5917 2.65886 28.6367 2.67174 28.6817 2.69748C28.7268 2.72322 28.7654 2.7554 28.7911 2.79402C28.8168 2.83263 28.8426 2.87768 28.8554 2.92272C28.8683 2.96778 28.8747 3.01927 28.8683 3.06433C28.8619 3.1158 28.849 3.16086 28.8233 3.20592C28.7975 3.25095 28.7654 3.28959 28.7268 3.31533C28.6882 3.34751 28.6431 3.36682 28.5981 3.37968C28.5595 3.39254 28.5274 3.39254 28.4952 3.39254ZM28.4952 2.72322C28.463 2.72322 28.4373 2.72966 28.4115 2.73609C28.373 2.74897 28.3408 2.76184 28.3086 2.78758C28.2765 2.81332 28.2507 2.8455 28.2314 2.87768C28.2121 2.91629 28.1993 2.95492 28.1928 2.99353C28.1864 3.03213 28.1928 3.07076 28.1993 3.10937C28.2121 3.148 28.225 3.18018 28.2507 3.21235C28.2765 3.24452 28.3086 3.27027 28.3408 3.28959C28.3794 3.30887 28.4115 3.32176 28.4502 3.32819C28.4887 3.33462 28.5274 3.32819 28.5659 3.32176C28.6045 3.30887 28.6367 3.29601 28.6689 3.27027C28.701 3.24452 28.7268 3.21235 28.7461 3.18017C28.7654 3.14154 28.7782 3.10294 28.7847 3.06433C28.7911 3.0257 28.7847 2.9871 28.7782 2.94847C28.7654 2.90986 28.7525 2.87768 28.7268 2.8455C28.701 2.81332 28.6753 2.78758 28.6367 2.76827C28.5981 2.74897 28.5659 2.73609 28.5209 2.72966C28.5145 2.72322 28.5081 2.72322 28.4952 2.72322Z" fill="white"/>
<path d="M29.1709 4.55095C29.2224 4.53163 29.2674 4.49303 29.3125 4.42868L30.0973 3.29597C30.1296 3.24448 30.1552 3.20584 30.1616 3.1801C30.168 3.14792 30.168 3.12218 30.1616 3.08357L30.4704 3.25733L29.5504 4.58312C29.5056 4.6475 29.4797 4.71185 29.4861 4.76977L29.1709 4.55095ZM30.5411 2.87762C30.4963 2.84545 30.4704 2.80683 30.464 2.76178C30.4576 2.71029 30.464 2.66524 30.4963 2.62663C30.5219 2.58801 30.5605 2.56227 30.612 2.55583C30.6635 2.54939 30.7085 2.55583 30.7469 2.58801C30.7856 2.61376 30.8115 2.65237 30.8243 2.70386C30.8307 2.75534 30.8243 2.80039 30.7984 2.83901C30.7664 2.87762 30.7277 2.90337 30.6827 2.91624C30.6312 2.91624 30.5861 2.90337 30.5411 2.87762Z" fill="white"/>
<path d="M29.5311 4.84706L29.0938 4.54457L29.158 4.51883C29.2031 4.50597 29.2418 4.46734 29.2801 4.40942L30.065 3.27671C30.1036 3.21879 30.1164 3.18661 30.1228 3.17372C30.1295 3.14801 30.1295 3.12226 30.1228 3.09652L30.11 3.01928L30.5218 3.25096L29.5826 4.60892C29.5439 4.66687 29.5247 4.72479 29.5247 4.76983L29.5311 4.84706ZM29.2351 4.55746L29.454 4.71191C29.4604 4.66687 29.486 4.62181 29.5183 4.57032L30.4124 3.27671L30.1938 3.15444C30.1938 3.16729 30.1938 3.18018 30.1874 3.19304C30.181 3.22521 30.1551 3.27028 30.1164 3.32177L29.3316 4.45448C29.306 4.49308 29.2737 4.53172 29.2351 4.55746ZM30.6439 2.94847C30.5991 2.94847 30.5604 2.93561 30.5218 2.90987C30.4703 2.87769 30.438 2.8262 30.4316 2.76828C30.4188 2.71035 30.4316 2.65243 30.4703 2.60738C30.5026 2.56233 30.5477 2.53015 30.6119 2.51728C30.6698 2.50441 30.7276 2.51728 30.7727 2.55589C30.8178 2.58807 30.8498 2.63312 30.8629 2.69105C30.8757 2.74897 30.8629 2.80689 30.8306 2.85194C30.7983 2.90343 30.7468 2.93561 30.689 2.94204C30.6698 2.94204 30.657 2.94847 30.6439 2.94847ZM30.5668 2.84551C30.5991 2.86482 30.6311 2.87769 30.6762 2.87125C30.7148 2.86482 30.7468 2.84551 30.7727 2.81333C30.7919 2.78115 30.8047 2.74897 30.7919 2.71035C30.7855 2.67174 30.7663 2.63956 30.734 2.62025C30.7021 2.59451 30.6634 2.58807 30.6247 2.59451C30.586 2.60094 30.554 2.62025 30.5346 2.65243C30.509 2.68461 30.5026 2.72322 30.509 2.76184C30.509 2.79402 30.5282 2.8262 30.5668 2.84551Z" fill="white"/>
<path d="M30.7669 5.70297C30.6447 5.67722 30.5031 5.59356 30.3359 5.4584C30.1042 5.27175 29.9756 5.05939 29.9498 4.81482C29.9242 4.57025 29.9884 4.345 30.1556 4.13904C30.31 3.94596 30.5095 3.83655 30.7541 3.81081C30.9983 3.77863 31.2365 3.85587 31.4615 4.04252C31.5903 4.1455 31.6933 4.26134 31.7767 4.39649L31.6287 4.58311C31.5903 4.4351 31.4938 4.30637 31.3522 4.1841C31.1978 4.0618 31.0306 4.01034 30.8503 4.03609C30.6703 4.0618 30.5095 4.16479 30.3743 4.33857C30.2394 4.50591 30.1815 4.67967 30.2007 4.85985C30.2199 5.04007 30.3164 5.19455 30.4772 5.32967C30.6252 5.44554 30.7924 5.50989 30.9791 5.52275L30.7669 5.70297Z" fill="white"/>
<path d="M30.7726 5.74815L30.7534 5.74169C30.631 5.70951 30.4766 5.62585 30.3094 5.49069C30.0715 5.29762 29.9363 5.07879 29.9104 4.8278C29.8784 4.5768 29.9555 4.33869 30.123 4.1263C30.2838 3.92679 30.4897 3.81093 30.7467 3.78518C31.004 3.75301 31.2486 3.83667 31.4803 4.02332C31.6089 4.1263 31.7182 4.24857 31.8019 4.38372L31.8147 4.40304L31.6025 4.6669L31.5833 4.59612C31.5446 4.45453 31.4545 4.33223 31.3192 4.21639C31.1715 4.10055 31.0171 4.04906 30.8432 4.08124C30.676 4.10698 30.5216 4.20354 30.3867 4.36441C30.2579 4.52531 30.2 4.68621 30.2259 4.85997C30.2451 5.0273 30.3352 5.17535 30.4897 5.30407C30.631 5.41346 30.7918 5.47783 30.9721 5.49069L31.0622 5.49715L30.7726 5.74815ZM30.8496 3.84313C30.8177 3.84313 30.7854 3.84313 30.7534 3.84956C30.5216 3.8753 30.3286 3.98471 30.1808 4.1649C30.02 4.36441 29.9555 4.5768 29.9814 4.80851C30.007 5.04019 30.1358 5.24613 30.3544 5.42634C30.5088 5.54861 30.6441 5.62585 30.7534 5.65802L30.8819 5.54218C30.7211 5.51644 30.5731 5.45209 30.4446 5.34911C30.2707 5.21395 30.1744 5.04662 30.155 4.85997C30.1294 4.67335 30.1936 4.48671 30.3352 4.31295C30.4766 4.13273 30.6505 4.02975 30.8368 3.99757C31.0235 3.97183 31.2035 4.02332 31.3643 4.15204C31.4931 4.255 31.5833 4.37087 31.6347 4.49956L31.7246 4.38372C31.6475 4.26146 31.551 4.15847 31.4353 4.06192C31.2486 3.92034 31.0491 3.84313 30.8496 3.84313Z" fill="white"/>
<path d="M31.7761 5.38122C31.7246 5.42628 31.686 5.46489 31.654 5.49706C31.5316 5.62579 31.4609 5.7738 31.4481 5.94113C31.435 6.11492 31.4996 6.27583 31.654 6.42384C31.8148 6.57831 31.982 6.66841 32.1687 6.68127L31.9692 6.83574C31.8148 6.79711 31.6604 6.70701 31.5124 6.559C31.3129 6.35949 31.21 6.14067 31.21 5.8961C31.21 5.65796 31.3065 5.43271 31.5124 5.22678C31.6924 5.04656 31.8918 4.95004 32.1172 4.93715C32.3423 4.92429 32.5286 4.99507 32.6894 5.15597L32.7025 5.16883C32.8505 5.3233 32.9212 5.49706 32.9148 5.6966C32.902 5.8961 32.8183 6.07629 32.6639 6.24362L31.7761 5.38122ZM32.5868 5.91542C32.7409 5.69014 32.7281 5.49063 32.5545 5.31687L32.5481 5.31044C32.4708 5.23321 32.3742 5.18815 32.2649 5.18172C32.1556 5.17529 32.0462 5.20103 31.9433 5.27824L32.5868 5.91542Z" fill="white"/>
<path d="M31.9693 6.87431L31.9499 6.86788C31.7891 6.82928 31.6283 6.73273 31.4802 6.57828C31.2744 6.37232 31.165 6.14064 31.165 5.88964C31.165 5.63865 31.268 5.40694 31.4738 5.201C31.6605 5.01435 31.8728 4.91137 32.1043 4.90494C32.336 4.89209 32.5419 4.96929 32.7027 5.13019L32.7155 5.14308C32.8699 5.30398 32.9472 5.4906 32.9341 5.69657C32.9214 5.9025 32.8376 6.09558 32.6704 6.26937L32.6448 6.29508L31.7763 5.43268C31.7376 5.46486 31.7056 5.49706 31.6797 5.52278C31.564 5.63865 31.4933 5.78666 31.4802 5.94756C31.4675 6.10846 31.5317 6.26291 31.6733 6.39806C31.8213 6.54611 31.9885 6.62977 32.1688 6.64263L32.2651 6.64906L31.9693 6.87431ZM32.1557 4.97575C32.1429 4.97575 32.1301 4.97575 32.1107 4.97575C31.8984 4.98861 31.6992 5.0787 31.5317 5.25249C31.3389 5.44557 31.2424 5.66439 31.2424 5.89607C31.2424 6.12775 31.3389 6.34014 31.5317 6.53322C31.6669 6.66838 31.8085 6.75847 31.9565 6.7971L32.0723 6.70698C31.9115 6.67481 31.7571 6.59114 31.6219 6.44955C31.4675 6.29508 31.3904 6.12132 31.4096 5.94113C31.4224 5.76091 31.4997 5.60644 31.6283 5.47131C31.6605 5.43911 31.7056 5.39408 31.7571 5.35545L31.7827 5.33616L31.8085 5.3619L32.6512 6.19856C32.7861 6.04409 32.8571 5.87675 32.8699 5.69657C32.8763 5.50992 32.812 5.34259 32.6704 5.19457L32.6576 5.18169C32.516 5.04653 32.3488 4.97575 32.1557 4.97575ZM32.5933 5.97331L31.8856 5.27178L31.9243 5.24603C32.04 5.16883 32.1557 5.13662 32.2717 5.14308C32.3875 5.15594 32.4904 5.201 32.5739 5.28467L32.5803 5.2911C32.7669 5.47774 32.7797 5.69657 32.6125 5.93467L32.5933 5.97331ZM32.0013 5.28467L32.5803 5.8639C32.6963 5.67082 32.6832 5.49706 32.5288 5.34902L32.5224 5.34259C32.4517 5.27178 32.368 5.23318 32.2651 5.22675C32.1752 5.20743 32.0915 5.23318 32.0013 5.28467Z" fill="white"/>
<path d="M33.4173 8.70866C33.308 8.65074 33.1855 8.53488 33.057 8.36112C32.8831 8.12298 32.8061 7.88487 32.8447 7.6403C32.8767 7.39573 32.9991 7.19623 33.2114 7.04176C33.4042 6.89374 33.6296 6.84225 33.8738 6.87442C34.1184 6.9066 34.3306 7.04176 34.5045 7.27346C34.6008 7.40862 34.6717 7.54375 34.7168 7.69179L34.5237 7.83338C34.5237 7.6789 34.4658 7.53089 34.3565 7.38288C34.2405 7.22197 34.0861 7.13188 33.9061 7.11899C33.7261 7.09968 33.5458 7.1576 33.3658 7.28632C33.1919 7.41505 33.0954 7.56949 33.0698 7.74971C33.0442 7.9299 33.0954 8.10369 33.2242 8.27102C33.3335 8.41904 33.4816 8.52202 33.6615 8.58637L33.4173 8.70866Z" fill="white"/>
<path d="M33.4173 8.74719L33.3978 8.74073C33.2821 8.68281 33.1599 8.56054 33.0311 8.38679C32.8511 8.14222 32.7738 7.89122 32.8125 7.64023C32.8447 7.3892 32.9733 7.17684 33.1919 7.01593C33.3914 6.86792 33.6296 6.80354 33.8802 6.84217C34.1312 6.87435 34.3565 7.01593 34.5301 7.25407C34.633 7.3892 34.7037 7.53724 34.7488 7.68526L34.7552 7.711L34.485 7.91051V7.83973C34.485 7.69815 34.4272 7.5501 34.3242 7.40852C34.2149 7.2605 34.0669 7.17038 33.8997 7.15752C33.7258 7.14466 33.5586 7.19612 33.385 7.31842C33.2178 7.44069 33.1277 7.58873 33.1021 7.75607C33.0826 7.9234 33.1277 8.09073 33.2498 8.25163C33.3591 8.39321 33.4943 8.4962 33.6679 8.55412L33.7517 8.57986L33.4173 8.74719ZM33.7389 6.90009C33.5522 6.90009 33.385 6.95801 33.2306 7.07385C33.0311 7.22187 32.909 7.4214 32.8767 7.65308C32.8447 7.88476 32.9154 8.11647 33.0826 8.34815C33.1983 8.50905 33.3144 8.61847 33.4106 8.67639L33.565 8.59915C33.4173 8.5348 33.2885 8.43825 33.1855 8.30312C33.057 8.12933 32.9991 7.94268 33.0247 7.75607C33.0506 7.56942 33.1536 7.40209 33.3335 7.26693C33.5202 7.13177 33.7066 7.06743 33.8933 7.08671C34.0861 7.10603 34.2405 7.20258 34.3693 7.36991C34.4658 7.50507 34.5237 7.64023 34.5429 7.77535L34.6586 7.68526C34.6138 7.5501 34.5493 7.4214 34.4594 7.29911C34.292 7.07385 34.0861 6.94513 33.8546 6.91295C33.8223 6.90009 33.784 6.90009 33.7389 6.90009Z" fill="white"/>
<path d="M34.826 8.23873C34.903 8.1937 34.9545 8.12289 34.9932 8.02637L35.2246 8.31597L35.0318 8.43827C35.1089 8.43827 35.1926 8.46401 35.2761 8.49619C35.3598 8.52836 35.4305 8.6056 35.495 8.70212C35.5593 8.8051 35.5849 8.92094 35.5849 9.04967L35.3276 9.06899C35.3406 8.95312 35.3212 8.85659 35.2633 8.76004C35.2246 8.70212 35.1796 8.65709 35.1281 8.62488C34.9868 8.54768 34.8196 8.56696 34.6329 8.68283L33.9702 9.08827C33.8673 9.15265 33.7902 9.22986 33.7387 9.33284L33.5137 8.95957C33.5715 8.95957 33.6166 8.95312 33.6422 8.94669C33.6678 8.94026 33.7129 8.91451 33.7774 8.87591L34.826 8.23873Z" fill="white"/>
<path d="M33.7447 9.41009L33.4551 8.93385H33.5129C33.5839 8.92742 33.6159 8.92742 33.629 8.92099C33.6418 8.91453 33.6804 8.90167 33.7575 8.85018L34.806 8.21303C34.8703 8.17443 34.9218 8.11005 34.954 8.01996L34.9732 7.96204L35.2693 8.3353L35.1276 8.42543C35.1791 8.43828 35.2306 8.45117 35.2757 8.47692C35.3658 8.51552 35.4429 8.59276 35.5074 8.70217C35.5717 8.80512 35.6039 8.93385 35.6039 9.069V9.10118L35.2693 9.12692L35.2757 9.08186C35.2884 8.97891 35.2693 8.88236 35.2178 8.79869C35.1858 8.7472 35.1471 8.70217 35.1021 8.67642C34.9668 8.60561 34.8188 8.62493 34.6452 8.72791L33.9826 9.13335C33.8863 9.19127 33.8154 9.26851 33.7639 9.36506L33.7447 9.41009ZM33.5775 8.9982L33.7447 9.26851C33.7962 9.18484 33.8668 9.12049 33.957 9.06257L34.6197 8.65711C34.8124 8.53484 34.9927 8.51552 35.1471 8.59919C35.205 8.63136 35.2501 8.67642 35.2951 8.7472C35.3466 8.83087 35.3722 8.92742 35.3658 9.0304L35.5458 9.01751C35.5394 8.9081 35.5138 8.80512 35.4559 8.72145C35.3981 8.62493 35.3271 8.56058 35.2565 8.52838C35.1791 8.48977 35.1021 8.47046 35.0314 8.47046L34.9154 8.46403L35.1791 8.30313L35.0119 8.09076C34.9732 8.16797 34.9218 8.22589 34.8575 8.26452L33.809 8.90167C33.7124 8.95959 33.6804 8.97245 33.661 8.97891C33.6354 8.99177 33.6095 8.99177 33.5775 8.9982Z" fill="white"/>
<path d="M35.1538 9.82192C35.0959 9.84766 35.0381 9.86698 34.9994 9.89272C34.8386 9.96993 34.7293 10.0858 34.6583 10.2467C34.5877 10.4076 34.6004 10.5814 34.6906 10.768C34.7871 10.9675 34.922 11.1026 35.0959 11.1799L34.8578 11.2571C34.7226 11.167 34.6132 11.0319 34.517 10.8452C34.3946 10.5878 34.369 10.3497 34.446 10.1244C34.5234 9.89915 34.6906 9.71893 34.9479 9.59667C35.173 9.48725 35.3981 9.46151 35.6106 9.52586C35.8229 9.59024 35.9837 9.71893 36.0802 9.91847L36.0866 9.93776C36.1765 10.1308 36.1829 10.3175 36.1122 10.5041C36.0352 10.6908 35.8999 10.8324 35.6941 10.9418L35.1538 9.82192ZM35.7455 10.5942C35.9642 10.4333 36.0221 10.2402 35.9127 10.0214L35.9063 10.0086C35.8613 9.91201 35.7842 9.84123 35.6813 9.79617C35.5783 9.75111 35.469 9.74468 35.3402 9.77685L35.7455 10.5942Z" fill="white"/>
<path d="M34.8452 11.2958L34.8324 11.2894C34.6908 11.1993 34.575 11.0577 34.4785 10.8646C34.3497 10.6007 34.3241 10.3497 34.4078 10.1116C34.4913 9.87349 34.6649 9.68685 34.9289 9.55812C35.1668 9.44228 35.3985 9.41653 35.6172 9.48088C35.8422 9.54526 36.0094 9.68685 36.106 9.89278L36.1124 9.90567C36.2089 10.1052 36.2153 10.3047 36.1383 10.5042C36.0609 10.6973 35.9129 10.8517 35.7006 10.9611L35.6687 10.9805L35.1281 9.87349C35.0833 9.89278 35.0382 9.9121 35.006 9.93141C34.858 10.0022 34.7486 10.1181 34.678 10.2661C34.607 10.4141 34.6265 10.575 34.71 10.7552C34.8065 10.9483 34.9353 11.077 35.0961 11.1478L35.186 11.1864L34.8452 11.2958ZM35.379 9.51951C35.2441 9.51951 35.1025 9.55169 34.9609 9.6225C34.7164 9.74477 34.5492 9.9121 34.4785 10.1309C34.4011 10.3497 34.427 10.5814 34.5428 10.826C34.6265 10.9997 34.7358 11.1285 34.858 11.2121L34.9996 11.1671C34.858 11.0834 34.7422 10.9547 34.6585 10.7745C34.5622 10.575 34.5492 10.3883 34.6265 10.221C34.6972 10.0537 34.8193 9.93141 34.9868 9.84775C35.0318 9.82843 35.0833 9.80269 35.1476 9.77694L35.1796 9.76408L35.7201 10.8646C35.9001 10.7681 36.0225 10.6329 36.0868 10.4656C36.1575 10.2854 36.1511 10.1116 36.0609 9.93141L36.0545 9.91852C35.9644 9.73191 35.81 9.60318 35.6108 9.54526C35.527 9.52594 35.4564 9.51951 35.379 9.51951ZM35.7329 10.6458L35.2956 9.75119L35.3404 9.73834C35.4756 9.6997 35.5977 9.70616 35.7006 9.75762C35.81 9.80911 35.8873 9.88635 35.9388 9.98933L35.9452 10.0022C36.0609 10.2403 36.0031 10.4463 35.7652 10.6201L35.7329 10.6458ZM35.3985 9.80269L35.7585 10.5364C35.9324 10.3883 35.9775 10.2274 35.8809 10.0344L35.8745 10.0215C35.8295 9.93141 35.7585 9.86703 35.6687 9.822C35.5913 9.78983 35.4948 9.78337 35.3985 9.80269Z" fill="white"/>
<path d="M35.5789 12.6859C35.4887 12.7181 35.4117 12.7696 35.3602 12.8339L35.2445 12.5186L35.4053 12.4607C35.2381 12.4156 35.1157 12.2934 35.045 12.0938C34.974 11.9072 34.9677 11.7399 35.0191 11.5983C35.0706 11.4567 35.1671 11.3601 35.3151 11.3087C35.4695 11.2507 35.6048 11.2572 35.7205 11.3215C35.8362 11.3859 35.9328 11.4889 36.0034 11.6305L36.1642 11.9201C36.2416 12.0616 36.3381 12.1067 36.4474 12.0681C36.5309 12.0359 36.5824 11.978 36.6146 11.8879C36.6402 11.7978 36.6338 11.6819 36.5824 11.5403C36.5245 11.3795 36.4152 11.2379 36.2607 11.1349L36.5053 11.0448C36.621 11.1606 36.7112 11.3087 36.7754 11.476C36.872 11.7334 36.8848 11.9265 36.8269 12.0616C36.769 12.1904 36.6469 12.2934 36.473 12.3577L35.5789 12.6859ZM36.1706 12.1904C36.1063 12.1646 36.0162 12.0424 35.8877 11.8106C35.7525 11.5725 35.5917 11.4889 35.4053 11.5597C35.3151 11.5918 35.2509 11.6497 35.2122 11.7399C35.1735 11.8235 35.1799 11.9265 35.2186 12.0488C35.2637 12.1646 35.3407 12.2547 35.4567 12.3062C35.5725 12.3641 35.6882 12.3641 35.8234 12.3191L36.1706 12.1904Z" fill="white"/>
<path d="M35.3474 12.9048L35.1994 12.4994L35.3087 12.4608C35.1799 12.3964 35.0836 12.2741 35.0191 12.1068C34.9484 11.9137 34.9356 11.7399 34.9935 11.5919C35.045 11.4439 35.1543 11.3345 35.3087 11.283C35.4759 11.2251 35.6239 11.2251 35.746 11.3023C35.8685 11.3731 35.9647 11.4825 36.0485 11.6241L36.2093 11.9137C36.2994 12.0746 36.3895 12.0682 36.4474 12.0424C36.5181 12.0167 36.5631 11.9652 36.5887 11.888C36.6146 11.8043 36.6018 11.6949 36.5567 11.5662C36.4989 11.4117 36.3959 11.2766 36.2479 11.1736L36.1901 11.135L36.5181 11.0127L36.5373 11.032C36.6597 11.1543 36.7495 11.3023 36.8141 11.4761C36.9106 11.7464 36.9298 11.9459 36.8655 12.0875C36.801 12.2291 36.6725 12.332 36.4925 12.4028L35.6047 12.7311C35.521 12.7632 35.4503 12.8083 35.3989 12.8727L35.3474 12.9048ZM35.2959 12.5444L35.3794 12.7697C35.4308 12.7182 35.4951 12.6796 35.5724 12.6538L36.4602 12.3256C36.6274 12.2612 36.7367 12.1712 36.7946 12.0489C36.8525 11.9266 36.8333 11.7399 36.7431 11.4954C36.6853 11.3409 36.6018 11.1993 36.4989 11.0899L36.3445 11.1478C36.4794 11.2508 36.5695 11.3795 36.6274 11.534C36.6789 11.682 36.6917 11.8043 36.6597 11.9073C36.6274 12.0103 36.5631 12.0746 36.473 12.1132C36.3829 12.1454 36.2543 12.1454 36.145 11.9523L35.9842 11.6627C35.9132 11.534 35.817 11.431 35.7141 11.3666C35.6111 11.3023 35.4823 11.3023 35.3407 11.3538C35.2058 11.4053 35.1156 11.4889 35.0706 11.6241C35.0255 11.7528 35.0322 11.9137 35.0964 12.0939C35.1671 12.2805 35.2764 12.3964 35.4308 12.4414L35.5402 12.4736L35.2959 12.5444ZM35.6495 12.3835C35.5788 12.3835 35.5082 12.3707 35.4436 12.3385C35.3215 12.2806 35.238 12.184 35.1866 12.0617C35.1415 11.933 35.1351 11.8236 35.1799 11.7271C35.2186 11.6305 35.2892 11.5662 35.3922 11.5275C35.598 11.4503 35.7783 11.5404 35.9199 11.7979C36.0743 12.081 36.1514 12.1454 36.1837 12.1583L36.2671 12.1904L35.8362 12.3513C35.7719 12.3771 35.7141 12.3835 35.6495 12.3835ZM35.5274 11.5726C35.4887 11.5726 35.4567 11.579 35.418 11.5919C35.3343 11.6241 35.2828 11.6756 35.2444 11.7528C35.2122 11.83 35.2122 11.9201 35.2572 12.0295C35.3023 12.1389 35.373 12.2162 35.4759 12.2677C35.5788 12.3192 35.6882 12.3192 35.8103 12.2806L36.0871 12.1776C36.0357 12.1325 35.9647 12.036 35.849 11.83C35.7588 11.6627 35.6495 11.5726 35.5274 11.5726Z" fill="white"/>
<path d="M36.2277 15.3246C36.1184 15.3503 36.0413 15.3889 35.9771 15.4404L35.8869 15.035C35.9384 15.0543 35.9835 15.0672 36.0155 15.0736C36.0477 15.0736 36.1056 15.0672 36.1894 15.0478L37.1155 14.8483C37.2251 14.8226 37.3022 14.7647 37.3472 14.6681C37.3923 14.5716 37.4051 14.475 37.3859 14.3785V14.3656C37.3664 14.2691 37.315 14.1919 37.2315 14.1275C37.1478 14.0631 37.0576 14.0439 36.9547 14.0631L36.0027 14.2691C35.9384 14.282 35.8869 14.2949 35.8547 14.3141C35.8227 14.327 35.7904 14.3528 35.7517 14.3914L35.6619 13.9924C35.7261 14.0117 35.7712 14.0181 35.7968 14.0181C35.8291 14.0181 35.8741 14.0052 35.9384 13.9924L36.884 13.7864C36.987 13.7607 37.064 13.7092 37.1222 13.6191C37.18 13.529 37.1928 13.4389 37.1736 13.3423V13.3359C37.1478 13.2265 37.0899 13.1493 36.987 13.0913C36.884 13.0334 36.7683 13.0206 36.6459 13.0463L35.7325 13.2458C35.6747 13.2587 35.6296 13.2716 35.5973 13.2908L35.5203 13.3488L35.4365 12.9562C35.488 12.9755 35.5459 12.9819 35.6037 12.9691L36.9678 12.673C37.0192 12.6601 37.0771 12.6215 37.1478 12.5636L37.2507 12.9047L37.0963 12.9369C37.2507 13.0206 37.3536 13.1621 37.3987 13.3552V13.3616C37.4438 13.5612 37.4051 13.7414 37.283 13.9023L37.3214 13.9344C37.4438 14.0181 37.5336 14.1533 37.5851 14.327L37.5982 14.3721C37.6366 14.5587 37.6174 14.7196 37.5403 14.8548C37.463 14.9899 37.328 15.08 37.1542 15.1187L36.2277 15.3246Z" fill="white"/>
<path d="M35.9578 15.5047L35.842 14.977L35.9063 15.0027C35.9578 15.0221 35.9964 15.0349 36.022 15.0349C36.0415 15.0349 36.0866 15.0349 36.1831 15.0092L37.1092 14.8097C37.2058 14.7904 37.27 14.7389 37.3151 14.6488C37.3602 14.5587 37.373 14.475 37.3538 14.3849V14.372C37.3346 14.2819 37.2895 14.2111 37.2122 14.1532C37.1415 14.0953 37.0578 14.076 36.9612 14.0953L36.0092 14.3013C35.945 14.3141 35.8999 14.327 35.8743 14.3399C35.8484 14.3527 35.8164 14.3785 35.7778 14.4106L35.7327 14.4557L35.617 13.928L35.6748 13.9473C35.7455 13.9666 35.7778 13.973 35.797 13.9666C35.8164 13.9666 35.8548 13.9601 35.9386 13.9408L36.8906 13.7349C36.9871 13.7156 37.0578 13.6641 37.1028 13.5869C37.1543 13.5032 37.1671 13.4195 37.1543 13.3294C37.1351 13.2265 37.0773 13.1557 36.9807 13.1042C36.8842 13.0527 36.7812 13.0398 36.6655 13.0656L35.7519 13.2651C35.7004 13.2779 35.6553 13.2908 35.6298 13.3101L35.5076 13.4002L35.3916 12.8853L35.4562 12.9111C35.5009 12.9304 35.546 12.9304 35.6039 12.924L36.9679 12.6279C37.0127 12.615 37.0709 12.5829 37.1287 12.5249L37.1738 12.4863L37.3023 12.9175L37.1994 12.9433C37.3215 13.0334 37.4053 13.1685 37.4439 13.3423C37.489 13.5482 37.4567 13.7285 37.341 13.8894L37.3538 13.9022C37.4823 13.9859 37.5789 14.1275 37.6303 14.3141L37.6434 14.3592C37.6882 14.5522 37.6626 14.726 37.5789 14.8676C37.4954 15.0156 37.3538 15.1057 37.1671 15.1508L36.2474 15.3503C36.1444 15.3696 36.0671 15.4082 36.0156 15.4533L35.9578 15.5047ZM35.9386 15.0864L36.0028 15.376C36.0607 15.3374 36.138 15.3117 36.2215 15.2923L37.1415 15.0928C37.3087 15.0542 37.4308 14.9706 37.5018 14.8483C37.5789 14.7196 37.5983 14.5651 37.5597 14.3913L37.5469 14.3463C37.4954 14.179 37.4116 14.0502 37.2959 13.973L37.2253 13.9151L37.2445 13.8894C37.3602 13.7413 37.3989 13.574 37.3538 13.3809C37.3087 13.1878 37.2186 13.0591 37.0709 12.9754L36.9871 12.9304L37.1994 12.8853L37.1223 12.6343C37.0642 12.6794 37.0127 12.7051 36.9679 12.718L35.6039 13.0141C35.5591 13.0269 35.5204 13.0269 35.4753 13.0205L35.5396 13.3037L35.5783 13.2779C35.617 13.2522 35.6684 13.2393 35.7263 13.2265L36.6396 13.0269C36.7684 13.0012 36.8906 13.0141 37.0063 13.072C37.1156 13.1299 37.1866 13.22 37.2122 13.3423C37.2317 13.4581 37.2122 13.5611 37.1543 13.6576C37.0964 13.7542 37.0127 13.8185 36.897 13.8443L35.945 14.0502C35.8807 14.0631 35.8292 14.076 35.797 14.076C35.7778 14.076 35.7455 14.076 35.7068 14.0695L35.7714 14.3527C35.7969 14.3334 35.8164 14.3205 35.8356 14.3077C35.8676 14.2948 35.9191 14.2755 35.99 14.2626L36.942 14.0567C37.0578 14.0309 37.1607 14.0567 37.2508 14.1275C37.341 14.1983 37.3925 14.2819 37.4181 14.3849V14.3978C37.4439 14.5072 37.4244 14.6102 37.3794 14.7131C37.3279 14.8161 37.2381 14.8805 37.1223 14.9062L36.1959 15.1057C36.1058 15.125 36.0479 15.1315 36.0092 15.1315C35.99 15.0993 35.9705 15.0993 35.9386 15.0864Z" fill="white"/>
<path d="M37.3351 16.747C37.3351 16.7921 37.3284 16.8371 37.3156 16.8757C37.3028 16.9143 37.2769 16.9529 37.2514 16.9851C37.2191 17.0173 37.1871 17.0431 37.1484 17.0624C37.1097 17.0817 37.0647 17.0945 37.0199 17.0945C36.9748 17.0945 36.9298 17.0881 36.8847 17.0752C36.8396 17.0624 36.8073 17.0366 36.7753 17.0109C36.7431 16.9787 36.7175 16.9465 36.698 16.9079C36.6788 16.8693 36.666 16.8243 36.666 16.7792C36.666 16.7341 36.6724 16.6891 36.6852 16.6505C36.698 16.6054 36.7239 16.5733 36.7495 16.5411C36.7753 16.5089 36.814 16.4831 36.8524 16.4638C36.8911 16.4445 36.9362 16.4316 36.9812 16.4316C37.0263 16.4316 37.0714 16.4381 37.1097 16.451C37.1484 16.4638 37.1871 16.4896 37.2191 16.5153C37.2514 16.5411 37.2769 16.5797 37.2964 16.6183C37.322 16.6569 37.3351 16.702 37.3351 16.747Z" fill="white"/>
<path d="M36.9936 17.1331C36.9486 17.1331 36.9099 17.1267 36.8651 17.1138C36.82 17.0945 36.775 17.0752 36.7427 17.043C36.7107 17.0108 36.6784 16.9722 36.6592 16.9272C36.6397 16.8821 36.627 16.8371 36.627 16.7856C36.627 16.7341 36.6334 16.6826 36.6461 16.6376C36.6656 16.5925 36.6848 16.5475 36.7171 16.5153C36.7491 16.4831 36.7878 16.4509 36.8328 16.4316C36.8779 16.4123 36.923 16.3994 36.9744 16.3994C37.0259 16.3994 37.071 16.4059 37.1224 16.4187C37.1672 16.438 37.2123 16.4574 37.2446 16.4895C37.2768 16.5217 37.3088 16.5603 37.328 16.6054C37.3475 16.6504 37.3603 16.7019 37.3667 16.747C37.3667 16.7985 37.3603 16.8435 37.3411 16.895C37.3216 16.94 37.296 16.9786 37.2638 17.0173C37.2318 17.0494 37.1931 17.0816 37.148 17.1009C37.103 17.1203 37.0579 17.1331 37.0064 17.1331C37.0064 17.1331 37 17.1331 36.9936 17.1331ZM37 16.4638C36.9936 16.4638 36.9872 16.4638 36.9872 16.4638C36.9422 16.4638 36.9099 16.4767 36.8715 16.4895C36.8328 16.5088 36.8072 16.5281 36.7814 16.5539C36.7558 16.5796 36.7363 16.6118 36.7235 16.6504C36.7107 16.689 36.7043 16.7276 36.7043 16.7663C36.7043 16.8049 36.7171 16.8435 36.7299 16.8821C36.7491 16.9143 36.7686 16.9465 36.8005 16.9722C36.8264 16.998 36.8584 17.0173 36.8971 17.0301C36.9358 17.043 36.9744 17.0494 37.0128 17.0494C37.0515 17.0494 37.0902 17.0366 37.1288 17.0237C37.1672 17.0044 37.1931 16.9851 37.2187 16.9529C37.2446 16.9272 37.2638 16.895 37.2768 16.8564C37.2896 16.8178 37.296 16.7791 37.296 16.7405C37.296 16.7019 37.2832 16.6633 37.2638 16.6247C37.2446 16.5861 37.2254 16.5603 37.1931 16.5346C37.1672 16.5088 37.1352 16.4895 37.0966 16.4767C37.071 16.4702 37.0323 16.4638 37 16.4638Z" fill="white"/>
</g>
<defs>
<clipPath id="clip0_460_810">
<rect width="41" height="32" fill="white"/>
</clipPath>
</defs>
</svg>
