<svg width="80" height="80" viewBox="0 0 80 80" fill="none" xmlns="http://www.w3.org/2000/svg">
<rect width="80" height="80" rx="40" fill="#F8E1AD"/>
<path d="M45.2151 41.335L47.4876 54.124C47.5131 54.2746 47.4919 54.4293 47.4271 54.5676C47.3622 54.7058 47.2566 54.821 47.1245 54.8977C46.9924 54.9743 46.8401 55.0088 46.6878 54.9965C46.5356 54.9842 46.3907 54.9258 46.2726 54.829L40.9026 50.7985C40.6434 50.6048 40.3285 50.5001 40.0049 50.5001C39.6813 50.5001 39.3664 50.6048 39.1071 50.7985L33.7281 54.8275C33.6101 54.9241 33.4654 54.9825 33.3134 54.9948C33.1613 55.0071 33.0091 54.9727 32.8771 54.8963C32.7451 54.8198 32.6395 54.705 32.5745 54.567C32.5095 54.429 32.4881 54.2744 32.5131 54.124L34.7841 41.335" stroke="#552914" stroke-width="2" stroke-linecap="round" stroke-linejoin="round"/>
<path d="M40 43C44.9706 43 49 38.9706 49 34C49 29.0294 44.9706 25 40 25C35.0294 25 31 29.0294 31 34C31 38.9706 35.0294 43 40 43Z" stroke="#552914" stroke-width="2" stroke-linecap="round" stroke-linejoin="round"/>
</svg>
