<svg width="48" height="48" viewBox="0 0 48 48" fill="none" xmlns="http://www.w3.org/2000/svg">
<path d="M43.2204 34.5857C43.5989 34.6687 32.2268 26.4753 32.1114 26.3459C33.806 23.384 34.4807 19.9474 34.0316 16.5646C33.5826 13.1819 32.0347 10.0403 29.6261 7.62305C14.4386 -6.36163 -6.36402 14.4225 7.62611 29.6229C10.0404 32.0365 13.1823 33.5877 16.5664 34.0369C19.9506 34.4861 23.3884 33.8083 26.3487 32.1081L33.9737 42.5012C34.4932 43.211 35.1602 43.7998 35.9288 44.2273C36.6975 44.6547 37.5497 44.9106 38.4267 44.9774C43.996 45.446 47.2092 38.5189 43.2204 34.5857ZM8.68483 28.564C-0.163749 19.752 6.27726 4.4876 18.6263 4.57115C20.4724 4.56782 22.3009 4.92926 24.0069 5.63469C25.7129 6.34013 27.2627 7.37566 28.5673 8.68181C41.2081 22.4154 22.4154 41.2038 8.68483 28.564ZM42.1506 42.1477C41.679 42.6128 41.1131 42.9713 40.4911 43.1991C39.8692 43.4269 39.2056 43.5188 38.5451 43.4684C37.8847 43.418 37.2427 43.2266 36.6625 42.907C36.0823 42.5875 35.5773 42.1472 35.1817 41.616L27.6136 31.3003C29.0527 30.299 30.3021 29.0496 31.3035 27.6106L41.6103 35.1714C42.1444 35.5656 42.5874 36.0701 42.9092 36.6506C43.231 37.2312 43.4241 37.8742 43.4754 38.536C43.5266 39.1978 43.4349 39.8629 43.2063 40.4861C42.9777 41.1093 42.6177 41.676 42.1506 42.1477Z" fill="#4A2C21"/>
<path d="M28.6407 12.3158C28.5381 11.8713 28.5141 11.2706 27.9936 11.117L18.8552 8.17617C18.7058 8.12861 18.5454 8.12861 18.396 8.17617L9.25759 11.117C8.73839 11.2707 8.7123 11.873 8.61122 12.3161C7.2746 19.0007 9.87768 24.9851 15.2424 27.5622L18.3017 29.0312C18.4028 29.0798 18.5135 29.1051 18.6256 29.1051C18.7378 29.1051 18.8485 29.0798 18.9495 29.0312L22.0088 27.5622C27.3743 24.9851 29.9773 19.0007 28.6407 12.3158ZM21.361 26.2125L18.6256 27.5257L15.8902 26.2125C11.1032 23.9332 8.82949 18.4192 10.1204 12.4127L18.6256 9.67549L27.1316 12.4127C28.4233 18.4175 26.1485 23.9325 21.361 26.2125Z" fill="#4A2C21"/>
<path d="M21.9089 15.8216L17.4451 19.7985L15.4489 17.8023C15.3076 17.6665 15.1186 17.5914 14.9226 17.5934C14.7265 17.5953 14.5391 17.674 14.4005 17.8127C14.2618 17.9513 14.1831 18.1388 14.1812 18.3348C14.1793 18.5308 14.2543 18.7198 14.3902 18.8611L16.8857 21.357C17.0208 21.4922 17.2024 21.5706 17.3935 21.5761C17.5845 21.5816 17.7704 21.5138 17.913 21.3866L22.9048 16.9396C23.0484 16.8063 23.1341 16.622 23.1434 16.4263C23.1527 16.2306 23.0849 16.039 22.9546 15.8927C22.8243 15.7464 22.6418 15.657 22.4463 15.6437C22.2508 15.6304 22.0579 15.6943 21.9089 15.8216Z" fill="#4A2C21"/>
</svg>
