<svg width="48" height="48" viewBox="0 0 48 48" fill="none" xmlns="http://www.w3.org/2000/svg">
<g clip-path="url(#clip0_466_7385)">
<path d="M22.815 20.5575C22.335 20.5631 21.8602 20.4578 21.4275 20.25C20.9327 20.0126 20.514 19.6418 20.2185 19.1794C19.923 18.717 19.7625 18.1812 19.755 17.6325V17.52C19.755 16.1025 18.4575 15.5775 14.9625 15.5775C11.67 15.5775 11.67 11.4075 11.67 10.0425C11.67 10.0425 11.505 9.41996 9.51751 7.32746C9.4423 7.2482 9.38531 7.15347 9.35053 7.0499C9.31575 6.94632 9.30403 6.83639 9.31617 6.72781C9.32831 6.61922 9.36404 6.5146 9.42084 6.42127C9.47764 6.32793 9.55415 6.24813 9.64501 6.18746C12.616 4.22194 16.0635 3.09702 19.622 2.93197C23.1805 2.76692 26.7173 3.56789 29.8575 5.24996C30.0094 5.33235 30.1282 5.46468 30.1938 5.62457C30.2594 5.78447 30.2678 5.96211 30.2175 6.12746C29.6089 7.91277 29.404 9.81088 29.6175 11.685C30.2175 15.2925 26.745 18.435 24.6225 19.935C24.1017 20.3297 23.4684 20.5478 22.815 20.5575ZM11.25 6.96746C12.945 8.83496 13.1925 9.55496 13.1925 10.05C13.1925 12.84 13.7475 14.085 14.985 14.085C17.1825 14.085 21.2775 14.085 21.2775 17.5275V17.61C21.2879 17.8808 21.3715 18.1438 21.5194 18.3709C21.6673 18.5981 21.874 18.7809 22.1175 18.9C22.378 19.0328 22.6703 19.0906 22.9617 19.0667C23.2531 19.0429 23.5321 18.9384 23.7675 18.765C25.2675 17.6925 28.65 14.88 28.1625 11.97C27.9213 10.0777 28.0823 8.15575 28.635 6.32996C25.9132 4.98065 22.8975 4.33225 19.8617 4.44358C16.8258 4.5549 13.8657 5.42243 11.25 6.96746Z" fill="#4A2C21"/>
<path d="M6.78763 36.57H6.75013C6.65036 36.5686 6.55188 36.5473 6.46045 36.5074C6.36901 36.4675 6.28646 36.4097 6.21763 36.3375C2.69229 32.6637 0.731923 27.7641 0.750126 22.6725C0.749668 20.5552 1.08638 18.4513 1.74763 16.44C1.7825 16.3332 1.84091 16.2356 1.91854 16.1545C1.99618 16.0733 2.09105 16.0106 2.19616 15.971C2.30126 15.9314 2.41392 15.9159 2.52581 15.9257C2.63771 15.9355 2.74597 15.9703 2.84263 16.0275C6.20263 18.0225 8.77513 19.155 10.1026 19.215C11.1601 19.2675 11.8276 19.635 12.0901 20.31C12.4426 21.21 11.8276 22.2825 11.2576 23.025C12.7576 23.73 15.2776 24.615 16.7476 23.925C17.178 23.7131 17.6536 23.6092 18.1331 23.6223C18.6127 23.6353 19.0819 23.765 19.5001 24C19.9502 24.2489 20.3442 24.5878 20.6578 24.9955C20.9713 25.4032 21.1976 25.8711 21.3226 26.37C21.4638 26.9199 21.4913 27.4928 21.4037 28.0537C21.316 28.6147 21.1149 29.1519 20.8126 29.6325C18.8926 32.6775 16.1401 34.185 13.0651 33.87C11.0476 33.6525 9.11263 34.485 7.29013 36.3225C7.16088 36.4668 6.9808 36.5555 6.78763 36.57ZM2.90263 17.82C2.4699 19.4012 2.25046 21.0331 2.25013 22.6725C2.24198 27.1225 3.87029 31.4201 6.82513 34.7475C7.66551 33.9178 8.67423 33.2782 9.7831 32.8719C10.892 32.4656 12.0751 32.3021 13.2526 32.3925C16.4326 32.715 18.4426 30.6375 19.5751 28.845C19.7677 28.5376 19.8956 28.1941 19.951 27.8357C20.0065 27.4772 19.9883 27.1112 19.8976 26.76C19.8246 26.4592 19.6904 26.1768 19.5032 25.9303C19.3161 25.6839 19.0802 25.4786 18.8101 25.3275C18.5935 25.2066 18.3495 25.1432 18.1014 25.1432C17.8533 25.1432 17.6093 25.2066 17.3926 25.3275C14.5201 26.67 9.89263 24.0675 9.69763 23.955C9.59771 23.8982 9.51216 23.8193 9.44759 23.7243C9.38302 23.6292 9.34114 23.5206 9.3252 23.4068C9.30925 23.2931 9.31966 23.1771 9.35563 23.068C9.39159 22.9589 9.45215 22.8595 9.53263 22.7775C10.0994 22.2832 10.5044 21.6299 10.6951 20.9025C10.4886 20.7983 10.2587 20.7492 10.0276 20.76C8.54263 20.655 6.15013 19.6725 2.90263 17.805V17.82Z" fill="#4A2C21"/>
<path d="M43.1325 45.075H30.1275C29.5549 45.0744 28.9887 44.9543 28.4652 44.7225C27.9416 44.4907 27.4722 44.1523 27.0868 43.7288C26.7015 43.3053 26.4087 42.8061 26.2271 42.2631C26.0456 41.7201 25.9793 41.1451 26.0325 40.575C26.0325 40.3761 26.1115 40.1854 26.2521 40.0447C26.3928 39.904 26.5835 39.825 26.7825 39.825C26.9814 39.825 27.1721 39.904 27.3128 40.0447C27.4534 40.1854 27.5325 40.3761 27.5325 40.575C27.5325 40.575 27.5325 40.6575 27.5325 40.6875C27.4965 41.05 27.5367 41.4161 27.6503 41.7622C27.764 42.1083 27.9486 42.4269 28.1925 42.6975C28.4359 42.9697 28.7341 43.1872 29.0676 43.3359C29.4011 43.4845 29.7623 43.5609 30.1275 43.56H43.1325C43.5005 43.5609 43.8646 43.4844 44.2012 43.3355C44.5377 43.1866 44.8392 42.9685 45.086 42.6955C45.3328 42.4225 45.5195 42.1007 45.6339 41.7509C45.7483 41.4011 45.7878 41.0311 45.75 40.665L44.7675 35.37C44.7326 35.1711 44.8748 35.6471 44.8748 35.6471C44.8748 35.6471 45.4498 36.0236 45.6487 35.9888C45.8476 35.954 45.9753 35.5603 46.1406 35.6763C46.1406 35.6763 46.2326 34.9086 46.2675 35.1075L47.25 40.455C47.3215 41.0364 47.2681 41.6263 47.0934 42.1854C46.9188 42.7445 46.6268 43.2599 46.2371 43.6972C45.8474 44.1345 45.3689 44.4836 44.8335 44.7212C44.2981 44.9588 43.7182 45.0794 43.1325 45.075Z" fill="#4A2C21"/>
<path d="M26.7825 41.34H26.6475C26.5504 41.3228 26.4577 41.2867 26.3747 41.2336C26.2916 41.1806 26.2198 41.1117 26.1634 41.0309C26.107 40.9501 26.0671 40.859 26.0459 40.7628C26.0247 40.6665 26.0227 40.567 26.04 40.47L28.6275 26.1075C28.6594 25.9328 28.7523 25.7751 28.8897 25.6625C29.027 25.5499 29.1999 25.4896 29.3775 25.4925H43.8975C44.075 25.4896 44.2479 25.5499 44.3852 25.6625C44.5226 25.7751 44.6155 25.9328 44.6475 26.1075L46.2675 35.1075C46.2847 35.206 46.2824 35.3069 46.2606 35.4045C46.2388 35.5021 46.198 35.5945 46.1406 35.6763C46.0831 35.7581 46.0101 35.8278 45.9257 35.8815C45.8413 35.9351 45.7472 35.9715 45.6487 35.9888C45.5502 36.006 45.4493 36.0037 45.3517 35.9819C45.2541 35.9602 45.1618 35.9194 45.0799 35.8619C44.9981 35.8045 44.9284 35.7315 44.8748 35.6471C44.8212 35.5627 44.7847 35.4685 44.7675 35.37L43.2675 27H30L27.525 40.7475C27.4886 40.9168 27.3948 41.0683 27.2595 41.1763C27.1241 41.2843 26.9556 41.3422 26.7825 41.34Z" fill="#4A2C21"/>
<path d="M40.9798 31.0725C40.7809 31.0725 40.5901 30.9935 40.4495 30.8528C40.3088 30.7121 40.2298 30.5214 40.2298 30.3225V24C40.2298 21.6075 38.6548 19.6575 36.7123 19.6575C34.7698 19.6575 33.1948 21.6075 33.1948 24V30.3375C33.1948 30.5364 33.1158 30.7271 32.9752 30.8678C32.8345 31.0085 32.6437 31.0875 32.4448 31.0875C32.2459 31.0875 32.0551 31.0085 31.9145 30.8678C31.7738 30.7271 31.6948 30.5364 31.6948 30.3375V24C31.6948 20.775 33.9448 18.1575 36.7123 18.1575C39.4798 18.1575 41.7298 20.7825 41.7298 24V30.3375C41.7259 30.5338 41.6452 30.7207 41.5049 30.8581C41.3647 30.9956 41.1762 31.0725 40.9798 31.0725Z" fill="#4A2C21"/>
<path d="M20.5051 42.435C19.9051 42.435 19.3051 42.435 18.7276 42.3525C13.8164 41.9053 9.24957 39.6388 5.92349 35.9978C2.59741 32.3567 0.752235 27.604 0.750097 22.6725C0.739791 19.3979 1.54895 16.1727 3.10388 13.2908C4.6588 10.4089 6.91006 7.9618 9.6526 6.17247C12.429 4.34411 15.622 3.24624 18.9357 2.98062C22.2494 2.715 25.5766 3.29023 28.6087 4.65299C31.6409 6.01575 34.28 8.12194 36.2814 10.7763C38.2827 13.4307 39.5816 16.5474 40.0576 19.8375C40.0854 20.0364 40.0331 20.2382 39.9122 20.3986C39.7912 20.5589 39.6115 20.6646 39.4126 20.6925C39.3141 20.7063 39.2139 20.7005 39.1176 20.6756C39.0213 20.6506 38.9309 20.6069 38.8515 20.547C38.6912 20.4261 38.5854 20.2464 38.5576 20.0475C38.0234 16.4118 36.4032 13.0225 33.9093 10.3237C31.4153 7.62489 28.1641 5.74267 24.5819 4.92377C20.9996 4.10487 17.2535 4.38751 13.8347 5.73465C10.4159 7.08178 7.48389 9.43053 5.42314 12.473C3.36239 15.5154 2.26905 19.1095 2.28646 22.7841C2.30386 26.4588 3.43121 30.0424 5.5207 33.0651C7.61018 36.0879 10.5643 38.4088 13.9957 39.7235C17.4272 41.0381 22.0383 41.1888 25.6126 40.336C25.6126 40.336 25.2338 40.4728 25.3177 40.5247C25.4016 40.5766 25.4745 40.6445 25.5322 40.7245C25.5898 40.8046 25.6312 40.8952 25.6538 40.9912C25.6765 41.0872 25.68 41.1868 25.6642 41.2842C25.6484 41.3816 25.6135 41.4749 25.5616 41.5588C25.5098 41.6427 25.4419 41.7156 25.3618 41.7733C25.2818 41.831 25.1911 41.8723 25.0951 41.895C23.5913 42.2529 22.0509 42.4341 20.5051 42.435Z" fill="#4A2C21"/>
<path d="M20.4826 42.435C19.8826 42.435 19.2826 42.435 18.7051 42.3525C18.5811 42.3406 18.462 42.2981 18.3586 42.2287C18.2551 42.1593 18.1706 42.0652 18.1126 41.955C17.1076 40.065 16.9576 38.7075 17.6401 37.7925C18.1182 37.1733 18.7672 36.7076 19.5069 36.453C20.2466 36.1985 21.0447 36.1661 21.8026 36.36C22.5526 36.2475 23.7826 35.8875 24.1426 35.3175C24.2022 35.2218 24.2375 35.113 24.2453 35.0006C24.2532 34.8881 24.2333 34.7755 24.1876 34.6725C23.2501 31.8675 25.0501 30.8175 25.1251 30.75C25.7013 30.4016 26.3714 30.2404 27.043 30.2888C27.7146 30.3372 28.3547 30.5926 28.8751 31.02C29.0243 31.1523 29.1148 31.3384 29.1268 31.5374C29.1387 31.7364 29.0711 31.932 28.9388 32.0812C28.8066 32.2304 28.6204 32.3209 28.4214 32.3329C28.2224 32.3448 28.0268 32.2773 27.8776 32.145C27.5931 31.9307 27.2508 31.8069 26.8951 31.7895C26.5394 31.7721 26.1866 31.862 25.8826 32.0475C25.7926 32.1075 25.0876 32.61 25.6126 34.17C25.7297 34.4864 25.7723 34.8255 25.7372 35.1611C25.702 35.4967 25.5901 35.8196 25.4101 36.105C24.5176 37.5075 22.1176 37.8225 21.8476 37.8525C21.7462 37.8737 21.6415 37.8737 21.5401 37.8525C21.0558 37.7142 20.5415 37.7215 20.0614 37.8735C19.5813 38.0256 19.1565 38.3156 18.8401 38.7075C18.7426 38.835 18.5101 39.36 19.2601 40.905C21.0006 41.0182 23.9108 40.7179 25.6126 40.336C25.7111 40.3163 25.8125 40.3162 25.911 40.3357C26.0096 40.3552 26.1033 40.3939 26.1869 40.4496C26.2704 40.5053 26.3422 40.577 26.3981 40.6604C26.454 40.7439 26.4929 40.8375 26.5126 40.936C26.5323 41.0345 26.5324 41.1359 26.5129 41.2345C26.4934 41.333 26.4547 41.4267 26.399 41.5103C26.3433 41.5939 26.2716 41.6657 26.1882 41.7215C26.1047 41.7774 26.0111 41.8163 25.9126 41.836C24.5099 42.1344 21.9166 42.4442 20.4826 42.435Z" fill="#4A2C21"/>
</g>
<defs>
<clipPath id="clip0_466_7385">
<rect width="48" height="48" fill="white"/>
</clipPath>
</defs>
</svg>
