<svg width="48" height="48" viewBox="0 0 48 48" fill="none" xmlns="http://www.w3.org/2000/svg">
<path fill-rule="evenodd" clip-rule="evenodd" d="M9.60291 11.0442C9.11232 11.0214 8.69626 11.4006 8.67348 11.8912C8.6507 12.3818 9.02991 12.7979 9.52051 12.8207C10.0111 12.8433 10.4272 12.4641 10.4499 11.9736C10.4727 11.4831 10.0935 11.0669 9.60291 11.0442ZM47.0739 25.6801C46.8517 26.1836 46.4479 26.57 45.9369 26.768L43.2687 27.8025C43.0286 27.8956 42.778 27.9419 42.5275 27.9419C42.2449 27.9419 41.9624 27.8828 41.6955 27.765C41.1919 27.5428 40.8054 27.139 40.6074 26.6281L40.3747 26.0277L38.2029 26.9339C38.3077 27.5492 38.207 28.1887 37.9014 28.7441C37.5391 29.4029 36.939 29.8803 36.2117 30.0886C36.1817 30.0972 36.1516 30.1052 36.1215 30.1128C36.3591 30.8285 36.3115 31.6347 35.9237 32.3398C35.3513 33.3807 34.2094 33.914 33.0971 33.7667C33.1304 34.2789 33.0241 34.8046 32.7606 35.2836C32.3993 35.9405 31.8014 36.4172 31.0772 36.6256C30.6247 36.756 30.1583 36.7708 29.7129 36.6742C29.7274 37.1569 29.6177 37.6486 29.3696 38.0994C29.0083 38.7565 28.3849 39.25 27.6594 39.4533C27.4088 39.5236 27.1547 39.5583 26.9031 39.5583C26.4318 39.5583 25.9689 39.4365 25.5523 39.1972L24.8167 38.7747C24.4519 39.2882 23.9298 39.6655 23.3144 39.852C23.0383 39.9357 22.7563 39.9771 22.4764 39.9771C22.0125 39.9771 21.5538 39.8634 21.1345 39.6392C20.5124 39.3063 20.0532 38.7694 19.8127 38.1428C19.0359 38.4733 18.1246 38.4582 17.3375 38.0372C16.78 37.739 16.3514 37.2714 16.0954 36.7215C15.2765 37.1647 14.2592 37.2028 13.3809 36.7332C12.7086 36.3736 12.2159 35.7716 11.9936 35.0381C11.8672 34.6208 11.8371 34.1903 11.9009 33.7729C11.4184 33.7854 10.9326 33.674 10.4901 33.4374C9.81779 33.0779 9.32513 32.4759 9.10276 31.7424C8.88048 31.009 8.95613 30.2348 9.31566 29.5624L10.0339 28.2196C9.87338 27.838 9.79426 27.4209 9.71842 27.0133C9.58079 26.2737 9.47373 25.8155 9.14673 25.6886C8.95426 25.6139 8.45438 25.3964 7.59357 25.0127L7.30501 25.6655C7.08357 26.1667 6.67885 26.5521 6.16548 26.7508C5.92351 26.8444 5.67141 26.8911 5.42007 26.8911C5.13816 26.8911 4.8572 26.8324 4.59217 26.7153L1.97476 25.5585C0.937509 25.0999 0.466603 23.883 0.924946 22.8457L6.9347 9.24849C7.15623 8.74731 7.56085 8.3619 8.07423 8.16324C8.5876 7.96468 9.14645 7.97725 9.64754 8.19868L12.2649 9.35556C13.3023 9.81409 13.7733 11.0311 13.3149 12.0685L12.8641 13.0883L14.5677 13.8743C14.586 13.8827 14.6039 13.8919 14.6214 13.9018C15.5576 14.4288 16.5354 14.1996 17.7732 13.9094C19.3889 13.5307 21.3774 13.0657 23.697 14.4289C26.9019 12.4477 29.3641 13.452 31.1816 14.1948C32.5363 14.7485 33.3426 15.0413 34.1572 14.6174L35.6428 13.8222L35.2339 12.7673C34.8239 11.7099 35.3507 10.516 36.4082 10.106L39.0765 9.07159C40.1341 8.66171 41.328 9.18859 41.7378 10.2459L47.1113 24.1067C47.3094 24.6177 47.2961 25.1764 47.0739 25.6801ZM11.9429 11.4621C12.067 11.1812 11.9395 10.8517 11.6586 10.7276L9.04117 9.57071C8.97038 9.5394 8.89501 9.52374 8.81926 9.52374C8.75082 9.52374 8.68192 9.53649 8.61563 9.56218C8.47595 9.61618 8.36617 9.72025 8.30673 9.85487L2.29688 23.452C2.17276 23.7328 2.30035 24.0623 2.58123 24.1864L5.19863 25.3433C5.33345 25.4029 5.48457 25.4059 5.62426 25.3519C5.76395 25.2978 5.87363 25.1939 5.93317 25.0592L11.9429 11.4621ZM12.678 31.9868L14.392 29.0205C14.6745 28.3715 14.4123 27.6089 13.7867 27.275C13.1234 26.921 12.2955 27.1715 11.9413 27.8338L10.6384 30.2698C10.4679 30.5888 10.4322 30.9572 10.5384 31.3072C10.6444 31.6572 10.8785 31.944 11.1975 32.1145C11.6725 32.3687 12.2545 32.315 12.678 31.9868ZM15.9373 34.8436L17.8313 31.176C17.9455 30.5946 17.6635 29.9854 17.1401 29.7061C16.6606 29.45 16.0748 29.5065 15.6507 29.8403L13.5293 33.5657C13.3587 33.8847 13.3232 34.2531 13.4293 34.6031C13.5354 34.9532 13.7695 35.2399 14.0885 35.4105C14.7503 35.7646 15.5796 35.5102 15.9373 34.8436ZM19.7709 36.3379L21.4502 33.1104C21.564 32.5292 21.2821 31.9205 20.7589 31.6413C20.2373 31.3631 19.5785 31.4632 19.159 31.874L17.3294 35.4172C17.2938 35.9499 17.5717 36.4612 18.045 36.7143C18.6339 37.0293 19.3678 36.8662 19.7709 36.3379ZM23.6869 37.7574L24.9362 35.4214C25.1822 34.9616 25.1394 34.3902 24.8274 33.9658C24.7082 33.8036 24.5567 33.6726 24.3772 33.5766C23.8557 33.2981 23.1965 33.3988 22.7768 33.8105L21.1301 36.9753C21.0746 37.5246 21.3518 38.0543 21.8421 38.3167C22.161 38.4872 22.5294 38.5228 22.8795 38.4167C23.2296 38.3105 23.5163 38.0763 23.6869 37.7574ZM27.5398 35.6012C27.4993 35.5786 26.5803 35.044 26.5803 35.044C26.5465 35.4185 26.4411 35.7881 26.2589 36.1288L25.5452 37.4632L26.2995 37.8964C26.5865 38.0612 26.9257 38.1012 27.2546 38.0089C27.5949 37.9135 27.8869 37.683 28.0554 37.3764C28.4001 36.7502 28.1687 35.9537 27.5398 35.6012ZM36.6115 26.8312C36.4923 26.5854 36.3029 26.3836 36.064 26.2473L28.9674 22.2024C27.7622 21.5155 26.2569 22.125 24.5138 22.8306C23.2106 23.3581 21.7458 23.9509 20.2616 23.9511C18.8114 23.9512 17.3428 23.3855 15.9864 21.6404C15.8083 21.4118 15.7401 21.1279 15.7949 20.842C15.85 20.5552 16.0191 20.3167 16.2708 20.17C18.2719 19.0021 19.9622 17.7271 21.2945 16.3807C21.6411 16.0304 21.9908 15.7083 22.3408 15.415C20.8055 14.7401 19.4924 15.0468 18.1158 15.3696C16.7557 15.6883 15.3495 16.018 13.9136 15.2241L12.2579 14.4602L8.20032 23.6405C9.02242 24.0069 9.52304 24.2252 9.68982 24.29C10.6899 24.6782 10.9739 25.6331 11.1354 26.4357C12.0045 25.5821 13.3629 25.3483 14.4932 25.9516C15.3306 26.3985 15.8593 27.2108 15.9796 28.0938C16.6032 27.9791 17.2624 28.0706 17.8466 28.3825C18.5486 28.7572 19.0403 29.3897 19.2485 30.114C19.9654 29.886 20.7636 29.9435 21.4653 30.318C22.1673 30.6926 22.6589 31.3249 22.8671 32.0492C23.5845 31.8211 24.3828 31.8787 25.0843 32.2536C25.4192 32.4326 25.7081 32.6702 25.9455 32.9608L29.6799 35.0748L29.6813 35.0756C29.98 35.2416 30.3283 35.2801 30.6624 35.1841C31.0003 35.0867 31.2789 34.8654 31.4464 34.5606C31.7889 33.9377 31.5559 33.143 30.9268 32.7889C30.8859 32.7659 25.6842 29.8239 25.6842 29.8239C25.3232 29.6208 25.1952 29.1635 25.3984 28.8025C25.6015 28.4415 26.0589 28.3135 26.4198 28.5167L32.8403 32.1294L32.8415 32.1301C33.4704 32.4758 34.2637 32.2458 34.6096 31.6168C34.9522 30.9939 34.7191 30.1992 34.09 29.8451C34.0899 29.845 34.0897 29.8449 34.0896 29.8448C32.2747 28.8283 30.7621 27.9796 29.201 27.0859C28.8415 26.8802 28.7169 26.422 28.9227 26.0625C29.1285 25.7029 29.5868 25.5783 29.9462 25.7842C31.5022 26.6749 33.0121 27.5222 34.8244 28.5372C35.1204 28.7028 35.4666 28.7417 35.7992 28.6464C36.1392 28.5491 36.4192 28.3271 36.5874 28.0211C36.7904 27.6517 36.7992 27.218 36.6115 26.8312ZM39.8323 24.6287L36.1891 15.2312L34.8573 15.944C33.3786 16.7135 31.9732 16.1389 30.6142 15.5834C28.7747 14.8314 26.8727 14.0538 24.1308 15.9347C23.5469 16.3337 22.9517 16.8386 22.3606 17.436C21.0533 18.7572 19.4343 20.0077 17.5423 21.1584C19.4849 23.2484 21.565 22.4063 23.9508 21.4404C25.8792 20.6597 27.8732 19.8525 29.7101 20.8994L36.8067 24.9443C37.098 25.1103 37.3545 25.3232 37.5678 25.5737L39.8323 24.6287ZM45.7128 24.649L40.3393 10.7882C40.2539 10.5677 40.0427 10.4326 39.8194 10.4326C39.7525 10.4326 39.6846 10.4447 39.6187 10.4702L36.9505 11.5046C36.6642 11.6157 36.5215 11.9388 36.6325 12.2252L42.006 26.086C42.0593 26.2233 42.1641 26.3323 42.301 26.3927C42.438 26.4532 42.5891 26.4571 42.7266 26.4039L45.3948 25.3695C45.5321 25.3162 45.6411 25.2114 45.7015 25.0744C45.762 24.9375 45.766 24.7863 45.7128 24.649ZM38.9893 11.9162C38.4996 11.9162 38.1001 12.3155 38.1001 12.8054C38.1001 13.2952 38.4995 13.6946 38.9893 13.6946C39.4791 13.6946 39.8785 13.2951 39.8785 12.8054C39.8785 12.3156 39.4791 11.9162 38.9893 11.9162Z" fill="#4A2C21"/>
</svg>
