<svg width="28" height="23" viewBox="0 0 28 23" fill="none" xmlns="http://www.w3.org/2000/svg">
<path d="M25.2404 1.81177C26.7985 3.62353 27.7333 5.6 27.7333 8.89412C27.7333 14.6588 23.8382 19.7647 18.385 22.4L16.9828 20.2588C22.1243 17.2941 23.215 13.5059 23.5266 11.0353C22.7476 11.5294 21.6569 11.6941 20.5663 11.5294C17.7618 11.2 15.5805 8.89412 15.5805 5.76471C15.5805 4.28235 16.2037 2.8 17.1386 1.64706C18.2292 0.494118 19.4757 0 21.0337 0C22.7476 0 24.3056 0.82353 25.2404 1.81177ZM9.65993 1.81177C11.218 3.62353 12.1528 5.6 12.1528 8.89412C12.1528 14.6588 8.25768 19.7647 2.80449 22.4L1.40225 20.2588C6.54382 17.2941 7.63446 13.5059 7.94607 11.0353C7.16704 11.5294 6.07641 11.6941 4.98577 11.5294C2.18127 11.2 0 8.72941 0 5.76471C0 4.28235 0.623221 2.8 1.55805 1.64706C2.64869 0.494118 3.89513 0 5.45318 0C7.16704 0 8.72509 0.82353 9.65993 1.81177Z" fill="#CBCBCB"/>
</svg>
