<svg width="24" height="24" viewBox="0 0 24 24" fill="none" xmlns="http://www.w3.org/2000/svg">
<path d="M12 2C9.34844 2 6.80312 3.05422 4.92969 4.92891C3.05433 6.80435 2.00054 9.34779 2 12C2 14.6511 3.05469 17.1964 4.92969 19.0711C6.80312 20.9458 9.34844 22 12 22C14.6516 22 17.1969 20.9458 19.0703 19.0711C20.9453 17.1964 22 14.6511 22 12C22 9.34891 20.9453 6.80359 19.0703 4.92891C17.1969 3.05422 14.6516 2 12 2Z" fill="url(#paint0_linear_1931_9662)"/>
<path d="M6.5267 11.8945C9.44232 10.6245 11.3861 9.78724 12.3579 9.38266C15.1361 8.2275 15.7126 8.02688 16.0892 8.02008C16.172 8.01875 16.3564 8.03922 16.4767 8.13648C16.5767 8.21852 16.6048 8.32945 16.6189 8.40734C16.6314 8.48516 16.6486 8.6625 16.6345 8.80094C16.4845 10.3822 15.8329 14.2194 15.5017 15.9905C15.3626 16.7398 15.0861 16.9911 14.8189 17.0156C14.2376 17.0691 13.797 16.6319 13.2345 16.2633C12.3548 15.6862 11.8579 15.3272 11.0033 14.7642C10.0158 14.1136 10.6564 13.7559 11.2189 13.1716C11.3658 13.0186 13.9251 10.6913 13.9736 10.4802C13.9798 10.4538 13.9861 10.3553 13.9267 10.3034C13.8689 10.2514 13.7829 10.2692 13.7204 10.2833C13.6314 10.3033 12.2267 11.2327 9.5017 13.0713C9.10326 13.3453 8.74232 13.4789 8.41732 13.4719C8.06107 13.4642 7.37357 13.27 6.86264 13.1041C6.23764 12.9005 5.7392 12.7928 5.78295 12.447C5.80482 12.267 6.05326 12.0828 6.5267 11.8945Z" fill="white"/>
<defs>
<linearGradient id="paint0_linear_1931_9662" x1="1002" y1="2" x2="1002" y2="2002" gradientUnits="userSpaceOnUse">
<stop stop-color="#2AABEE"/>
<stop offset="1" stop-color="#229ED9"/>
</linearGradient>
</defs>
</svg>
