<svg width="180" height="180" viewBox="0 0 180 180" fill="none" xmlns="http://www.w3.org/2000/svg">
<path d="M102.607 132.836L100.43 131.57L109.956 126.07L112.133 127.336L102.607 132.836Z" fill="#ADB2B4"/>
<path d="M112.136 127.332L107.388 135.555L102.609 132.832L112.136 127.332Z" fill="#EAEFEF"/>
<path d="M93.0835 138.333L90.9062 137.067L100.433 131.567L102.61 132.833L93.0835 138.333Z" fill="#ADB2B4"/>
<path d="M102.604 132.83L97.8666 141.048L93.0781 138.33L102.604 132.83Z" fill="#EAEFEF"/>
<path d="M83.56 143.829L81.3828 142.564L90.8994 137.069L93.0766 138.335L83.56 143.829Z" fill="#ADB2B4"/>
<path d="M93.079 138.336L88.3412 146.554L83.5625 143.83L93.079 138.336Z" fill="#EAEFEF"/>
<path d="M74.0366 149.322L71.8594 148.057L81.3759 142.562L83.5531 143.828L74.0366 149.322Z" fill="#ADB2B4"/>
<path d="M83.5556 143.829L78.8178 152.047L74.0391 149.323L83.5556 143.829Z" fill="#EAEFEF"/>
<path d="M64.5288 154.82L62.3516 153.555L71.868 148.061L74.0453 149.326L64.5288 154.82Z" fill="#ADB2B4"/>
<path d="M74.0399 149.325L69.2923 157.548L64.5234 154.82L74.0399 149.325Z" fill="#EAEFEF"/>
<path d="M54.9975 160.319L52.8203 159.054L62.3466 153.554L64.5239 154.819L54.9975 160.319Z" fill="#ADB2B4"/>
<path d="M64.5263 154.818L59.7787 163.042L55 160.318L64.5263 154.818Z" fill="#EAEFEF"/>
<path d="M45.4819 165.811L43.3047 164.546L52.8212 159.052L54.9984 160.317L45.4819 165.811Z" fill="#ADB2B4"/>
<path d="M55.0009 160.316L50.2532 168.54L45.4844 165.811L55.0009 160.316Z" fill="#EAEFEF"/>
<path d="M93.2302 15.4854C91.4937 16.5014 90.4222 18.626 90.4222 21.6741L90.4038 25.8124L24.0078 64.4047V60.2665C24.0263 57.2184 25.0977 55.0753 26.8343 54.0778L93.2302 15.4854Z" fill="#D9DDDD"/>
<path d="M112.461 34.1963L112.22 127.185L45.8246 165.777L46.0463 72.7886C46.0648 69.0199 44.8084 64.7524 42.4808 60.725C40.1715 56.7346 37.0863 53.4647 33.798 51.5618C30.3987 49.6036 27.3135 49.4189 25.0781 50.7305L91.474 12.1382C93.7094 10.8265 96.7945 11.0112 100.212 12.9695C103.501 14.8723 106.586 18.1423 108.895 22.1511C111.204 26.16 112.461 30.4275 112.461 34.1963Z" fill="#F9FAFA"/>
<path d="M33.7054 51.7223C36.9963 53.6223 40.0824 56.8838 42.3867 60.8886C44.7027 64.9001 45.9666 69.1731 45.9559 72.941L45.721 165.93L43.1025 164.418L43.3373 71.4291C43.3457 68.4609 42.3392 65.0968 40.5288 61.9473C38.7065 58.791 36.2918 56.2429 33.6968 54.7447C28.3773 51.6735 24.0226 54.1416 24.0052 60.2677L23.9935 64.4015L21.375 62.8897L21.3867 58.7559C21.4088 50.9763 26.9351 47.8135 33.7054 51.7223Z" fill="#CCCECE"/>
<path d="M158.616 136.149L158.596 141.086C158.588 144.004 156.669 146.917 152.839 149.144C145.124 153.627 132.589 153.627 124.824 149.144C120.93 146.896 118.984 143.942 118.992 140.991L119.012 136.054C119.004 139.005 120.95 141.958 124.844 144.207C132.609 148.69 145.144 148.69 152.859 144.206C156.689 141.98 158.608 139.067 158.616 136.149Z" fill="#DB9952"/>
<path d="M152.771 127.975C160.536 132.459 160.572 139.722 152.862 144.202C145.147 148.686 132.613 148.686 124.847 144.203C117.104 139.732 117.063 132.471 124.778 127.988C132.487 123.508 145.027 123.505 152.771 127.975Z" fill="#E8A658"/>
<path d="M138.868 145.448C134.084 145.448 129.603 144.381 126.25 142.446C123.181 140.673 121.488 138.413 121.484 136.082C121.481 133.765 123.152 131.517 126.188 129.753C129.516 127.818 133.986 126.753 138.774 126.753C143.552 126.753 148.023 127.815 151.362 129.743C154.443 131.522 156.141 133.787 156.145 136.123C156.148 138.439 154.479 140.685 151.445 142.448C148.117 144.382 143.65 145.448 138.868 145.448Z" fill="#FFD651"/>
<path d="M142.657 138.442L139.067 136.356C137.332 136.976 135.876 137.31 134.675 137.372C133.49 137.435 132.36 137.154 131.294 136.534C130.228 135.915 129.724 135.193 129.805 134.363C129.879 133.539 130.476 132.759 131.619 132.028L130.699 131.493L131.888 130.806L132.831 131.355C134.298 130.624 136.047 130.147 138.08 129.924L138.578 131.609C137.185 131.747 135.936 132.05 134.841 132.523L138.316 134.542L138.37 134.511C140.135 133.882 141.63 133.534 142.87 133.476C144.101 133.423 145.262 133.704 146.343 134.332C147.417 134.956 147.913 135.692 147.816 136.53C147.734 137.368 147.083 138.17 145.879 138.937L147.206 139.708L146.017 140.395L144.667 139.61C142.799 140.493 140.596 140.983 138.079 141.085L137.827 139.365C139.766 139.285 141.377 138.977 142.657 138.442ZM143.9 137.787C144.433 137.408 144.727 137.034 144.791 136.668C144.862 136.307 144.679 135.995 144.25 135.745C143.82 135.496 143.336 135.375 142.813 135.384C142.282 135.398 141.542 135.549 140.571 135.852L143.9 137.787ZM133.598 133.178C133.088 133.525 132.817 133.878 132.777 134.221C132.736 134.564 132.927 134.854 133.341 135.095C133.755 135.335 134.201 135.451 134.694 135.451C135.178 135.447 135.88 135.308 136.797 135.037L133.598 133.178Z" fill="#E8A658"/>
<path d="M158.616 129.821L158.596 134.758C158.588 137.676 156.669 140.589 152.839 142.815C145.124 147.299 132.589 147.299 124.824 142.816C120.93 140.567 118.984 137.614 118.992 134.663L119.012 129.726C119.004 132.677 120.95 135.63 124.844 137.878C132.609 142.362 145.144 142.362 152.859 137.878C156.689 135.652 158.608 132.739 158.616 129.821Z" fill="#DB9952"/>
<path d="M152.771 121.649C160.536 126.132 160.572 133.396 152.862 137.876C145.147 142.36 132.613 142.36 124.847 137.876C117.104 133.406 117.063 126.145 124.778 121.662C132.487 117.182 145.027 117.178 152.771 121.649Z" fill="#E8A658"/>
<path d="M138.868 139.117C134.084 139.117 129.603 138.05 126.25 136.115C123.181 134.342 121.488 132.082 121.484 129.751C121.481 127.434 123.152 125.186 126.188 123.422C129.516 121.487 133.986 120.422 138.774 120.422C143.552 120.422 148.023 121.484 151.362 123.412C154.443 125.191 156.141 127.456 156.145 129.792C156.148 132.108 154.479 134.354 151.445 136.117C148.117 138.051 143.65 139.117 138.868 139.117Z" fill="#FFD651"/>
<path d="M142.657 132.114L139.067 130.028C137.332 130.647 135.876 130.982 134.675 131.044C133.49 131.107 132.36 130.826 131.294 130.206C130.228 129.587 129.724 128.864 129.805 128.035C129.879 127.211 130.476 126.431 131.619 125.7L130.699 125.165L131.888 124.478L132.831 125.027C134.298 124.296 136.047 123.819 138.08 123.596L138.578 125.281C137.185 125.419 135.936 125.722 134.841 126.194L138.316 128.214L138.37 128.182C140.135 127.554 141.63 127.206 142.87 127.148C144.101 127.095 145.262 127.376 146.343 128.004C147.417 128.628 147.913 129.364 147.816 130.202C147.734 131.04 147.083 131.842 145.879 132.609L147.206 133.38L146.017 134.066L144.667 133.282C142.799 134.165 140.596 134.655 138.079 134.757L137.827 133.037C139.766 132.956 141.377 132.649 142.657 132.114ZM143.9 131.459C144.433 131.08 144.727 130.705 144.791 130.34C144.862 129.979 144.679 129.667 144.25 129.417C143.82 129.168 143.336 129.047 142.813 129.056C142.282 129.07 141.542 129.221 140.571 129.524L143.9 131.459ZM133.598 126.85C133.088 127.197 132.817 127.55 132.777 127.893C132.736 128.236 132.927 128.526 133.341 128.766C133.755 129.007 134.201 129.123 134.694 129.123C135.178 129.119 135.88 128.98 136.797 128.708L133.598 126.85Z" fill="#E8A658"/>
<path d="M158.616 123.497L158.596 128.434C158.588 131.352 156.669 134.265 152.839 136.491C145.124 140.975 132.589 140.975 124.824 136.491C120.93 134.243 118.984 131.29 118.992 128.338L119.012 123.401C119.004 126.353 120.95 129.306 124.844 131.554C132.609 136.038 145.144 136.038 152.859 131.554C156.689 129.328 158.608 126.415 158.616 123.497Z" fill="#DB9952"/>
<path d="M152.771 115.324C160.536 119.807 160.572 127.071 152.862 131.551C145.147 136.034 132.613 136.035 124.847 131.551C117.104 127.081 117.063 119.82 124.778 115.337C132.487 110.856 145.027 110.853 152.771 115.324Z" fill="#E8A658"/>
<path d="M138.868 132.791C134.084 132.791 129.603 131.725 126.25 129.79C123.181 128.017 121.488 125.757 121.484 123.426C121.481 121.109 123.152 118.861 126.188 117.096C129.516 115.162 133.986 114.097 138.774 114.097C143.552 114.097 148.023 115.159 151.362 117.087C154.443 118.866 156.141 121.131 156.145 123.467C156.148 125.783 154.479 128.029 151.445 129.792C148.117 131.726 143.65 132.791 138.868 132.791Z" fill="#FFD651"/>
<path d="M142.657 125.786L139.067 123.7C137.332 124.319 135.876 124.654 134.675 124.716C133.49 124.778 132.36 124.498 131.294 123.878C130.228 123.258 129.724 122.536 129.805 121.707C129.879 120.883 130.476 120.103 131.619 119.372L130.699 118.837L131.888 118.15L132.831 118.698C134.298 117.967 136.047 117.49 138.08 117.268L138.578 118.953C137.185 119.091 135.936 119.394 134.841 119.866L138.316 121.886L138.37 121.854C140.135 121.226 141.63 120.878 142.87 120.82C144.101 120.767 145.262 121.048 146.343 121.676C147.417 122.3 147.913 123.036 147.816 123.874C147.734 124.712 147.083 125.514 145.879 126.281L147.206 127.052L146.017 127.738L144.667 126.954C142.799 127.836 140.596 128.327 138.079 128.429L137.827 126.709C139.766 126.628 141.377 126.321 142.657 125.786ZM143.9 125.131C144.433 124.752 144.727 124.377 144.791 124.012C144.862 123.651 144.679 123.339 144.25 123.089C143.82 122.839 143.336 122.719 142.813 122.728C142.282 122.741 141.542 122.893 140.571 123.196L143.9 125.131ZM133.598 120.522C133.088 120.869 132.817 121.221 132.777 121.565C132.736 121.908 132.927 122.198 133.341 122.438C133.755 122.679 134.201 122.795 134.694 122.795C135.178 122.79 135.88 122.652 136.797 122.38L133.598 120.522Z" fill="#E8A658"/>
<path d="M158.616 117.164L158.596 122.101C158.588 125.019 156.669 127.932 152.839 130.158C145.124 134.642 132.589 134.642 124.824 130.158C120.93 127.91 118.984 124.957 118.992 122.005L119.012 117.068C119.004 120.02 120.95 122.973 124.844 125.221C132.609 129.705 145.144 129.705 152.859 125.221C156.689 122.995 158.608 120.082 158.616 117.164Z" fill="#DB9952"/>
<path d="M152.771 108.989C160.536 113.472 160.572 120.736 152.862 125.216C145.147 129.7 132.613 129.7 124.847 125.216C117.104 120.746 117.063 113.485 124.778 109.002C132.487 104.521 145.027 104.518 152.771 108.989Z" fill="#E8A658"/>
<path d="M138.868 126.458C134.084 126.458 129.603 125.392 126.25 123.457C123.181 121.684 121.488 119.424 121.484 117.093C121.481 114.776 123.152 112.528 126.188 110.763C129.516 108.829 133.986 107.764 138.774 107.764C143.552 107.764 148.023 108.826 151.362 110.754C154.443 112.533 156.141 114.798 156.145 117.134C156.148 119.45 154.479 121.696 151.445 123.459C148.117 125.393 143.65 126.458 138.868 126.458Z" fill="#FFD651"/>
<path d="M142.657 119.455L139.067 117.369C137.332 117.988 135.876 118.323 134.675 118.385C133.49 118.447 132.36 118.167 131.294 117.547C130.228 116.927 129.724 116.205 129.805 115.376C129.879 114.552 130.476 113.771 131.619 113.04L130.699 112.506L131.888 111.819L132.831 112.367C134.298 111.636 136.047 111.159 138.08 110.937L138.578 112.621C137.185 112.76 135.936 113.063 134.841 113.535L138.316 115.555L138.37 115.523C140.135 114.895 141.63 114.547 142.87 114.489C144.101 114.436 145.262 114.717 146.343 115.345C147.417 115.969 147.913 116.705 147.816 117.543C147.734 118.381 147.083 119.183 145.879 119.95L147.206 120.721L146.017 121.407L144.667 120.623C142.799 121.505 140.596 121.996 138.079 122.098L137.827 120.378C139.766 120.297 141.377 119.99 142.657 119.455ZM143.9 118.8C144.433 118.421 144.727 118.046 144.791 117.681C144.862 117.32 144.679 117.008 144.25 116.758C143.82 116.508 143.336 116.388 142.813 116.397C142.282 116.41 141.542 116.562 140.571 116.865L143.9 118.8ZM133.598 114.19C133.088 114.538 132.817 114.89 132.777 115.234C132.736 115.577 132.927 115.867 133.341 116.107C133.755 116.348 134.201 116.464 134.694 116.464C135.178 116.459 135.88 116.321 136.797 116.049L133.598 114.19Z" fill="#E8A658"/>
<path d="M158.616 110.826L158.596 115.763C158.588 118.681 156.669 121.594 152.839 123.82C145.124 128.304 132.589 128.304 124.824 123.82C120.93 121.572 118.984 118.619 118.992 115.668L119.012 110.73C119.004 113.682 120.95 116.635 124.844 118.883C132.609 123.367 145.144 123.367 152.859 118.883C156.689 116.657 158.608 113.744 158.616 110.826Z" fill="#DB9952"/>
<path d="M152.771 102.654C160.536 107.137 160.572 114.401 152.862 118.881C145.147 123.365 132.613 123.365 124.847 118.881C117.104 114.411 117.063 107.15 124.778 102.667C132.487 98.1865 145.027 98.1832 152.771 102.654Z" fill="#E8A658"/>
<path d="M138.868 120.124C134.084 120.124 129.603 119.058 126.25 117.123C123.181 115.35 121.488 113.09 121.484 110.759C121.481 108.442 123.152 106.194 126.188 104.429C129.516 102.495 133.986 101.43 138.774 101.43C143.552 101.43 148.023 102.492 151.362 104.42C154.443 106.199 156.141 108.464 156.145 110.8C156.148 113.116 154.479 115.362 151.445 117.125C148.117 119.059 143.65 120.124 138.868 120.124Z" fill="#FFD651"/>
<path d="M142.657 113.125L139.067 111.039C137.332 111.658 135.876 111.993 134.675 112.055C133.49 112.117 132.36 111.837 131.294 111.217C130.228 110.597 129.724 109.875 129.805 109.046C129.879 108.221 130.476 107.441 131.619 106.71L130.699 106.175L131.888 105.489L132.831 106.037C134.298 105.306 136.047 104.829 138.08 104.606L138.578 106.291C137.185 106.43 135.936 106.733 134.841 107.205L138.316 109.224L138.37 109.193C140.135 108.565 141.63 108.217 142.87 108.159C144.101 108.106 145.262 108.386 146.343 109.015C147.417 109.639 147.913 110.375 147.816 111.213C147.734 112.051 147.083 112.853 145.879 113.62L147.206 114.391L146.017 115.077L144.667 114.293C142.799 115.175 140.596 115.666 138.079 115.768L137.827 114.047C139.766 113.967 141.377 113.66 142.657 113.125ZM143.9 112.47C144.433 112.091 144.727 111.716 144.791 111.351C144.862 110.99 144.679 110.678 144.25 110.428C143.82 110.178 143.336 110.058 142.813 110.067C142.282 110.08 141.542 110.232 140.571 110.535L143.9 112.47ZM133.598 107.86C133.088 108.208 132.817 108.56 132.777 108.903C132.736 109.247 132.927 109.536 133.341 109.777C133.755 110.018 134.201 110.134 134.694 110.134C135.178 110.129 135.88 109.991 136.797 109.719L133.598 107.86Z" fill="#E8A658"/>
<path d="M131.397 151.967L131.377 156.905C131.369 159.823 129.451 162.736 125.62 164.962C117.905 169.445 105.37 169.445 97.6051 164.962C93.7112 162.714 91.7651 159.76 91.7735 156.809L91.7933 151.872C91.7849 154.823 93.731 157.777 97.6249 160.025C105.39 164.508 117.925 164.508 125.64 160.025C129.47 157.799 131.389 154.885 131.397 151.967Z" fill="#DB9952"/>
<path d="M125.552 143.797C133.317 148.281 133.353 155.544 125.643 160.025C117.929 164.508 105.394 164.508 97.6285 160.025C89.8851 155.554 89.8442 148.294 97.5591 143.81C105.268 139.33 117.809 139.327 125.552 143.797Z" fill="#E8A658"/>
<path d="M111.649 161.263C106.865 161.263 102.384 160.197 99.0317 158.261C95.9618 156.488 94.2692 154.229 94.2656 151.897C94.2624 149.581 95.9329 147.333 98.9692 145.568C102.298 143.634 106.767 142.568 111.555 142.568C116.333 142.568 120.804 143.631 124.143 145.559C127.224 147.337 128.923 149.603 128.926 151.939C128.929 154.254 127.261 156.501 124.227 158.264C120.899 160.198 116.432 161.263 111.649 161.263Z" fill="#FFD651"/>
<path d="M115.43 154.266L111.841 152.18C110.106 152.8 108.649 153.134 107.449 153.197C106.263 153.259 105.133 152.978 104.067 152.359C103.001 151.739 102.497 151.017 102.579 150.188C102.653 149.363 103.25 148.583 104.393 147.852L103.472 147.317L104.661 146.631L105.605 147.179C107.071 146.448 108.821 145.971 110.853 145.748L111.352 147.433C109.958 147.571 108.71 147.874 107.614 148.347L111.089 150.366L111.143 150.335C112.909 149.706 114.404 149.359 115.643 149.301C116.875 149.247 118.035 149.528 119.117 150.157C120.19 150.781 120.687 151.516 120.589 152.354C120.508 153.192 119.857 153.995 118.652 154.761L119.979 155.532L118.79 156.219L117.44 155.434C115.573 156.317 113.369 156.807 110.852 156.91L110.6 155.189C112.54 155.109 114.15 154.801 115.43 154.266ZM116.673 153.611C117.206 153.232 117.501 152.858 117.564 152.492C117.636 152.131 117.453 151.819 117.023 151.57C116.594 151.32 116.11 151.2 115.586 151.209C115.055 151.222 114.315 151.373 113.344 151.677L116.673 153.611ZM106.372 149.002C105.862 149.35 105.591 149.702 105.55 150.045C105.51 150.388 105.7 150.678 106.115 150.919C106.529 151.159 106.975 151.275 107.467 151.275C107.952 151.271 108.653 151.133 109.57 150.861L106.372 149.002Z" fill="#E8A658"/>
<path d="M131.397 145.645L131.377 150.582C131.369 153.5 129.451 156.414 125.62 158.64C117.905 163.123 105.37 163.123 97.6051 158.64C93.7112 156.392 91.7651 153.438 91.7735 150.487L91.7933 145.55C91.7849 148.501 93.731 151.455 97.6249 153.703C105.39 158.186 117.925 158.186 125.64 153.703C129.47 151.476 131.389 148.563 131.397 145.645Z" fill="#DB9952"/>
<path d="M125.552 137.474C133.317 141.958 133.353 149.221 125.643 153.701C117.929 158.185 105.394 158.185 97.6285 153.702C89.8851 149.231 89.8442 141.97 97.5591 137.487C105.268 133.007 117.809 133.004 125.552 137.474Z" fill="#E8A658"/>
<path d="M111.649 154.94C106.865 154.94 102.384 153.874 99.0317 151.938C95.9618 150.165 94.2692 147.905 94.2656 145.574C94.2624 143.258 95.9329 141.01 98.9692 139.245C102.298 137.311 106.767 136.245 111.555 136.245C116.333 136.245 120.804 137.307 124.143 139.235C127.224 141.014 128.923 143.28 128.926 145.615C128.929 147.931 127.261 150.177 124.227 151.94C120.899 153.874 116.432 154.94 111.649 154.94Z" fill="#FFD651"/>
<path d="M115.43 147.935L111.841 145.849C110.106 146.469 108.649 146.803 107.449 146.865C106.263 146.928 105.133 146.647 104.067 146.027C103.001 145.408 102.497 144.686 102.579 143.857C102.653 143.032 103.25 142.252 104.393 141.521L103.472 140.986L104.661 140.3L105.605 140.848C107.071 140.117 108.821 139.64 110.853 139.417L111.352 141.102C109.958 141.24 108.71 141.543 107.614 142.016L111.089 144.035L111.143 144.004C112.909 143.375 114.404 143.028 115.643 142.97C116.875 142.916 118.035 143.197 119.117 143.826C120.19 144.45 120.687 145.185 120.589 146.023C120.508 146.861 119.857 147.663 118.652 148.43L119.979 149.201L118.79 149.888L117.44 149.103C115.573 149.986 113.369 150.476 110.852 150.579L110.6 148.858C112.54 148.778 114.15 148.47 115.43 147.935ZM116.673 147.28C117.206 146.901 117.501 146.527 117.564 146.161C117.636 145.8 117.453 145.488 117.023 145.239C116.594 144.989 116.11 144.869 115.586 144.877C115.055 144.891 114.315 145.042 113.344 145.346L116.673 147.28ZM106.372 142.671C105.862 143.019 105.591 143.371 105.55 143.714C105.51 144.057 105.7 144.347 106.115 144.588C106.529 144.828 106.975 144.944 107.467 144.944C107.952 144.94 108.653 144.802 109.57 144.53L106.372 142.671Z" fill="#E8A658"/>
<path d="M131.397 139.309L131.377 144.246C131.369 147.164 129.451 150.078 125.62 152.304C117.905 156.787 105.37 156.787 97.6051 152.304C93.7112 150.056 91.7651 147.102 91.7735 144.151L91.7933 139.214C91.7849 142.165 93.731 145.119 97.6249 147.367C105.39 151.85 117.925 151.85 125.64 147.367C129.47 145.141 131.389 142.227 131.397 139.309Z" fill="#DB9952"/>
<path d="M125.552 131.135C133.317 135.619 133.353 142.882 125.643 147.363C117.929 151.846 105.394 151.846 97.6285 147.363C89.8851 142.892 89.8442 135.631 97.5591 131.148C105.268 126.668 117.809 126.665 125.552 131.135Z" fill="#E8A658"/>
<path d="M111.649 148.605C106.865 148.605 102.384 147.539 99.0317 145.603C95.9618 143.83 94.2692 141.57 94.2656 139.239C94.2624 136.923 95.9329 134.675 98.9692 132.91C102.298 130.976 106.767 129.91 111.555 129.91C116.333 129.91 120.804 130.972 124.143 132.9C127.224 134.679 128.923 136.945 128.926 139.28C128.929 141.596 127.261 143.842 124.227 145.605C120.899 147.539 116.432 148.605 111.649 148.605Z" fill="#FFD651"/>
<path d="M115.43 141.604L111.841 139.518C110.106 140.138 108.649 140.472 107.449 140.534C106.263 140.597 105.133 140.316 104.067 139.696C103.001 139.077 102.497 138.355 102.579 137.526C102.653 136.701 103.25 135.921 104.393 135.19L103.472 134.655L104.661 133.969L105.605 134.517C107.071 133.786 108.821 133.309 110.853 133.086L111.352 134.771C109.958 134.909 108.71 135.212 107.614 135.685L111.089 137.704L111.143 137.673C112.909 137.044 114.404 136.697 115.643 136.639C116.875 136.585 118.035 136.866 119.117 137.494C120.19 138.119 120.687 138.854 120.589 139.692C120.508 140.53 119.857 141.332 118.652 142.099L119.979 142.87L118.79 143.557L117.44 142.772C115.573 143.655 113.369 144.145 110.852 144.248L110.6 142.527C112.54 142.447 114.15 142.139 115.43 141.604ZM116.673 140.949C117.206 140.57 117.501 140.196 117.564 139.83C117.636 139.469 117.453 139.157 117.023 138.907C116.594 138.658 116.11 138.538 115.586 138.546C115.055 138.56 114.315 138.711 113.344 139.014L116.673 140.949ZM106.372 136.34C105.862 136.688 105.591 137.04 105.55 137.383C105.51 137.726 105.7 138.016 106.115 138.257C106.529 138.497 106.975 138.613 107.467 138.613C107.952 138.609 108.653 138.471 109.57 138.199L106.372 136.34Z" fill="#E8A658"/>
<path d="M61.9989 76.5038C62.8356 76.8471 63.2659 77.7935 63.2703 79.3543C63.2748 80.9262 62.7933 82.4884 61.8259 84.0296C60.8681 85.5652 59.589 86.8398 57.9981 87.8476L58.0036 89.7875L56.5095 90.6501L56.5039 88.6879C54.3687 89.6639 52.4449 89.8031 50.7422 89.0776L52.4432 85.7617C53.7567 86.3099 55.1075 86.3116 56.4956 85.7559L56.4808 80.5495C54.7234 81.0729 53.4312 81.1936 52.6042 80.8781C51.787 80.5572 51.3762 79.6218 51.3718 78.0721C51.3674 76.5225 51.8296 74.9938 52.7775 73.4527C53.7159 71.9283 54.9369 70.6873 56.4501 69.7243L56.4463 68.3753L57.9404 67.5127L57.9443 68.884C59.662 68.0374 61.2842 67.7709 62.8108 68.0955L61.3043 71.4443C60.2735 71.1908 59.1563 71.3221 57.9526 71.8161L57.9669 76.8663L58.0446 76.8215C59.8311 76.2702 61.1525 76.1661 61.9989 76.5038ZM59.7633 83.1993C60.1987 82.5347 60.4204 81.893 60.4186 81.2576C60.4169 80.6332 60.2408 80.2324 59.9002 80.0717C59.5596 79.8998 58.9183 79.9239 57.9762 80.144L57.9899 84.9713C58.7368 84.4619 59.3279 83.8638 59.7633 83.1993ZM56.4715 77.2384L56.4583 72.6006C55.7599 73.0708 55.2076 73.6242 54.8109 74.2664C54.4143 74.8974 54.2217 75.5111 54.2233 76.102C54.225 76.704 54.3817 77.0938 54.6931 77.2601C55.0045 77.4265 55.5974 77.4304 56.4715 77.2384Z" fill="#434240"/>
<path d="M93.0768 39.6104L93.0917 46.1317L68.1321 60.5421L68.1172 54.0208L93.0768 39.6104Z" fill="#343331"/>
<path d="M108.469 43.6426L108.476 46.8702L68.1477 70.1536L68.1406 66.926L108.469 43.6426Z" fill="#D9DDDD"/>
<path d="M108.469 52.5713L108.476 55.7989L68.1477 79.0824L68.1406 75.8547L108.469 52.5713Z" fill="#D9DDDD"/>
<path d="M108.469 61.5039L108.476 64.7316L68.1477 88.015L68.1406 84.7873L108.469 61.5039Z" fill="#D9DDDD"/>
<path d="M108.476 97.0664V101.779L49.6654 135.717L49.6328 131.037L108.476 97.0664Z" fill="#D9DDDD"/>
<path d="M108.469 70.4326L108.476 73.6603L68.1477 96.9437L68.1406 93.716L108.469 70.4326Z" fill="#D9DDDD"/>
<path d="M108.469 79.3594L108.476 82.587L68.1477 105.87L68.1406 102.643L108.469 79.3594Z" fill="#D9DDDD"/>
<path d="M108.469 88.29L108.476 91.5177L68.1477 114.801L68.1406 111.573L108.469 88.29Z" fill="#D9DDDD"/>
<path d="M100.766 113.344L100.773 120.028L60.4445 143.311L60.4375 136.627L100.766 113.344Z" fill="#D9DDDD"/>
<path d="M64.3346 95.9961L49.6406 104.48L49.6475 107.707L64.3346 99.2278V95.9961Z" fill="#D9DDDD"/>
<path d="M64.3346 104.925L49.6406 113.408L49.6475 116.636L64.3346 108.156V104.925Z" fill="#D9DDDD"/>
<path d="M60.6573 115.924L54.3438 119.569L54.3507 122.797L60.6573 119.156V115.924Z" fill="#D9DDDD"/>
</svg>
