<svg width="75" height="75" viewBox="0 0 75 75" fill="none" xmlns="http://www.w3.org/2000/svg">
<rect width="75" height="75" rx="37.5" fill="#F46D06"/>
<path d="M37.5031 20.2941C36.0085 20.2941 34.5752 20.8984 33.5185 21.9739C32.4617 23.0495 31.868 24.5083 31.868 26.0294C31.868 27.5505 32.4617 29.0093 33.5185 30.0849C34.5752 31.1604 36.0085 31.7647 37.5031 31.7647C38.9976 31.7647 40.4309 31.1604 41.4877 30.0849C42.5444 29.0093 43.1381 27.5505 43.1381 26.0294C43.1381 24.5083 42.5444 23.0495 41.4877 21.9739C40.4309 20.8984 38.9976 20.2941 37.5031 20.2941ZM29.614 26.0294C29.614 24.975 29.818 23.9309 30.2145 22.9567C30.6109 21.9825 31.1921 21.0974 31.9246 20.3518C32.6572 19.6062 33.5269 19.0147 34.484 18.6112C35.4412 18.2077 36.4671 18 37.5031 18C38.5391 18 39.5649 18.2077 40.5221 18.6112C41.4792 19.0147 42.3489 19.6062 43.0815 20.3518C43.8141 21.0974 44.3952 21.9825 44.7916 22.9567C45.1881 23.9309 45.3922 24.975 45.3922 26.0294C45.3922 28.1589 44.561 30.2013 43.0815 31.7071C41.602 33.2129 39.5954 34.0588 37.5031 34.0588C35.4107 34.0588 33.4041 33.2129 31.9246 31.7071C30.4451 30.2013 29.614 28.1589 29.614 26.0294ZM31.575 38.7526C31.049 38.8902 30.5283 39.0447 30.0129 39.216L27.8513 39.9386C26.9683 40.2312 26.1709 40.7431 25.531 41.428C24.8911 42.1129 24.4289 42.9493 24.1863 43.8616L23.2869 50.4686C23.084 51.9529 23.8572 53.1757 25.0811 53.4739C27.4862 54.0589 31.5073 54.7059 37.5008 54.7059C43.4965 54.7059 47.52 54.0589 49.925 53.4739C51.149 53.1757 51.9198 51.9529 51.7192 50.4686L50.8176 43.8616C50.5749 42.9493 50.1128 42.1129 49.4729 41.428C48.833 40.7431 48.0355 40.2312 47.1526 39.9386L44.9909 39.216C44.4755 39.0432 43.9556 38.8887 43.4312 38.7526C43.024 39.0777 42.593 39.3707 42.1419 39.6289C40.7295 40.4547 39.1318 40.8956 37.5031 40.9091C35.5646 40.9091 33.9642 40.2598 32.8643 39.6289C32.4124 39.3708 31.9829 39.0778 31.575 38.7526ZM32.2151 36.2405L32.6524 36.6787L32.6637 36.6902L32.7178 36.7406C32.7704 36.7896 32.8537 36.8599 32.968 36.9517C33.1934 37.1352 33.5337 37.383 33.9687 37.6308C34.8411 38.1309 36.0582 38.6149 37.5008 38.6149C38.9434 38.6149 40.1606 38.1332 41.0329 37.6308C41.4764 37.3758 41.8946 37.0777 42.2816 36.7406L42.338 36.6879L42.347 36.681L42.7843 36.2405L43.3883 36.3828C44.1637 36.5632 44.9316 36.7812 45.692 37.0366L47.8558 37.7592C49.1101 38.1737 50.241 38.9043 51.1434 39.8829C52.0459 40.8616 52.6906 42.0566 53.0175 43.3569L53.0333 43.4188L53.9485 50.1543C54.2798 52.5861 53.0018 55.0867 50.4457 55.7061C47.8536 56.3347 43.6543 57 37.5008 57C31.3473 57 27.148 56.3347 24.5559 55.7061C21.9998 55.0867 20.7218 52.5861 21.0509 50.1543L21.9683 43.4188L21.9841 43.3569C22.311 42.0566 22.9557 40.8616 23.8582 39.8829C24.7606 38.9043 25.8915 38.1737 27.1458 37.7592L29.3097 37.0366C30.07 36.7827 30.8379 36.5648 31.6133 36.3828L32.2151 36.2405Z" fill="white"/>
</svg>
