<svg width="64" height="64" viewBox="0 0 64 64" fill="none" xmlns="http://www.w3.org/2000/svg">
<path d="M0 14C0 6.26801 6.26801 0 14 0H50C57.732 0 64 6.26801 64 14V50C64 57.732 57.732 64 50 64H14C6.26801 64 0 57.732 0 50V14Z" fill="#CD7F23"/>
<path d="M36.6357 33.1866L38.6557 44.5546C38.6783 44.6885 38.6595 44.8261 38.6018 44.949C38.5442 45.0719 38.4503 45.1742 38.3329 45.2424C38.2155 45.3105 38.0801 45.3412 37.9447 45.3303C37.8094 45.3193 37.6807 45.2674 37.5757 45.1813L32.8023 41.5986C32.5719 41.4265 32.292 41.3335 32.0043 41.3335C31.7167 41.3335 31.4368 41.4265 31.2063 41.5986L26.425 45.18C26.3201 45.2659 26.1915 45.3178 26.0563 45.3287C25.9212 45.3396 25.7859 45.3091 25.6686 45.2411C25.5512 45.1732 25.4574 45.0711 25.3996 44.9484C25.3418 44.8258 25.3227 44.6884 25.345 44.5546L27.3637 33.1866" stroke="#F8E1AD" stroke-width="2" stroke-linecap="round" stroke-linejoin="round"/>
<path d="M32 34.6666C36.4183 34.6666 40 31.0849 40 26.6666C40 22.2483 36.4183 18.6666 32 18.6666C27.5817 18.6666 24 22.2483 24 26.6666C24 31.0849 27.5817 34.6666 32 34.6666Z" stroke="#F8E1AD" stroke-width="2" stroke-linecap="round" stroke-linejoin="round"/>
</svg>
