<svg width="64" height="64" viewBox="0 0 64 64" fill="none" xmlns="http://www.w3.org/2000/svg">
<path d="M0 14C0 6.26801 6.26801 0 14 0H50C57.732 0 64 6.26801 64 14V50C64 57.732 57.732 64 50 64H14C6.26801 64 0 57.732 0 50V14Z" fill="#CD7F23"/>
<path d="M32 37.3334H32.0133" stroke="#F8E1AD" stroke-width="2" stroke-linecap="round" stroke-linejoin="round"/>
<path d="M37.333 37.3334H37.3463" stroke="#F8E1AD" stroke-width="2" stroke-linecap="round" stroke-linejoin="round"/>
<path d="M20 41.3333C20 42.0406 20.281 42.7189 20.781 43.219C21.2811 43.719 21.9594 44 22.6667 44H41.3333C42.0406 44 42.7189 43.719 43.219 43.219C43.719 42.7189 44 42.0406 44 41.3333V27.3333C44.0001 27.2137 43.9681 27.0963 43.9072 26.9934C43.8463 26.8904 43.7589 26.8057 43.6541 26.7482C43.5492 26.6906 43.4308 26.6624 43.3113 26.6663C43.1917 26.6703 43.0755 26.7063 42.9747 26.7707L37.0253 30.5627C36.9245 30.627 36.8083 30.663 36.6887 30.667C36.5692 30.671 36.4508 30.6427 36.3459 30.5852C36.2411 30.5276 36.1537 30.4429 36.0928 30.34C36.0319 30.237 35.9999 30.1196 36 30V27.3333C36.0001 27.2137 35.9681 27.0963 35.9072 26.9934C35.8463 26.8904 35.7589 26.8057 35.6541 26.7482C35.5492 26.6906 35.4308 26.6624 35.3113 26.6663C35.1917 26.6703 35.0755 26.7063 34.9747 26.7707L29.0267 30.5627C28.9258 30.6274 28.8094 30.6637 28.6897 30.6678C28.57 30.672 28.4513 30.6438 28.3463 30.5862C28.2412 30.5286 28.1536 30.4438 28.0927 30.3406C28.0317 30.2375 27.9997 30.1198 28 30V22.6667C28 21.9594 27.719 21.2811 27.219 20.781C26.7189 20.281 26.0406 20 25.3333 20H22.6667C21.9594 20 21.2811 20.281 20.781 20.781C20.281 21.2811 20 21.9594 20 22.6667V41.3333Z" stroke="#F8E1AD" stroke-width="2" stroke-linecap="round" stroke-linejoin="round"/>
<path d="M26.667 37.3334H26.6803" stroke="#F8E1AD" stroke-width="2" stroke-linecap="round" stroke-linejoin="round"/>
</svg>
