<svg width="28" height="28" viewBox="0 0 28 28" fill="none" xmlns="http://www.w3.org/2000/svg">
<path d="M13.6048 3.50354L14.0305 3.50177L14.7926 3.50531C15.8105 3.5124 17.6658 3.5372 19.5228 3.60628L19.8224 3.61868C21.9247 3.7037 23.992 3.84895 24.903 4.10047C25.4967 4.26296 26.038 4.57985 26.4729 5.01959C26.9079 5.45933 27.2213 6.00659 27.382 6.60687C28.307 10.3798 28.0933 16.3136 27.3995 20.2282C27.2388 20.8285 26.9254 21.3758 26.4904 21.8155C26.0555 22.2553 25.5142 22.5721 24.9205 22.7346C22.8708 23.2979 15.0221 23.3316 14.0936 23.3333L13.1528 23.3298C11.7217 23.3185 10.2909 23.289 8.86055 23.2412L8.31745 23.2235L7.79888 23.2005C5.83672 23.1137 3.94463 22.9702 3.08618 22.7329C2.49246 22.5704 1.95119 22.2535 1.51626 21.8137C1.08133 21.374 0.767907 20.8267 0.607196 20.2265C-0.321328 16.4713 -0.0690502 10.5197 0.589676 6.62282C0.750388 6.02253 1.06381 5.47528 1.49874 5.03553C1.93367 4.59579 2.47494 4.2789 3.06866 4.11642C4.96075 3.59211 11.8984 3.51417 13.6153 3.5L13.6048 3.50354ZM11.2046 9.17173V17.674L18.4576 13.4229L11.2046 9.17173Z" fill="#4D4D4D"/>
</svg>
