<svg width="24" height="24" viewBox="0 0 24 24" fill="none" xmlns="http://www.w3.org/2000/svg">
<path fill-rule="evenodd" clip-rule="evenodd" d="M12 3.2002C12.9405 3.2002 13.9052 3.2244 14.8402 3.264L15.9446 3.3168L17.0017 3.3795L17.9917 3.4466L18.8959 3.517C19.8773 3.59168 20.8009 4.01027 21.504 4.69906C22.207 5.38784 22.6445 6.30263 22.7393 7.2823L22.7833 7.74979L22.8658 8.75079C22.9428 9.78809 23 10.9189 23 12.0002C23 13.0815 22.9428 14.2123 22.8658 15.2496L22.7833 16.2506L22.7393 16.7181C22.6445 17.6979 22.2068 18.6129 21.5035 19.3017C20.8002 19.9905 19.8764 20.409 18.8948 20.4834L17.9928 20.5527L17.0028 20.6209L15.9446 20.6836L14.8402 20.7364C13.894 20.7774 12.9471 20.7987 12 20.8002C11.0529 20.7987 10.106 20.7774 9.1598 20.7364L8.0554 20.6836L6.9983 20.6209L6.0083 20.5527L5.1041 20.4834C4.12269 20.4087 3.19912 19.9901 2.49605 19.3013C1.79298 18.6125 1.35551 17.6978 1.2607 16.7181L1.2167 16.2506L1.1342 15.2496C1.05042 14.1684 1.00565 13.0846 1 12.0002C1 10.9189 1.0572 9.78809 1.1342 8.75079L1.2167 7.74979L1.2607 7.2823C1.35547 6.3028 1.79278 5.38815 2.49563 4.69939C3.19848 4.01063 4.12179 3.59192 5.103 3.517L6.0061 3.4466L6.9961 3.3795L8.0543 3.3168L9.1587 3.264C10.1053 3.223 11.0526 3.20172 12 3.2002ZM9.8 9.3327V14.6677C9.8 15.1759 10.35 15.4927 10.79 15.2397L15.41 12.5722C15.5105 12.5143 15.594 12.431 15.6521 12.3306C15.7102 12.2301 15.7407 12.1162 15.7407 12.0002C15.7407 11.8842 15.7102 11.7702 15.6521 11.6698C15.594 11.5694 15.5105 11.4861 15.41 11.4282L10.79 8.7618C10.6896 8.70385 10.5758 8.67335 10.4599 8.67337C10.344 8.67339 10.2302 8.70392 10.1298 8.7619C10.0295 8.81988 9.94616 8.90326 9.88826 9.00365C9.83037 9.10404 9.79993 9.21791 9.8 9.3338V9.3327Z" fill="#F8E1AD"/>
</svg>
