<svg width="24" height="24" viewBox="0 0 24 24" fill="none" xmlns="http://www.w3.org/2000/svg">
<path d="M23.4704 5.6621C23.3327 5.14756 23.0642 4.67847 22.6915 4.30154C22.3188 3.92461 21.855 3.653 21.3463 3.51374C19.4838 3 11.988 3 11.988 3C11.988 3 4.49184 3.01555 2.62937 3.52929C2.12063 3.66856 1.65684 3.94019 1.28417 4.31713C0.911512 4.69408 0.642987 5.16319 0.505339 5.67775C-0.0580142 9.02474 -0.276549 14.1248 0.520808 17.3379C0.65847 17.8524 0.927002 18.3215 1.29966 18.6985C1.67232 19.0754 2.13611 19.347 2.64484 19.4863C4.50731 20 12.0033 20 12.0033 20C12.0033 20 19.4992 20 21.3616 19.4863C21.8703 19.347 22.3342 19.0754 22.7068 18.6985C23.0795 18.3215 23.3481 17.8525 23.4857 17.3379C24.0799 13.9862 24.263 8.88924 23.4704 5.6621Z" fill="#FF0000"/>
<path d="M9.60205 15.0946L15.8203 11.4663L9.60205 7.83789V15.0946Z" fill="white"/>
</svg>
