<svg width="90" height="90" viewBox="0 0 90 90" fill="none" xmlns="http://www.w3.org/2000/svg">
<rect width="90" height="90" rx="45" fill="#F46D06"/>
<path d="M49.8693 35.094C51.4826 35.4081 52.9652 36.1956 54.1274 37.3556C55.2896 38.5156 56.0786 39.9954 56.3934 41.6056M49.8693 28.5C53.221 28.8716 56.3464 30.3697 58.7325 32.7482C61.1186 35.1267 62.6234 38.2443 63 41.5891M61.3483 54.7441V59.6896C61.3502 60.1487 61.256 60.6032 61.0717 61.0238C60.8874 61.4445 60.6171 61.8221 60.2782 62.1325C59.9392 62.4428 59.5391 62.6791 59.1033 62.8262C58.6676 62.9733 58.2058 63.0279 57.7477 62.9866C52.6653 62.4354 47.7833 60.702 43.4939 57.9257C39.5032 55.3947 36.1198 52.0178 33.584 48.0347C30.7927 43.7341 29.0556 38.8377 28.5134 33.7422C28.4721 33.2864 28.5264 32.8269 28.6728 32.3931C28.8192 31.9594 29.0544 31.5608 29.3636 31.2227C29.6728 30.8846 30.0491 30.6145 30.4686 30.4296C30.8881 30.2447 31.3416 30.1489 31.8002 30.1485H36.7552C37.5567 30.1406 38.3338 30.4239 38.9416 30.9456C39.5493 31.4673 39.9463 32.1917 40.0585 32.9839C40.2676 34.5666 40.6555 36.1206 41.2146 37.6162C41.4369 38.2062 41.485 38.8475 41.3532 39.464C41.2215 40.0805 40.9155 40.6463 40.4714 41.0945L38.3738 43.1881C40.725 47.3152 44.1487 50.7324 48.2837 53.0791L50.3813 50.9855C50.8304 50.5423 51.3974 50.2369 52.015 50.1054C52.6327 49.9739 53.2752 50.0219 53.8663 50.2437C55.3648 50.8018 56.9218 51.1889 58.5075 51.3977C59.3098 51.5106 60.0425 51.914 60.5663 52.531C61.0901 53.148 61.3684 53.9356 61.3483 54.7441Z" stroke="white" stroke-width="2.25" stroke-linecap="round" stroke-linejoin="round"/>
</svg>
