<svg width="32" height="32" viewBox="0 0 32 32" fill="none" xmlns="http://www.w3.org/2000/svg">
<path d="M7.24721 4.41906L27.0462 24.218C27.0462 24.218 27.989 25.1609 27.0462 26.1037L26.1034 27.0465C26.1034 27.0465 25.1606 27.9893 24.2178 27.0465L4.41878 7.24748C4.41878 7.24748 3.47597 6.30467 4.41878 5.36187L5.36159 4.41906C5.36159 4.41906 6.3044 3.47625 7.24721 4.41906Z" fill="#552914"/>
<path d="M24.2181 4.41903L4.41913 24.218C4.41913 24.218 3.47632 25.1608 4.41913 26.1036L5.36194 27.0464C5.36194 27.0464 6.30475 27.9893 7.24756 27.0464L27.0465 7.24745C27.0465 7.24745 27.9894 6.30464 27.0465 5.36184L26.1037 4.41903C26.1037 4.41903 25.1609 3.47622 24.2181 4.41903Z" fill="#552914"/>
</svg>
