<svg width="143" height="24" viewBox="0 0 143 24" fill="none" xmlns="http://www.w3.org/2000/svg">
<path d="M14.1072 4.44515H0V6.60827H7.3399C8.22384 6.60103 9.1118 6.5962 10.0038 6.5943C11.3817 6.59102 12.7484 6.59551 14.1072 6.60499V16.9157H4.77178L9.06305 11.4556L9.90104 10.3839C9.01273 10.3686 8.05593 10.3532 7.19907 10.3423L0.349802 19.1013H3.14088L3.16342 19.079H14.1072V19.0842H16.2985V8.84471L19.5735 11.3157L21.6823 12.9282L23.7895 11.3169L27.0662 8.84471V19.0842H29.2574V4.44515L21.6823 10.1931L14.1072 4.44515Z" fill="#0D0D0D"/>
<path d="M35.2069 10.1878L41.7169 4.28609H38.4729L30.0231 11.9224C30.0226 12.9288 30.02 13.9261 30.0156 14.8569L33.5762 11.6595L39.1416 19.243H41.8402L35.2069 10.1878Z" fill="#0D0D0D"/>
<path d="M49.8146 23.5294H49V1.90735e-06H49.8146V23.5294Z" fill="#0D0D0D"/>
<path d="M76.9999 17.3248L74.8151 21.3199C74.6594 21.6047 74.4774 21.8162 74.2689 21.9542C74.0605 22.0918 73.8326 22.1608 73.5852 22.1608C73.4021 22.1608 73.205 22.1179 72.9945 22.0321L73.1388 21.625C73.3036 21.6885 73.4549 21.7201 73.5922 21.7201C73.9081 21.7201 74.1669 21.5505 74.3685 21.2114L74.506 20.9808L72.5547 17.3248H73.0976L74.7739 20.5399L76.4914 17.3248H76.9999Z" fill="#0D0D0D"/>
<path d="M81.4532 19.8955H80.3539V22.0726H79.8594V17.3248H80.3539V19.4546H81.4532L83.0815 17.3248H83.631L81.845 19.6311L83.7341 22.0726H83.1502L81.4532 19.8955Z" fill="#0D0D0D"/>
<path d="M89.4491 19.8243C89.7009 19.6185 89.8269 19.3282 89.8269 18.9527C89.8269 18.5685 89.7009 18.2734 89.4491 18.0676C89.197 17.8618 88.833 17.759 88.3567 17.759H87.0788V20.1329H88.3567C88.833 20.1329 89.197 20.0301 89.4491 19.8243ZM89.8131 17.759C90.1613 18.0484 90.3353 18.4464 90.3353 18.9527C90.3353 19.4593 90.1613 19.856 89.8131 20.1431C89.465 20.4303 88.9842 20.5736 88.3703 20.5736H87.0788V22.0728H86.5703V17.3248H88.3703C88.9842 17.3248 89.465 17.4697 89.8131 17.759Z" fill="#0D0D0D"/>
<path d="M96.0924 20.3973L94.938 17.8471L93.7838 20.3973H96.0924ZM96.278 20.8044H93.5982L93.0211 22.0726H92.4922L94.6906 17.3248H95.1924L97.3908 22.0726H96.8549L96.278 20.8044Z" fill="#0D0D0D"/>
<path d="M101.004 16.6974C100.947 16.641 100.918 16.572 100.918 16.4904C100.918 16.4092 100.948 16.3402 101.008 16.2838C101.067 16.2272 101.136 16.1991 101.214 16.1991C101.296 16.1991 101.366 16.2272 101.423 16.2838C101.48 16.3402 101.509 16.4092 101.509 16.4904C101.509 16.5767 101.48 16.6465 101.423 16.7009C101.366 16.7552 101.296 16.7821 101.214 16.7821C101.131 16.7821 101.061 16.754 101.004 16.6974ZM100.348 17.3248H100.856V22.0726H100.348V17.3248ZM99.7811 16.7009C99.724 16.6465 99.6953 16.5767 99.6953 16.4904C99.6953 16.4092 99.724 16.3402 99.7811 16.2838C99.8384 16.2272 99.9083 16.1991 99.9906 16.1991C100.069 16.1991 100.137 16.2272 100.197 16.2838C100.256 16.3402 100.286 16.4092 100.286 16.4904C100.286 16.572 100.257 16.641 100.2 16.6974C100.143 16.754 100.073 16.7821 99.9906 16.7821C99.9083 16.7821 99.8384 16.7552 99.7811 16.7009Z" fill="#0D0D0D"/>
<path d="M108.535 17.3248V22.0726H108.033V19.8817H105.024V22.0726H104.516V17.3248H105.024V19.441H108.033V17.3248H108.535Z" fill="#0D0D0D"/>
<path d="M115.108 20.3973L113.954 17.8471L112.799 20.3973H115.108ZM115.293 20.8044H112.614L112.037 22.0726H111.508L113.706 17.3248H114.208L116.406 22.0726H115.87L115.293 20.8044Z" fill="#0D0D0D"/>
<path d="M85.2209 2.84466H90.9711C91.4661 2.84466 91.7804 3.08185 91.9237 3.22312C92.0443 3.34232 92.3247 3.67369 92.3247 4.18101C92.3247 4.70816 92.0085 5.1846 91.5192 5.39453C91.3611 5.47302 91.1677 5.51717 90.9711 5.51717L85.2209 5.53511V2.84466ZM87.6344 7.1854C88.7615 7.18644 89.8887 7.18747 91.0158 7.18833L91.363 7.15228C91.6644 7.12106 91.9541 7.04154 92.2239 6.91631C93.3016 6.42538 93.9968 5.35192 93.9968 4.18101C93.9968 3.38734 93.6816 2.62973 93.1094 2.0479C92.541 1.48693 91.7808 1.17661 90.9711 1.17661H83.5312V12.7098H85.2209V7.1854H87.6344Z" fill="#0D0D0D"/>
<path d="M69.1287 1.40776H66.6733L59.6741 7.73326V1.40776H58.0156V12.729H59.6741V9.94572L62.9668 6.98893L67.1795 12.729H69.222L64.2015 5.87494L69.1287 1.40776Z" fill="#0D0D0D"/>
<path d="M106.441 1.40776H103.986L96.9868 7.73326V1.40776H95.3281V12.729H96.9868V9.94572L100.28 6.98893L104.492 12.729H106.535L101.514 5.87494L106.441 1.40776Z" fill="#0D0D0D"/>
<path d="M125.21 12.7288H130.944V11.0914H125.21C122.963 11.0914 121.135 9.28643 121.135 7.06827C121.135 4.84995 122.963 3.0451 125.21 3.0451H130.944V1.40758H125.21C122.049 1.40758 119.477 3.9471 119.477 7.06827C119.477 10.1895 122.049 12.7288 125.21 12.7288Z" fill="#0D0D0D"/>
<path d="M74.6371 8.87709L76.4918 5.29034L78.3465 8.87709H74.6371ZM80.3384 12.729H82.1945L81.2791 10.9641L76.4918 1.68893L70.7891 12.729H72.6452L73.8801 10.3407H79.1034L80.3384 12.729Z" fill="#0D0D0D"/>
<path d="M111.926 8.73654L113.781 5.14979L115.636 8.73654H111.926ZM117.627 12.5884H119.484L118.568 10.8236L113.781 1.54838L108.078 12.5884H109.934L111.169 10.2002H116.392L117.627 12.5884Z" fill="#0D0D0D"/>
</svg>
