<svg width="32" height="32" viewBox="0 0 32 32" fill="none" xmlns="http://www.w3.org/2000/svg">
<path d="M2.00033 3.33331H30.0003C30.0003 3.33331 31.3337 3.33331 31.3337 4.66665V5.99998C31.3337 5.99998 31.3337 7.33331 30.0003 7.33331H2.00033C2.00033 7.33331 0.666992 7.33331 0.666992 5.99998V4.66665C0.666992 4.66665 0.666992 3.33331 2.00033 3.33331ZM2.00033 14H30.0003C30.0003 14 31.3337 14 31.3337 15.3333V16.6666C31.3337 16.6666 31.3337 18 30.0003 18H2.00033C2.00033 18 0.666992 18 0.666992 16.6666V15.3333C0.666992 15.3333 0.666992 14 2.00033 14ZM2.00033 24.6666H30.0003C30.0003 24.6666 31.3337 24.6666 31.3337 26V27.3333C31.3337 27.3333 31.3337 28.6666 30.0003 28.6666H2.00033C2.00033 28.6666 0.666992 28.6666 0.666992 27.3333V26C0.666992 26 0.666992 24.6666 2.00033 24.6666Z" fill="#552914"/>
</svg>
