<svg width="48" height="48" viewBox="0 0 48 48" fill="none" xmlns="http://www.w3.org/2000/svg">
<path fill-rule="evenodd" clip-rule="evenodd" d="M33.104 44.266C30.224 44.16 22.062 43.032 13.514 34.486C4.968 25.938 3.842 17.778 3.734 14.896C3.574 10.504 6.938 6.238 10.824 4.572C11.292 4.36994 11.8044 4.293 12.3111 4.34875C12.8177 4.4045 13.3012 4.59102 13.714 4.89C16.914 7.222 19.122 10.75 21.018 13.524C21.4352 14.1335 21.6135 14.8751 21.5191 15.6076C21.4247 16.3401 21.0641 17.0123 20.506 17.496L16.604 20.394C16.4155 20.5301 16.2828 20.7301 16.2306 20.9566C16.1783 21.1832 16.2101 21.4211 16.32 21.626C17.204 23.232 18.776 25.624 20.576 27.424C22.376 29.224 24.882 30.9 26.6 31.884C26.8154 32.0049 27.069 32.0387 27.3085 31.9785C27.5481 31.9182 27.7554 31.7685 27.888 31.56L30.428 27.694C30.895 27.0737 31.5839 26.6581 32.3504 26.5344C33.1169 26.4106 33.9015 26.5882 34.54 27.03C37.354 28.978 40.638 31.148 43.042 34.226C43.3653 34.6418 43.5709 35.1368 43.6374 35.6593C43.7039 36.1817 43.6288 36.7125 43.42 37.196C41.746 41.102 37.51 44.428 33.104 44.266Z" fill="#F8E1AD"/>
</svg>
