<svg width="48" height="48" viewBox="0 0 48 48" fill="none" xmlns="http://www.w3.org/2000/svg">
<path d="M24 2C28.7739 2 33.3523 3.89642 36.7279 7.27208C40.1036 10.6477 42 15.2261 42 20C42 27.452 36.32 35.26 25.2 43.6C24.8538 43.8596 24.4327 44 24 44C23.5673 44 23.1462 43.8596 22.8 43.6C11.68 35.26 6 27.452 6 20C6 15.2261 7.89642 10.6477 11.2721 7.27208C14.6477 3.89642 19.2261 2 24 2ZM24 14C22.4087 14 20.8826 14.6321 19.7574 15.7574C18.6321 16.8826 18 18.4087 18 20C18 21.5913 18.6321 23.1174 19.7574 24.2426C20.8826 25.3679 22.4087 26 24 26C25.5913 26 27.1174 25.3679 28.2426 24.2426C29.3679 23.1174 30 21.5913 30 20C30 18.4087 29.3679 16.8826 28.2426 15.7574C27.1174 14.6321 25.5913 14 24 14Z" fill="#4A2C21"/>
</svg>
