<svg width="25" height="24" viewBox="0 0 25 24" fill="none" xmlns="http://www.w3.org/2000/svg">
<path d="M7.28457 6.375H23.3435M0.75 6.375H4.51594M18.7827 12H23.3435M0.75 12H15.9702M10.7786 17.625H23.3435M0.75 17.625H7.95998M5.87832 8.48438C5.10165 8.48438 4.47207 7.8548 4.47207 7.07812V5.67188C4.47207 4.8952 5.10165 4.26562 5.87832 4.26562C6.65494 4.26562 7.28457 4.8952 7.28457 5.67188V7.07812C7.28457 7.8548 6.65494 8.48438 5.87832 8.48438ZM17.3765 14.1094C16.5998 14.1094 15.9702 13.4798 15.9702 12.7031V11.2969C15.9702 10.5202 16.5998 9.89062 17.3765 9.89062C18.1532 9.89062 18.7827 10.5202 18.7827 11.2969V12.7031C18.7827 13.4798 18.1532 14.1094 17.3765 14.1094ZM9.36622 19.7344C8.58959 19.7344 7.95997 19.1048 7.95997 18.3281V16.9219C7.95997 16.1452 8.58959 15.5156 9.36622 15.5156C10.1429 15.5156 10.7725 16.1452 10.7725 16.9219V18.3281C10.7725 19.1048 10.1429 19.7344 9.36622 19.7344Z" stroke="#F8E1AD" stroke-width="1.5" stroke-miterlimit="10" stroke-linecap="round" stroke-linejoin="round"/>
</svg>
