<svg xmlns="http://www.w3.org/2000/svg" id="_Слой_1" data-name="Слой_1" version="1.1" viewBox="0 0 123.39 22.46">
  <!-- Generator: Adobe Illustrator 29.4.0, SVG Export Plug-In . SVG Version: 2.1.0 Build 152)  -->
  <defs>
    <style>
      .st0 {
        fill: #F46D06;
      }
    </style>
  </defs>
  <g>
    <g>
      <path class="st0" d="M13.29,4.24H0v2.06h6.92c.83,0,1.67-.01,2.51-.01,1.3,0,2.59,0,3.87,0v9.84H4.5l4.04-5.21.79-1.02c-.84-.01-1.74-.03-2.55-.04L.33,18.23h2.63l.02-.02h10.31s2.06,0,2.06,0v-9.77l3.09,2.36,1.99,1.54,1.99-1.54,3.09-2.36v9.77h2.06V4.24l-7.14,5.49-7.14-5.49h0Z"/>
      <path class="st0" d="M33.17,9.73l6.13-5.63h-3.06l-7.96,7.29c0,.96,0,1.91,0,2.8l3.36-3.05,5.24,7.24h2.54l-6.25-8.64h0Z"/>
    </g>
    <rect class="st0" x="46.17" width=".77" height="22.46"/>
  </g>
  <g>
    <path class="st0" d="M82.57,6.86h0c1.06,0,2.12,0,3.19,0l.33-.03c.28-.03.56-.11.81-.23,1.02-.47,1.67-1.49,1.67-2.61,0-.76-.3-1.48-.84-2.04-.54-.54-1.25-.83-2.02-.83h-7.01v11.01h1.59v-5.27h2.27ZM80.3,2.72h5.42c.47,0,.76.23.9.36.11.11.38.43.38.91s-.3.96-.76,1.16c-.15.07-.33.12-.52.12l-5.42.02v-2.57h0Z"/>
    <polygon class="st0" points="65.14 1.35 62.82 1.35 56.23 7.38 56.23 1.35 54.67 1.35 54.67 12.15 56.23 12.15 56.23 9.49 59.33 6.67 63.3 12.15 65.23 12.15 60.49 5.61 65.14 1.35"/>
    <polygon class="st0" points="100.29 1.35 97.98 1.35 91.39 7.38 91.39 1.35 89.82 1.35 89.82 12.15 91.39 12.15 91.39 9.49 94.49 6.67 98.46 12.15 100.38 12.15 95.65 5.61 100.29 1.35"/>
    <path class="st0" d="M117.98,12.15h5.4v-1.56h-5.4c-2.12,0-3.84-1.72-3.84-3.84s1.72-3.84,3.84-3.84h5.4v-1.56h-5.4c-2.98,0-5.4,2.42-5.4,5.4s2.42,5.4,5.4,5.4h0Z"/>
    <path class="st0" d="M75.7,12.15h1.75l-.86-1.68-4.51-8.85-5.37,10.54h1.75l1.16-2.28h4.92l1.16,2.28h0ZM70.33,8.47l1.75-3.42,1.75,3.42h-3.5Z"/>
    <path class="st0" d="M110.83,12.02h1.75l-.86-1.68-4.51-8.85-5.37,10.54h1.75l1.16-2.28h4.92l1.16,2.28h0ZM105.46,8.34l1.75-3.42,1.75,3.42h-3.5Z"/>
  </g>
  <g>
    <path class="st0" d="M71.42,16.51l-2.04,3.78c-.14.27-.32.47-.51.6-.19.13-.41.2-.64.2-.17,0-.36-.04-.55-.12l.14-.39c.15.06.29.09.42.09.29,0,.54-.16.73-.48l.13-.22-1.82-3.46h.51l1.57,3.04,1.61-3.04h.48,0Z"/>
    <path class="st0" d="M75.44,18.95h-1.03v2.06h-.46v-4.49h.46v2.02h1.03l1.52-2.02h.51l-1.67,2.18,1.76,2.31h-.54l-1.59-2.06h0Z"/>
    <path class="st0" d="M83.14,16.93c.33.27.49.65.49,1.13s-.16.85-.49,1.13c-.33.27-.78.41-1.35.41h-1.21v1.42h-.48v-4.49h1.68c.57,0,1.02.14,1.35.41h0ZM82.79,18.88c.24-.19.35-.47.35-.82s-.12-.64-.35-.84c-.24-.19-.58-.29-1.02-.29h-1.19v2.25h1.19c.44,0,.79-.1,1.02-.29h0Z"/>
    <path class="st0" d="M89.05,19.81h-2.5l-.54,1.2h-.49l2.05-4.49h.47l2.05,4.49h-.5l-.54-1.2h0ZM88.88,19.42l-1.08-2.41-1.08,2.41h2.16Z"/>
    <path class="st0" d="M92.75,16.51h.47v3.72l2.88-3.72h.43v4.49h-.47v-3.72l-2.88,3.72h-.43v-4.49Z"/>
    <path class="st0" d="M103.59,16.51v4.49h-.47v-2.07h-2.81v2.07h-.48v-4.49h.48v2h2.81v-2h.47Z"/>
    <path class="st0" d="M109.78,19.81h-2.5l-.54,1.2h-.49l2.05-4.49h.47l2.05,4.49h-.5l-.54-1.2h0ZM109.61,19.42l-1.08-2.41-1.08,2.41h2.16Z"/>
  </g>
</svg>