<svg width="440" height="80" viewBox="0 0 440 80" fill="none" xmlns="http://www.w3.org/2000/svg">
<path d="M47.353 15.1145H0V22.4692H24.6375C27.6045 22.4445 30.5851 22.4281 33.5792 22.4216C38.2042 22.4105 42.7918 22.4258 47.353 22.458V57.5144H16.0172L30.4215 38.9502L33.2343 35.3063C30.2526 35.2541 27.0409 35.2019 24.1647 35.165L1.17416 64.9453H10.5428L10.6185 64.8697H47.353V64.8873H54.7082V30.073L65.7015 38.4745L72.7799 43.9571L79.853 38.4786L90.8515 30.073V64.8873H98.2067V15.1145L72.7799 34.6576L47.353 15.1145Z" fill="#F46D06"/>
<path d="M118.168 34.6378L140.019 14.5722H129.13L100.767 40.5356C100.766 43.9572 100.757 47.3483 100.742 50.513L112.694 39.6418L131.375 65.4258H140.433L118.168 34.6378Z" fill="#F46D06"/>
<path d="M167.219 80H164.484V0H167.219V80Z" fill="#F46D06"/>
<path d="M258.476 58.9034L251.142 72.4865C250.62 73.4548 250.008 74.1739 249.309 74.6431C248.609 75.1111 247.844 75.3457 247.014 75.3457C246.399 75.3457 245.738 75.1997 245.031 74.9082L245.515 73.5241C246.068 73.7399 246.576 73.8472 247.037 73.8472C248.098 73.8472 248.966 73.2707 249.643 72.1176L250.105 71.3335L243.555 58.9034H245.377L251.004 69.8344L256.769 58.9034H258.476Z" fill="#F46D06"/>
<path d="M273.397 67.6428H269.707V75.0449H268.047V58.9023H269.707V66.1437H273.397L278.862 58.9023H280.707L274.712 66.7437L281.053 75.0449H279.093L273.397 67.6428Z" fill="#F46D06"/>
<path d="M300.257 67.4C301.102 66.7003 301.525 65.7132 301.525 64.4364C301.525 63.1303 301.102 62.1268 300.257 61.4271C299.411 60.7275 298.189 60.3779 296.59 60.3779H292.3V68.4492H296.59C298.189 68.4492 299.411 68.0997 300.257 67.4ZM301.478 60.3779C302.647 61.362 303.232 62.7151 303.232 64.4364C303.232 66.159 302.647 67.5079 301.478 68.4838C300.31 69.4603 298.696 69.9477 296.636 69.9477H292.3V75.0449H290.594V58.9017H296.636C298.696 58.9017 300.31 59.3944 301.478 60.3779Z" fill="#F46D06"/>
<path d="M322.561 69.3489L318.686 60.6782L314.812 69.3489H322.561ZM323.184 70.733H314.189L312.252 75.0449H310.477L317.856 58.9023H319.54L326.92 75.0449H325.121L323.184 70.733Z" fill="#F46D06"/>
<path d="M339.041 56.7692C338.849 56.5774 338.753 56.3428 338.753 56.0654C338.753 55.7892 338.854 55.5546 339.053 55.3628C339.252 55.1704 339.483 55.0748 339.745 55.0748C340.021 55.0748 340.256 55.1704 340.448 55.3628C340.64 55.5546 340.737 55.7892 340.737 56.0654C340.737 56.3587 340.64 56.5962 340.448 56.7809C340.256 56.9657 340.021 57.0572 339.745 57.0572C339.468 57.0572 339.234 56.9616 339.041 56.7692ZM336.839 58.9023H338.546V75.0449H336.839V58.9023ZM334.936 56.7809C334.745 56.5962 334.648 56.3587 334.648 56.0654C334.648 55.7892 334.745 55.5546 334.936 55.3628C335.129 55.1704 335.363 55.0748 335.64 55.0748C335.902 55.0748 336.132 55.1704 336.332 55.3628C336.531 55.5546 336.631 55.7892 336.631 56.0654C336.631 56.3428 336.535 56.5774 336.343 56.7692C336.151 56.9616 335.917 57.0572 335.64 57.0572C335.363 57.0572 335.129 56.9657 334.936 56.7809Z" fill="#F46D06"/>
<path d="M364.303 58.9023V75.0449H362.619V67.5959H352.519V75.0449H350.812V58.9023H352.519V66.0974H362.619V58.9023H364.303Z" fill="#F46D06"/>
<path d="M386.373 69.3489L382.499 60.6782L378.624 69.3489H386.373ZM386.996 70.733H378.002L376.065 75.0449H374.289L381.669 58.9023H383.352L390.732 75.0449H388.933L386.996 70.733Z" fill="#F46D06"/>
<path d="M286.046 9.67136H305.348C307.009 9.67136 308.065 10.4778 308.545 10.9581C308.95 11.3634 309.892 12.49 309.892 14.2149C309.892 16.0072 308.83 17.6271 307.188 18.3409C306.657 18.6078 306.008 18.7579 305.348 18.7579L286.046 18.8189V9.67136ZM294.148 24.4299C297.931 24.4334 301.715 24.4369 305.498 24.4398L306.663 24.3173C307.675 24.2111 308.648 23.9407 309.553 23.5149C313.171 21.8458 315.504 18.196 315.504 14.2149C315.504 11.5165 314.446 8.94059 312.525 6.96235C310.618 5.05508 308.066 3.99998 305.348 3.99998H280.375V43.2129H286.046V24.4299H294.148Z" fill="#F46D06"/>
<path d="M232.045 4.78717H223.803L200.309 26.2939V4.78717H194.742V43.2793H200.309V33.8162L211.362 23.7632L225.502 43.2793H232.358L215.506 19.9756L232.045 4.78717Z" fill="#F46D06"/>
<path d="M357.288 4.78717H349.046L325.552 26.2939V4.78717H319.984V43.2793H325.552V33.8162L336.605 23.7632L350.745 43.2793H357.602L340.748 19.9756L357.288 4.78717Z" fill="#F46D06"/>
<path d="M420.293 43.2793H439.538V37.7123H420.293C412.75 37.7123 406.614 31.5752 406.614 24.0335C406.614 16.4912 412.75 10.3548 420.293 10.3548H439.538V4.78717H420.293C409.681 4.78717 401.047 13.4215 401.047 24.0335C401.047 34.6455 409.681 43.2793 420.293 43.2793Z" fill="#F46D06"/>
<path d="M250.526 30.1829L256.751 17.988L262.977 30.1829H250.526ZM269.663 43.2793H275.893L272.821 37.2789L256.751 5.74316L237.609 43.2793H243.84L247.985 35.1593H265.518L269.663 43.2793Z" fill="#F46D06"/>
<path d="M375.682 29.7024L381.908 17.5075L388.133 29.7024H375.682ZM394.819 42.7988H401.05L397.977 36.7984L381.908 5.26269L362.766 42.7988H368.996L373.141 34.6788H390.674L394.819 42.7988Z" fill="#F46D06"/>
</svg>
