<svg width="64" height="64" viewBox="0 0 64 64" fill="none" xmlns="http://www.w3.org/2000/svg">
<rect width="64" height="64" rx="16" fill="#552914" fill-opacity="0.2"/>
<path d="M18.667 25.3334L24.547 19.4534C24.7951 19.2039 25.0901 19.0059 25.415 18.8709C25.74 18.7358 26.0884 18.6665 26.4403 18.6667H37.5603C37.9122 18.6665 38.2607 18.7358 38.5856 18.8709C38.9106 19.0059 39.2056 19.2039 39.4537 19.4534L45.3337 25.3334" stroke="#4A2C21" stroke-width="2" stroke-linecap="round" stroke-linejoin="round"/>
<path d="M21.333 32V42.6667C21.333 43.3739 21.614 44.0522 22.1141 44.5523C22.6142 45.0524 23.2924 45.3333 23.9997 45.3333H39.9997C40.7069 45.3333 41.3852 45.0524 41.8853 44.5523C42.3854 44.0522 42.6663 43.3739 42.6663 42.6667V32" stroke="#4A2C21" stroke-width="2" stroke-linecap="round" stroke-linejoin="round"/>
<path d="M36 45.3333V39.9999C36 39.2927 35.719 38.6144 35.219 38.1143C34.7189 37.6142 34.0406 37.3333 33.3333 37.3333H30.6667C29.9594 37.3333 29.2811 37.6142 28.781 38.1143C28.281 38.6144 28 39.2927 28 39.9999V45.3333" stroke="#4A2C21" stroke-width="2" stroke-linecap="round" stroke-linejoin="round"/>
<path d="M18.667 25.3333H45.3337" stroke="#4A2C21" stroke-width="2" stroke-linecap="round" stroke-linejoin="round"/>
<path d="M45.3337 25.3333V29.3333C45.3337 30.0405 45.0527 30.7188 44.5526 31.2189C44.0525 31.719 43.3742 31.9999 42.667 31.9999C41.888 31.957 41.144 31.6622 40.547 31.1599C40.3879 31.045 40.1966 30.9831 40.0003 30.9831C39.804 30.9831 39.6128 31.045 39.4537 31.1599C38.8567 31.6622 38.1127 31.957 37.3337 31.9999C36.5546 31.957 35.8106 31.6622 35.2137 31.1599C35.0546 31.045 34.8633 30.9831 34.667 30.9831C34.4707 30.9831 34.2794 31.045 34.1203 31.1599C33.5234 31.6622 32.7793 31.957 32.0003 31.9999C31.2213 31.957 30.4773 31.6622 29.8803 31.1599C29.7212 31.045 29.5299 30.9831 29.3337 30.9831C29.1374 30.9831 28.9461 31.045 28.787 31.1599C28.19 31.6622 27.446 31.957 26.667 31.9999C25.888 31.957 25.144 31.6622 24.547 31.1599C24.3879 31.045 24.1966 30.9831 24.0003 30.9831C23.804 30.9831 23.6128 31.045 23.4537 31.1599C22.8567 31.6622 22.1127 31.957 21.3337 31.9999C20.6264 31.9999 19.9481 31.719 19.448 31.2189C18.9479 30.7188 18.667 30.0405 18.667 29.3333V25.3333" stroke="#4A2C21" stroke-width="2" stroke-linecap="round" stroke-linejoin="round"/>
</svg>
