<svg width="64" height="64" viewBox="0 0 64 64" fill="none" xmlns="http://www.w3.org/2000/svg">
<rect width="64" height="64" rx="16" fill="#552914" fill-opacity="0.2"/>
<path d="M37.3331 18.6667L34.2665 21.7334C33.5336 22.4811 33.123 23.4864 33.123 24.5334C33.123 25.5804 33.5336 26.5857 34.2665 27.3334L36.6665 29.7334C37.4142 30.4663 38.4195 30.8768 39.4665 30.8768C40.5135 30.8768 41.5188 30.4663 42.2665 29.7334L45.3331 26.6667" stroke="#4A2C21" stroke-width="2" stroke-linecap="round" stroke-linejoin="round"/>
<path d="M35.9996 35.9999L20.3996 20.3999C19.8674 20.9213 19.4446 21.5437 19.156 22.2305C18.8674 22.9174 18.7188 23.6549 18.7188 24.3999C18.7188 25.1449 18.8674 25.8825 19.156 26.5693C19.4446 27.2561 19.8674 27.8785 20.3996 28.3999L30.1329 38.1332C31.0662 39.0666 32.7996 39.0666 33.8662 38.1332L35.9996 35.9999ZM35.9996 35.9999L45.3329 45.3332" stroke="#4A2C21" stroke-width="2" stroke-linecap="round" stroke-linejoin="round"/>
<path d="M18.7998 45.0667L27.3331 36.6667" stroke="#4A2C21" stroke-width="2" stroke-linecap="round" stroke-linejoin="round"/>
<path d="M41.3333 22.6667L32 32.0001" stroke="#4A2C21" stroke-width="2" stroke-linecap="round" stroke-linejoin="round"/>
</svg>
