<svg width="56" height="56" viewBox="0 0 56 56" fill="none" xmlns="http://www.w3.org/2000/svg">
<rect width="56" height="56" rx="16" fill="#F8E1AD" fill-opacity="0.2"/>
<path d="M30.333 35.0001V21.0001C30.333 20.3812 30.0872 19.7878 29.6496 19.3502C29.212 18.9126 28.6185 18.6667 27.9997 18.6667H18.6663C18.0475 18.6667 17.454 18.9126 17.0164 19.3502C16.5788 19.7878 16.333 20.3812 16.333 21.0001V33.8334C16.333 34.1428 16.4559 34.4396 16.6747 34.6584C16.8935 34.8772 17.1903 35.0001 17.4997 35.0001H19.833" stroke="#F8E1AD" stroke-width="2" stroke-linecap="round" stroke-linejoin="round"/>
<path d="M31.5 35H24.5" stroke="#F8E1AD" stroke-width="2" stroke-linecap="round" stroke-linejoin="round"/>
<path d="M36.1663 34.9999H38.4997C38.8091 34.9999 39.1058 34.877 39.3246 34.6582C39.5434 34.4394 39.6663 34.1427 39.6663 33.8333V29.5749C39.6659 29.3102 39.5754 29.0534 39.4097 28.8469L35.3497 23.7719C35.2406 23.6353 35.1021 23.5249 34.9446 23.449C34.7871 23.3731 34.6145 23.3335 34.4397 23.3333H30.333" stroke="#F8E1AD" stroke-width="2" stroke-linecap="round" stroke-linejoin="round"/>
<path d="M33.8333 37.3334C35.122 37.3334 36.1667 36.2887 36.1667 35.0001C36.1667 33.7114 35.122 32.6667 33.8333 32.6667C32.5447 32.6667 31.5 33.7114 31.5 35.0001C31.5 36.2887 32.5447 37.3334 33.8333 37.3334Z" stroke="#F8E1AD" stroke-width="2" stroke-linecap="round" stroke-linejoin="round"/>
<path d="M22.1663 37.3334C23.455 37.3334 24.4997 36.2887 24.4997 35.0001C24.4997 33.7114 23.455 32.6667 22.1663 32.6667C20.8777 32.6667 19.833 33.7114 19.833 35.0001C19.833 36.2887 20.8777 37.3334 22.1663 37.3334Z" stroke="#F8E1AD" stroke-width="2" stroke-linecap="round" stroke-linejoin="round"/>
</svg>
