<svg width="56" height="56" viewBox="0 0 56 56" fill="none" xmlns="http://www.w3.org/2000/svg">
<rect width="56" height="56" rx="16" fill="#F8E1AD" fill-opacity="0.2"/>
<path d="M28 32.6667H28.0117" stroke="#F8E1AD" stroke-width="2" stroke-linecap="round" stroke-linejoin="round"/>
<path d="M32.667 32.6667H32.6787" stroke="#F8E1AD" stroke-width="2" stroke-linecap="round" stroke-linejoin="round"/>
<path d="M17.5 36.1667C17.5 36.7855 17.7458 37.379 18.1834 37.8166C18.621 38.2542 19.2145 38.5 19.8333 38.5H36.1667C36.7855 38.5 37.379 38.2542 37.8166 37.8166C38.2542 37.379 38.5 36.7855 38.5 36.1667V23.9167C38.5001 23.812 38.4721 23.7093 38.4188 23.6192C38.3656 23.5291 38.289 23.455 38.1973 23.4047C38.1056 23.3543 38.002 23.3296 37.8974 23.333C37.7928 23.3365 37.691 23.368 37.6028 23.4243L32.3972 26.7423C32.309 26.7986 32.2072 26.8302 32.1026 26.8336C31.998 26.8371 31.8944 26.8124 31.8027 26.762C31.711 26.7117 31.6344 26.6376 31.5812 26.5475C31.5279 26.4574 31.4999 26.3546 31.5 26.25V23.9167C31.5001 23.812 31.4721 23.7093 31.4188 23.6192C31.3656 23.5291 31.289 23.455 31.1973 23.4047C31.1056 23.3543 31.002 23.3296 30.8974 23.333C30.7928 23.3365 30.691 23.368 30.6028 23.4243L25.3983 26.7423C25.3101 26.7989 25.2082 26.8307 25.1035 26.8343C24.9987 26.838 24.8949 26.8133 24.803 26.7629C24.711 26.7125 24.6344 26.6383 24.5811 26.548C24.5278 26.4578 24.4998 26.3548 24.5 26.25V19.8333C24.5 19.2145 24.2542 18.621 23.8166 18.1834C23.379 17.7458 22.7855 17.5 22.1667 17.5H19.8333C19.2145 17.5 18.621 17.7458 18.1834 18.1834C17.7458 18.621 17.5 19.2145 17.5 19.8333V36.1667Z" stroke="#F8E1AD" stroke-width="2" stroke-linecap="round" stroke-linejoin="round"/>
<path d="M23.333 32.6667H23.3447" stroke="#F8E1AD" stroke-width="2" stroke-linecap="round" stroke-linejoin="round"/>
</svg>
