<svg width="56" height="56" viewBox="0 0 56 56" fill="none" xmlns="http://www.w3.org/2000/svg">
<rect width="56" height="56" rx="16" fill="#F8E1AD" fill-opacity="0.2"/>
<path d="M31.5003 16.3333H21.0003C20.3815 16.3333 19.788 16.5791 19.3504 17.0167C18.9128 17.4543 18.667 18.0477 18.667 18.6666V37.3333C18.667 37.9521 18.9128 38.5456 19.3504 38.9832C19.788 39.4208 20.3815 39.6666 21.0003 39.6666H35.0003C35.6192 39.6666 36.2127 39.4208 36.6502 38.9832C37.0878 38.5456 37.3337 37.9521 37.3337 37.3333V22.1666L31.5003 16.3333Z" stroke="#F8E1AD" stroke-width="2" stroke-linecap="round" stroke-linejoin="round"/>
<path d="M30.333 16.3333V20.9999C30.333 21.6188 30.5788 22.2122 31.0164 22.6498C31.454 23.0874 32.0475 23.3333 32.6663 23.3333H37.333" stroke="#F8E1AD" stroke-width="2" stroke-linecap="round" stroke-linejoin="round"/>
<path d="M24.5 31.5001L26.8333 33.8334L31.5 29.1667" stroke="#F8E1AD" stroke-width="2" stroke-linecap="round" stroke-linejoin="round"/>
</svg>
