<svg width="42" height="42" viewBox="0 0 42 42" fill="none" xmlns="http://www.w3.org/2000/svg">
<path d="M21 16.659C20.1416 16.659 19.3025 16.9136 18.5888 17.3904C17.8751 17.8673 17.3188 18.5451 16.9904 19.3382C16.6619 20.1312 16.5759 21.0038 16.7434 21.8457C16.9108 22.6876 17.3242 23.4609 17.9312 24.0679C18.5381 24.6748 19.3114 25.0882 20.1533 25.2556C20.9952 25.4231 21.8678 25.3371 22.6608 25.0087C23.4539 24.6802 24.1317 24.1239 24.6086 23.4102C25.0855 22.6965 25.34 21.8574 25.34 20.999C25.34 20.4291 25.2277 19.8647 25.0096 19.3382C24.7915 18.8116 24.4718 18.3332 24.0688 17.9302C23.6658 17.5272 23.1874 17.2075 22.6608 16.9894C22.1343 16.7713 21.5699 16.659 21 16.659ZM38.3775 12.3715C38.3694 11.02 38.1205 9.68072 37.6425 8.41652C37.2912 7.49123 36.7478 6.65094 36.0479 5.9511C35.3481 5.25126 34.5078 4.70778 33.5825 4.35652C32.3183 3.87851 30.979 3.62962 29.6275 3.62152C27.37 3.49902 26.705 3.49902 21 3.49902C15.295 3.49902 14.63 3.49902 12.3725 3.62152C11.021 3.62962 9.6817 3.87851 8.4175 4.35652C7.4922 4.70778 6.65191 5.25126 5.95207 5.9511C5.25223 6.65094 4.70876 7.49123 4.3575 8.41652C3.87948 9.68072 3.63059 11.02 3.6225 12.3715C3.5 14.629 3.5 15.294 3.5 20.999C3.5 26.704 3.5 27.369 3.6225 29.6265C3.64268 30.9826 3.89115 32.3255 4.3575 33.599C4.70523 34.5211 5.24852 35.3569 5.95 36.049C6.64719 36.7526 7.48918 37.296 8.4175 37.6415C9.6817 38.1195 11.021 38.3684 12.3725 38.3765C14.63 38.499 15.295 38.499 21 38.499C26.705 38.499 27.37 38.499 29.6275 38.3765C30.979 38.3684 32.3183 38.1195 33.5825 37.6415C34.5108 37.296 35.3528 36.7526 36.05 36.049C36.7515 35.3569 37.2948 34.5211 37.6425 33.599C38.119 32.3283 38.3678 30.9836 38.3775 29.6265C38.5 27.369 38.5 26.704 38.5 20.999C38.5 15.294 38.5 14.629 38.3775 12.3715ZM33.9325 26.3715C33.8773 27.4516 33.6467 28.5155 33.25 29.5215C32.9103 30.361 32.4052 31.1235 31.7649 31.7639C31.1245 32.4042 30.3619 32.9093 29.5225 33.249C28.5069 33.6237 27.4371 33.8306 26.355 33.8615H15.645C14.5629 33.8306 13.4931 33.6237 12.4775 33.249C11.6094 32.9271 10.8256 32.4125 10.185 31.744C9.55048 31.1166 9.06072 30.358 8.75 29.5215C8.37505 28.5066 8.17389 27.4358 8.155 26.354V15.644C8.17389 14.5622 8.37505 13.4914 8.75 12.4765C9.07195 11.6084 9.58651 10.8246 10.255 10.184C10.8859 9.55378 11.6435 9.06466 12.4775 8.74902C13.4931 8.37433 14.5629 8.16746 15.645 8.13652H26.355C27.4371 8.16746 28.5069 8.37433 29.5225 8.74902C30.3906 9.07097 31.1744 9.58553 31.815 10.254C32.4495 10.8815 32.9393 11.64 33.25 12.4765C33.6247 13.4921 33.8315 14.5619 33.8625 15.644V20.999C33.8625 24.604 33.985 24.9715 33.9325 26.354V26.3715ZM31.1325 13.3515C30.9241 12.7862 30.5956 12.2729 30.1696 11.8469C29.7436 11.4209 29.2303 11.0924 28.665 10.884C27.8888 10.615 27.0713 10.4847 26.25 10.499H15.75C14.9245 10.5071 14.1069 10.6611 13.335 10.954C12.7784 11.1529 12.2705 11.468 11.845 11.8784C11.4196 12.2887 11.0864 12.7849 10.8675 13.334C10.6143 14.1136 10.4901 14.9294 10.5 15.749V26.249C10.5183 27.0735 10.672 27.8894 10.955 28.664C11.1634 29.2293 11.4919 29.7426 11.9179 30.1686C12.3439 30.5946 12.8572 30.9232 13.4225 31.1315C14.1694 31.4053 14.955 31.5588 15.75 31.5865H26.25C27.0755 31.5784 27.8931 31.4244 28.665 31.1315C29.2303 30.9232 29.7436 30.5946 30.1696 30.1686C30.5956 29.7426 30.9241 29.2293 31.1325 28.664C31.4254 27.8921 31.5794 27.0745 31.5875 26.249V15.749C31.5872 14.9227 31.4329 14.1038 31.1325 13.334V13.3515ZM21 27.684C20.1229 27.684 19.2545 27.511 18.4444 27.1748C17.6343 26.8386 16.8985 26.346 16.2792 25.725C15.6598 25.104 15.169 24.3669 14.835 23.5559C14.501 22.745 14.3302 21.8761 14.3325 20.999C14.3325 19.6761 14.725 18.3829 15.4603 17.2832C16.1957 16.1835 17.2408 15.3267 18.4633 14.8212C19.6859 14.3158 21.0309 14.1844 22.3281 14.4438C23.6254 14.7031 24.8165 15.3416 25.7507 16.2782C26.6849 17.2149 27.3202 18.4077 27.5762 19.7056C27.8321 21.0035 27.6972 22.3482 27.1886 23.5694C26.6799 24.7906 25.8204 25.8335 24.7187 26.5659C23.6171 27.2984 22.3229 27.6875 21 27.684ZM28 15.6265C27.6131 15.5856 27.2551 15.4029 26.9949 15.1137C26.7347 14.8245 26.5908 14.4493 26.5908 14.0603C26.5908 13.6713 26.7347 13.296 26.9949 13.0068C27.2551 12.7176 27.6131 12.535 28 12.494C28.3868 12.535 28.7449 12.7176 29.005 13.0068C29.2652 13.296 29.4092 13.6713 29.4092 14.0603C29.4092 14.4493 29.2652 14.8245 29.005 15.1137C28.7449 15.4029 28.3868 15.5856 28 15.6265Z" fill="#4D4D4D"/>
</svg>
