<svg width="360" height="60" viewBox="0 0 360 60" fill="none" xmlns="http://www.w3.org/2000/svg">
<path d="M35.5147 11.3351H0V16.8511H18.4781C20.7034 16.8326 22.9388 16.8203 25.1843 16.8155C28.6532 16.8071 32.0938 16.8186 35.5147 16.8428V43.1351H12.0129L22.8161 29.2119L24.9257 26.479C22.6894 26.4398 20.2807 26.4007 18.1235 26.373L0.88062 48.7082H7.90711L7.96385 48.6515H35.5147V48.6647H41.0311V22.554L49.276 28.8551L54.5848 32.9671L59.8897 28.8582L68.1386 22.554V48.6647H73.655V11.3351L54.5848 25.9925L35.5147 11.3351Z" fill="white"/>
<path d="M88.6315 25.979L105.02 10.9297H96.8535L75.5814 30.4023C75.5801 32.9685 75.5735 35.5119 75.5625 37.8854L84.5262 29.732L98.5369 49.07H105.331L88.6315 25.979Z" fill="white"/>
<path d="M125.41 60H123.359V3.51355e-07H125.41V60Z" fill="white"/>
<path d="M193.847 44.1786L188.347 54.366C187.955 55.0922 187.497 55.6315 186.972 55.9834C186.447 56.3344 185.873 56.5103 185.251 56.5103C184.79 56.5103 184.293 56.4008 183.763 56.1822L184.127 55.1441C184.542 55.306 184.922 55.3865 185.268 55.3865C186.063 55.3865 186.715 54.9541 187.223 54.0893L187.569 53.5012L182.656 44.1786H184.023L188.243 52.3769L192.567 44.1786H193.847Z" fill="white"/>
<path d="M205.044 50.7339H202.276V56.2854H201.031V44.1785H202.276V49.6095H205.044L209.143 44.1785H210.526L206.03 50.0595L210.786 56.2854H209.316L205.044 50.7339Z" fill="white"/>
<path d="M225.193 50.5521C225.826 50.0274 226.144 49.2871 226.144 48.3295C226.144 47.3499 225.826 46.5973 225.193 46.0725C224.558 45.5478 223.642 45.2856 222.443 45.2856H219.225V51.3391H222.443C223.642 51.3391 224.558 51.0769 225.193 50.5521ZM226.109 45.2856C226.986 46.0237 227.424 47.0385 227.424 48.3295C227.424 49.6214 226.986 50.6331 226.109 51.365C225.233 52.0974 224.022 52.4629 222.477 52.4629H219.225V56.2858H217.945V44.1784H222.477C224.022 44.1784 225.233 44.5479 226.109 45.2856Z" fill="white"/>
<path d="M241.915 52.0135L239.009 45.5105L236.103 52.0135H241.915ZM242.382 53.0516H235.636L234.183 56.2855H232.852L238.386 44.1785H239.649L245.184 56.2855H243.835L242.382 53.0516Z" fill="white"/>
<path d="M254.271 42.5786C254.127 42.4348 254.055 42.2589 254.055 42.0508C254.055 41.8436 254.13 41.6677 254.28 41.5238C254.43 41.3796 254.602 41.3079 254.799 41.3079C255.006 41.3079 255.182 41.3796 255.326 41.5238C255.47 41.6677 255.543 41.8436 255.543 42.0508C255.543 42.2707 255.47 42.4489 255.326 42.5874C255.182 42.726 255.006 42.7946 254.799 42.7946C254.591 42.7946 254.415 42.7229 254.271 42.5786ZM252.619 44.1785H253.9V56.2854H252.619V44.1785ZM251.193 42.5874C251.049 42.4489 250.977 42.2707 250.977 42.0508C250.977 41.8436 251.049 41.6677 251.193 41.5238C251.337 41.3796 251.513 41.3079 251.72 41.3079C251.917 41.3079 252.089 41.3796 252.239 41.5238C252.389 41.6677 252.464 41.8436 252.464 42.0508C252.464 42.2589 252.392 42.4348 252.248 42.5786C252.104 42.7229 251.928 42.7946 251.72 42.7946C251.513 42.7946 251.337 42.726 251.193 42.5874Z" fill="white"/>
<path d="M273.227 44.1786V56.2856H271.964V50.6988H264.389V56.2856H263.109V44.1786H264.389V49.5749H271.964V44.1786H273.227Z" fill="white"/>
<path d="M289.774 52.0135L286.868 45.5105L283.962 52.0135H289.774ZM290.241 53.0516H283.495L282.043 56.2855H280.711L286.246 44.1785H287.508L293.043 56.2855H291.694L290.241 53.0516Z" fill="white"/>
<path d="M214.535 7.25389H229.011C230.257 7.25389 231.048 7.85871 231.409 8.21896C231.713 8.52291 232.419 9.3679 232.419 10.6616C232.419 12.0058 231.622 13.2207 230.391 13.756C229.993 13.9562 229.506 14.0688 229.011 14.0688L214.535 14.1145V7.25389ZM220.611 18.3228C223.448 18.3254 226.286 18.328 229.124 18.3302L229.998 18.2383C230.756 18.1587 231.486 17.9559 232.165 17.6366C234.878 16.3847 236.628 13.6474 236.628 10.6616C236.628 8.63772 235.835 6.70581 234.394 5.22213C232.963 3.79167 231.049 3.00035 229.011 3.00035H210.281V32.41H214.535V18.3228H220.611Z" fill="white"/>
<path d="M174.024 3.58987H167.842L150.222 19.7199V3.58987H146.047V32.459H150.222V25.3617L158.511 17.8219L169.117 32.459H174.259L161.62 14.9812L174.024 3.58987Z" fill="white"/>
<path d="M267.962 3.58987H261.78L244.16 19.7199V3.58987H239.984V32.459H244.16V25.3617L252.45 17.8219L263.055 32.459H268.197L255.557 14.9812L267.962 3.58987Z" fill="white"/>
<path d="M315.216 32.4588H329.65V28.2836H315.216C309.559 28.2836 304.956 23.6808 304.956 18.0245C304.956 12.3678 309.559 7.76542 315.216 7.76542H329.65V3.58974H315.216C307.257 3.58974 300.781 10.0655 300.781 18.0245C300.781 25.9835 307.257 32.4588 315.216 32.4588Z" fill="white"/>
<path d="M187.89 22.6368L192.56 13.4905L197.229 22.6368H187.89ZM202.243 32.459H206.916L204.612 27.9587L192.56 4.30694L178.203 32.459H182.876L185.985 26.369H199.134L202.243 32.459Z" fill="white"/>
<path d="M281.758 22.2782L286.427 13.132L291.096 22.2782H281.758ZM296.111 32.1005H300.783L298.479 27.6002L286.427 3.94841L272.07 32.1005H276.743L279.852 26.0105H293.002L296.111 32.1005Z" fill="white"/>
</svg>
