<svg width="100" height="100" viewBox="0 0 100 100" fill="none" xmlns="http://www.w3.org/2000/svg">
<g clip-path="url(#clip0_487_12451)">
<path d="M100 50C100 77.6146 77.6146 100 50 100C22.3854 100 0 77.6146 0 50C0 22.3854 22.3854 0 50 0C77.6146 0 100 22.3854 100 50Z" fill="#BE9360"/>
<path d="M56.9898 64.071L60.8747 60.1869L64.7588 56.3027L71.5367 63.0799L70.2581 66.4033L71.1049 66.9648L69.7713 67.6705L69.3784 68.6913L68.8474 68.1596L63.7677 70.8489L56.9898 64.071Z" fill="#F8E1AD"/>
<path d="M19.4844 44.6758C19.4844 58.9679 31.0704 70.5547 45.3633 70.5547C59.6554 70.5547 71.2422 58.9679 71.2422 44.6758C71.2422 30.3836 59.6554 18.7969 45.3633 18.7969C31.0704 18.7969 19.4844 30.3836 19.4844 44.6758Z" fill="#552914"/>
<path d="M26.8086 44.6758C26.8086 54.9236 35.1155 63.2305 45.3633 63.2305C55.6103 63.2305 63.918 54.9236 63.918 44.6758C63.918 34.428 55.6103 26.1211 45.3633 26.1211C35.1155 26.1211 26.8086 34.428 26.8086 44.6758Z" fill="#CD7F23"/>
<path d="M30.4707 44.6758C30.4707 52.9003 37.138 59.5684 45.3633 59.5684C53.5878 59.5684 60.2559 52.9003 60.2559 44.6758C60.2559 36.4505 53.5878 29.7832 45.3633 29.7832C37.138 29.7832 30.4707 36.4505 30.4707 44.6758Z" fill="#F8E1AD"/>
<path d="M67.6526 66.965L71.5367 63.0801L80.3776 71.9218C82.52 74.0634 82.52 77.5485 80.3776 79.69C78.2361 81.8324 74.7509 81.8324 72.6094 79.69L63.7677 70.8491L67.6526 66.965Z" fill="#552914"/>
<path d="M36.1271 38.0289L38.7165 35.4395L45.3633 42.0862L52.0092 35.4395L54.5986 38.0289L47.9527 44.6756L54.5986 51.3216L52.0092 53.911L45.3633 47.265L38.7165 53.911L36.1271 51.3216L42.7738 44.6756L36.1271 38.0289Z" fill="#E61A08"/>
</g>
<defs>
<clipPath id="clip0_487_12451">
<rect width="100" height="100" fill="white"/>
</clipPath>
</defs>
</svg>
