<svg width="80" height="80" viewBox="0 0 80 80" fill="none" xmlns="http://www.w3.org/2000/svg">
<rect width="80" height="80" rx="40" fill="#F8E1AD"/>
<path d="M40 46H40.015" stroke="#552914" stroke-width="2" stroke-linecap="round" stroke-linejoin="round"/>
<path d="M46 46H46.015" stroke="#552914" stroke-width="2" stroke-linecap="round" stroke-linejoin="round"/>
<path d="M26.5 50.5C26.5 51.2956 26.8161 52.0587 27.3787 52.6213C27.9413 53.1839 28.7044 53.5 29.5 53.5H50.5C51.2956 53.5 52.0587 53.1839 52.6213 52.6213C53.1839 52.0587 53.5 51.2956 53.5 50.5V34.75C53.5001 34.6155 53.4641 34.4833 53.3956 34.3675C53.3271 34.2517 53.2288 34.1564 53.1108 34.0917C52.9929 34.027 52.8597 33.9952 52.7252 33.9996C52.5907 34.0041 52.4599 34.0446 52.3465 34.117L45.6535 38.383C45.5401 38.4554 45.4093 38.4959 45.2748 38.5004C45.1403 38.5048 45.0071 38.473 44.8892 38.4083C44.7712 38.3436 44.6729 38.2483 44.6044 38.1325C44.5359 38.0167 44.4999 37.8845 44.5 37.75V34.75C44.5001 34.6155 44.4641 34.4833 44.3956 34.3675C44.3271 34.2517 44.2288 34.1564 44.1108 34.0917C43.9929 34.027 43.8597 33.9952 43.7252 33.9996C43.5907 34.0041 43.4599 34.0446 43.3465 34.117L36.655 38.383C36.5416 38.4558 36.4106 38.4966 36.2759 38.5013C36.1412 38.506 36.0077 38.4742 35.8895 38.4095C35.7713 38.3447 35.6728 38.2492 35.6042 38.1332C35.5357 38.0172 35.4997 37.8848 35.5 37.75V29.5C35.5 28.7044 35.1839 27.9413 34.6213 27.3787C34.0587 26.8161 33.2956 26.5 32.5 26.5H29.5C28.7044 26.5 27.9413 26.8161 27.3787 27.3787C26.8161 27.9413 26.5 28.7044 26.5 29.5V50.5Z" stroke="#552914" stroke-width="2" stroke-linecap="round" stroke-linejoin="round"/>
<path d="M34 46H34.015" stroke="#552914" stroke-width="2" stroke-linecap="round" stroke-linejoin="round"/>
</svg>
