<svg width="48" height="48" viewBox="0 0 48 48" fill="none" xmlns="http://www.w3.org/2000/svg">
<g clip-path="url(#clip0_466_7348)">
<path d="M46.2417 14.0589C43.4277 10.1855 37.8238 9.01949 32.1037 11.0401C29.7785 5.43614 25.1573 2.0533 20.4001 2.55415C14.594 3.16342 10.3988 9.24065 10.4083 16.8299C7.80594 16.3101 5.28709 16.7507 3.33191 18.224C1.15987 19.8608 -0.0233875 22.5113 -0.000152489 25.6876C0.0230825 28.7675 1.18655 31.9911 3.27684 34.7656C7.26981 40.0648 17.9949 45.1955 18.4493 45.4115C18.5663 45.4665 18.6928 45.4949 18.8185 45.4949C19.0138 45.4949 19.2074 45.4287 19.3649 45.2987C19.6231 45.087 23.7477 41.6775 27.251 37.6226C27.3147 37.6217 27.3784 37.6157 27.4421 37.6002C33.4969 36.1183 37.9494 34.362 40.6774 32.3801C43.9398 30.0101 46.3252 26.8278 47.3957 23.4191C48.4947 19.9193 48.0842 16.595 46.2417 14.0589ZM18.6937 43.6146C16.538 42.5407 7.929 38.0796 4.652 33.7303C2.78202 31.2485 1.74161 28.388 1.72096 25.6747C1.70116 23.0577 2.64175 20.8994 4.36802 19.5983C5.49707 18.7472 6.87654 18.3307 8.36271 18.3307C10.5967 18.3307 13.0725 19.2713 15.3022 21.0845C15.4838 21.2325 15.717 21.2987 15.9494 21.2712C16.1817 21.2428 16.3925 21.1206 16.5328 20.9339C19.4053 17.1053 23.5231 15.4616 26.7829 16.8454C30.985 18.6284 32.3946 24.8115 29.9265 30.6263C27.8009 35.6356 20.5267 42.0501 18.6937 43.6146ZM45.7538 22.9037C44.7934 25.9629 42.6317 28.8338 39.6654 30.9886C37.4572 32.5935 33.8059 34.109 29.0401 35.4084C30.0693 34.0289 30.9462 32.6297 31.5108 31.2992C34.3497 24.6102 32.5314 17.4159 27.455 15.2611C23.6625 13.6536 19.0284 15.243 15.6972 19.2188C14.5441 18.3797 13.3393 17.7472 12.1294 17.3109C11.9495 10.4953 15.6284 4.78556 20.58 4.26493C24.7683 3.83293 28.874 7.11164 30.8008 12.4402C30.8808 12.6605 31.0461 12.8386 31.2603 12.9333C31.4746 13.028 31.7173 13.0323 31.9342 12.9453C37.1853 10.8103 42.3744 11.6666 44.8485 15.0709C46.3639 17.1543 46.6849 19.9365 45.7538 22.9037Z" fill="#F8E1AD"/>
</g>
<defs>
<clipPath id="clip0_466_7348">
<rect width="48" height="48" fill="white"/>
</clipPath>
</defs>
</svg>
