<svg width="48" height="48" viewBox="0 0 48 48" fill="none" xmlns="http://www.w3.org/2000/svg">
<path d="M44 32.186C43.9994 31.7052 43.8405 31.2381 43.5483 30.8573C43.256 30.4765 42.8466 30.2033 42.3837 30.0801C42.5926 29.7511 42.7096 29.3717 42.7224 28.9817C42.7351 28.5917 42.6432 28.2054 42.4562 27.8633C42.2692 27.5212 41.994 27.2359 41.6595 27.0373C41.3249 26.8387 40.9433 26.734 40.5547 26.7343H38.6207V23.936C38.6215 23.378 38.7457 22.8271 38.9845 22.3232L40.2477 19.666C40.5561 19.0147 40.7167 18.3028 40.7177 17.5816V7.45927C40.7181 7.0518 40.6044 6.65243 40.3898 6.30662C40.1751 5.96082 39.8681 5.68247 39.5036 5.50327C39.1391 5.32408 38.7318 5.25124 38.3281 5.29304C37.9244 5.33484 37.5405 5.48961 37.2202 5.73972C37.0722 5.44704 36.8603 5.19178 36.6001 4.99306C36.34 4.79434 36.0384 4.65733 35.718 4.59229C35.3976 4.52726 35.0667 4.53589 34.7501 4.61753C34.4335 4.69918 34.1394 4.85172 33.8898 5.06373C33.6714 4.69512 33.3493 4.39952 32.9641 4.21405C32.5789 4.02857 32.1477 3.96148 31.7246 4.02121C31.3016 4.08093 30.9055 4.2648 30.5862 4.54973C30.2668 4.83466 30.0384 5.20797 29.9297 5.62277C29.6019 5.41298 29.2241 5.29553 28.8356 5.28274C28.4471 5.26994 28.0624 5.36226 27.7217 5.55003C27.381 5.73779 27.0968 6.0141 26.899 6.35C26.7011 6.6859 26.5969 7.06904 26.5972 7.45927V9.19365H23.8561C23.3004 9.1928 22.7518 9.06806 22.25 8.82844L19.6032 7.56015C18.9545 7.25049 18.2454 7.08936 17.5271 7.08841H7.44529C7.03951 7.08813 6.6418 7.20224 6.29744 7.41775C5.95307 7.63326 5.67589 7.94151 5.49744 8.30741C5.31898 8.67331 5.24643 9.08217 5.28804 9.48744C5.32965 9.8927 5.48374 10.2781 5.73278 10.5998C5.44127 10.7483 5.18702 10.9611 4.9891 11.2223C4.79118 11.4835 4.65472 11.7863 4.58995 12.108C4.52518 12.4297 4.53379 12.762 4.61512 13.0799C4.69645 13.3978 4.8484 13.693 5.05958 13.9436C4.69242 14.1629 4.39798 14.4862 4.21323 14.873C4.02848 15.2598 3.96164 15.6927 4.02111 16.1175C4.08059 16.5423 4.26372 16.94 4.54752 17.2606C4.83132 17.5812 5.20314 17.8105 5.6163 17.9197C5.40736 18.2488 5.29039 18.6282 5.27763 19.0182C5.26488 19.4082 5.35682 19.7945 5.54381 20.1366C5.73081 20.4787 6.00598 20.764 6.34052 20.9626C6.67505 21.1612 7.05663 21.2659 7.44529 21.2657H9.37927V24.0638C9.3786 24.6219 9.25438 25.1728 9.0156 25.6768L7.75232 28.3339C7.44383 28.9852 7.28327 29.6972 7.28224 30.4184V40.5407C7.28192 40.9482 7.39555 41.3475 7.61021 41.6933C7.82486 42.0391 8.13191 42.3175 8.49639 42.4967C8.86088 42.6759 9.26815 42.7487 9.67185 42.7069C10.0755 42.6651 10.4594 42.5103 10.7798 42.2602C10.9277 42.5529 11.1397 42.8082 11.3999 43.0069C11.6601 43.2056 11.9616 43.3426 12.2821 43.4076C12.6025 43.4726 12.9334 43.464 13.25 43.3824C13.5666 43.3007 13.8607 43.1482 14.1102 42.9361C14.3287 43.3048 14.6507 43.6004 15.0359 43.7859C15.4212 43.9714 15.8524 44.0385 16.2754 43.9788C16.6985 43.9191 17.0946 43.7352 17.4139 43.4502C17.7333 43.1653 17.9616 42.7919 18.0704 42.3771C18.3981 42.5869 18.776 42.7044 19.1644 42.7172C19.5529 42.73 19.9377 42.6377 20.2784 42.4499C20.6191 42.2622 20.9033 41.9859 21.1011 41.65C21.299 41.3141 21.4032 40.9309 21.4029 40.5407V38.8063H24.1439C24.6997 38.8071 25.2483 38.9318 25.7502 39.1715L28.3968 40.4398C29.0455 40.7496 29.7546 40.9108 30.473 40.9118H40.5547C40.9605 40.9121 41.3583 40.798 41.7027 40.5825C42.0471 40.367 42.3243 40.0587 42.5028 39.6928C42.6813 39.3268 42.7538 38.9179 42.7122 38.5126C42.6705 38.1073 42.5164 37.7219 42.2673 37.4002C42.5588 37.2517 42.813 37.0388 43.0109 36.7776C43.2089 36.5164 43.3453 36.2136 43.4101 35.8919C43.4749 35.5702 43.4663 35.238 43.385 34.9201C43.3036 34.6022 43.1517 34.3069 42.9405 34.0564C43.2633 33.8634 43.5306 33.5895 43.7163 33.2617C43.902 32.9338 43.9998 32.5632 44 32.186ZM27.6875 7.45927C27.6875 7.17206 27.8011 6.89661 28.0034 6.69352C28.2057 6.49043 28.48 6.37634 28.7661 6.37634C29.0521 6.37634 29.3265 6.49043 29.5288 6.69352C29.731 6.89661 29.8447 7.17206 29.8447 7.45927V10.0399C29.8447 10.1851 29.9021 10.3243 30.0043 10.427C30.1066 10.5297 30.2452 10.5873 30.3898 10.5874H30.3966C30.3966 10.5874 30.4009 10.5874 30.4032 10.5874C30.5478 10.5873 30.6864 10.5297 30.7887 10.427C30.8909 10.3243 30.9484 10.1851 30.9484 10.0399V6.17765C30.9484 5.89044 31.062 5.61499 31.2643 5.4119C31.4665 5.20881 31.7409 5.09471 32.0269 5.09471C32.313 5.09471 32.5874 5.20881 32.7896 5.4119C32.9919 5.61499 33.1055 5.89044 33.1055 6.17765V10.0399C33.1056 10.185 33.163 10.3243 33.2653 10.4269C33.3675 10.5296 33.5062 10.5873 33.6508 10.5873H33.6574C33.6574 10.5873 33.6618 10.5873 33.664 10.5873C33.8086 10.5873 33.9473 10.5296 34.0495 10.4269C34.1518 10.3243 34.2092 10.185 34.2092 10.0399V6.72696C34.2092 6.43975 34.3228 6.1643 34.5251 5.96121C34.7274 5.75812 35.0017 5.64403 35.2878 5.64403C35.5739 5.64403 35.8482 5.75812 36.0505 5.96121C36.2528 6.1643 36.3664 6.43975 36.3664 6.72696V10.0399C36.3664 10.185 36.4238 10.3243 36.5261 10.4269C36.6283 10.5296 36.767 10.5873 36.9116 10.5873H36.9183C36.9183 10.5873 36.9227 10.5873 36.9249 10.5873C37.0695 10.5873 37.2082 10.5296 37.3104 10.4269C37.4127 10.3243 37.4701 10.185 37.4702 10.0399V7.4592C37.4702 7.17198 37.5838 6.89653 37.7861 6.69344C37.9883 6.49035 38.2627 6.37626 38.5487 6.37626C38.8348 6.37626 39.1092 6.49035 39.3114 6.69344C39.5137 6.89653 39.6273 7.17198 39.6273 7.4592V17.5816C39.6265 18.1396 39.5023 18.6905 39.2636 19.1944L38.0004 21.8517C37.6919 22.5029 37.5313 23.2149 37.5303 23.936V26.7343H33.2147L34.0234 25.9409C34.4582 25.5051 34.7033 24.9142 34.7052 24.2975C34.7071 23.6807 34.4656 23.0883 34.0336 22.6498C33.6016 22.2114 33.0142 21.9626 32.3999 21.9578C31.7857 21.9531 31.1945 22.1928 30.7559 22.6245L29.3496 23.8106L23.3253 16.5772L23.2926 16.5412C23.0649 16.3089 22.9377 15.9957 22.9386 15.6698C22.9395 15.3439 23.0684 15.0314 23.2974 14.8003C23.5263 14.5693 23.8368 14.4382 24.1614 14.4356C24.4861 14.433 24.7986 14.559 25.0312 14.7864L26.6047 16.4031C26.6923 16.4932 26.8048 16.555 26.9276 16.5807C27.0504 16.6063 27.178 16.5947 27.2942 16.5472C27.4104 16.4997 27.5099 16.4185 27.5799 16.314C27.6499 16.2094 27.6873 16.0863 27.6873 15.9604L27.6875 7.45927ZM19.5137 23.4864L24.3235 19.4824L28.5147 24.5149L23.7194 28.5594L19.5137 23.4864ZM6.36716 19.0879C6.36747 18.8009 6.48114 18.5257 6.68325 18.3227C6.88536 18.1197 7.1594 18.0054 7.44529 18.005H10.0156C10.1602 18.005 10.2989 17.9473 10.4011 17.8446C10.5034 17.742 10.5608 17.6028 10.5608 17.4576C10.5608 17.4553 10.5608 17.4532 10.5604 17.4509C10.5601 17.4486 10.5608 17.4465 10.5608 17.4442C10.5608 17.2991 10.5034 17.1598 10.4011 17.0572C10.2989 16.9545 10.1602 16.8968 10.0156 16.8968H6.16903C6.02739 16.8968 5.88714 16.8688 5.75627 16.8144C5.62541 16.7599 5.50651 16.6802 5.40635 16.5796C5.3062 16.4791 5.22675 16.3597 5.17254 16.2283C5.11834 16.0969 5.09044 15.9561 5.09044 15.8139C5.09044 15.6717 5.11834 15.5308 5.17254 15.3994C5.22675 15.2681 5.3062 15.1487 5.40635 15.0481C5.50651 14.9476 5.62541 14.8678 5.75627 14.8134C5.88714 14.7589 6.02739 14.7309 6.16903 14.7309H10.0156C10.1602 14.7309 10.2989 14.6733 10.4011 14.5706C10.5034 14.468 10.5608 14.3288 10.5608 14.1836C10.5608 14.1813 10.5608 14.1791 10.5604 14.1769C10.5601 14.1747 10.5608 14.1725 10.5608 14.1702C10.5608 14.025 10.5034 13.8858 10.4011 13.7831C10.2989 13.6805 10.1602 13.6228 10.0156 13.6228H6.71607C6.43001 13.6228 6.15566 13.5087 5.95338 13.3056C5.75111 13.1025 5.63747 12.8271 5.63747 12.5399C5.63747 12.2527 5.75111 11.9772 5.95338 11.7741C6.15566 11.571 6.43001 11.4569 6.71607 11.4569H10.0156C10.1602 11.4569 10.2989 11.3993 10.4011 11.2966C10.5034 11.194 10.5608 11.0548 10.5608 10.9096C10.5608 10.9073 10.5608 10.9051 10.5604 10.9029C10.5601 10.9007 10.5608 10.8985 10.5608 10.8963C10.5608 10.7511 10.5034 10.6118 10.4011 10.5092C10.2989 10.4065 10.1602 10.3488 10.0156 10.3488H7.44529C7.15922 10.3488 6.88488 10.2347 6.6826 10.0316C6.48033 9.82856 6.36669 9.55311 6.36669 9.26589C6.36669 8.97868 6.48033 8.70323 6.6826 8.50014C6.88488 8.29705 7.15922 8.18296 7.44529 8.18296H17.5271C18.0829 8.18373 18.6316 8.30847 19.1335 8.54817L21.78 9.81646C22.4286 10.1263 23.1377 10.2877 23.8561 10.2887H26.5971V14.829L25.8069 14.0171C25.3726 13.582 24.7846 13.337 24.1711 13.3356C23.5576 13.3342 22.9685 13.5764 22.5322 14.0096C22.096 14.4427 21.8481 15.0315 21.8427 15.6474C21.8373 16.2633 22.0747 16.8564 22.5033 17.2972L23.624 18.6426L16.5285 24.5491L16.4909 24.5833C16.2599 24.814 15.9473 24.9436 15.6215 24.9436C15.2957 24.9435 14.9831 24.814 14.7521 24.5833C14.5211 24.3526 14.3905 24.0394 14.3888 23.7123C14.3871 23.3851 14.5145 23.0706 14.7431 22.8375L16.3537 21.2575C16.4434 21.1694 16.5049 21.0566 16.5304 20.9333C16.5559 20.81 16.5442 20.6818 16.4969 20.5652C16.4495 20.4486 16.3687 20.3488 16.2646 20.2785C16.1605 20.2083 16.0379 20.1707 15.9125 20.1707H7.44529C7.15943 20.1703 6.88543 20.056 6.68333 19.8531C6.48123 19.6501 6.36753 19.3749 6.36716 19.0879ZM19.2344 41.6236C18.9484 41.6233 18.6742 41.5091 18.472 41.3061C18.2698 41.1031 18.156 40.8278 18.1557 40.5407V37.96C18.1557 37.8148 18.0983 37.6756 17.996 37.573C17.8938 37.4703 17.7551 37.4126 17.6105 37.4126C17.6083 37.4126 17.6061 37.4126 17.6038 37.4126C17.6015 37.4126 17.5994 37.4126 17.5972 37.4126C17.4526 37.4126 17.3139 37.4703 17.2117 37.573C17.1094 37.6756 17.052 37.8148 17.052 37.96V41.8222C17.0532 41.9652 17.0262 42.107 16.9726 42.2395C16.9189 42.3719 16.8396 42.4924 16.7394 42.5939C16.6391 42.6955 16.5198 42.7761 16.3883 42.8311C16.2569 42.8861 16.1159 42.9144 15.9735 42.9144C15.831 42.9144 15.69 42.8861 15.5586 42.8311C15.4271 42.7761 15.3078 42.6955 15.2075 42.5939C15.1073 42.4924 15.028 42.3719 14.9743 42.2395C14.9207 42.107 14.8937 41.9652 14.8949 41.8222V37.9601C14.8949 37.8149 14.8374 37.6757 14.7352 37.573C14.6329 37.4704 14.4943 37.4127 14.3497 37.4127C14.3474 37.4127 14.3452 37.4127 14.343 37.4127C14.3408 37.4127 14.3386 37.4127 14.3364 37.4127C14.1918 37.4127 14.0531 37.4703 13.9508 37.573C13.8486 37.6757 13.7912 37.8149 13.7912 37.9601V41.273C13.7912 41.4152 13.7633 41.556 13.709 41.6874C13.6548 41.8188 13.5754 41.9382 13.4752 42.0387C13.3751 42.1393 13.2562 42.2191 13.1253 42.2735C12.9945 42.3279 12.8542 42.3559 12.7126 42.3559C12.5709 42.3559 12.4307 42.3279 12.2998 42.2735C12.1689 42.2191 12.05 42.1393 11.9499 42.0387C11.8497 41.9382 11.7703 41.8188 11.7161 41.6874C11.6619 41.556 11.634 41.4152 11.634 41.273V37.9601C11.634 37.8149 11.5765 37.6757 11.4743 37.573C11.372 37.4703 11.2333 37.4127 11.0887 37.4127C11.0865 37.4127 11.0844 37.4127 11.0821 37.4127C11.0798 37.4127 11.0777 37.4127 11.0754 37.4127C10.9308 37.4127 10.7922 37.4704 10.6899 37.573C10.5877 37.6757 10.5302 37.8149 10.5302 37.9601V40.5408C10.5302 40.828 10.4166 41.1034 10.2143 41.3065C10.012 41.5096 9.73768 41.6237 9.45162 41.6237C9.16555 41.6237 8.89121 41.5096 8.68893 41.3065C8.48666 41.1034 8.37302 40.828 8.37302 40.5408V30.4184C8.37383 29.8604 8.49807 29.3095 8.73677 28.8056L9.99998 26.1484C10.3086 25.4971 10.4691 24.7851 10.4701 24.0638V21.2657H14.7857L13.9765 22.059C13.5383 22.4939 13.2901 23.0857 13.2865 23.7043C13.2829 24.323 13.5242 24.9177 13.9573 25.3577C14.3905 25.7977 14.9799 26.0469 15.5961 26.0505C16.2122 26.0541 16.8046 25.8119 17.2428 25.377L18.6742 24.1851L24.6742 31.4218L24.7077 31.4587C24.8801 31.6318 24.9975 31.8524 25.0451 32.0925C25.0926 32.3326 25.0682 32.5814 24.9749 32.8076C24.8816 33.0337 24.7236 33.227 24.5208 33.363C24.3181 33.499 24.0797 33.5716 23.8359 33.5716C23.675 33.5722 23.5156 33.5409 23.3668 33.4794C23.2179 33.418 23.0827 33.3276 22.9687 33.2136L21.3951 31.5965C21.3075 31.5065 21.195 31.4447 21.0722 31.4191C20.9494 31.3935 20.8218 31.4052 20.7056 31.4527C20.5894 31.5002 20.49 31.5814 20.42 31.6859C20.35 31.7905 20.3127 31.9135 20.3126 32.0395V38.1363C20.2937 38.2169 20.2937 38.3009 20.3126 38.3816V40.5407C20.3123 40.8277 20.1986 41.1029 19.9965 41.306C19.7943 41.509 19.5203 41.6232 19.2344 41.6236ZM41.2843 36.5429H37.9844C37.8398 36.5429 37.7011 36.6006 37.5989 36.7033C37.4966 36.806 37.4392 36.9452 37.4391 37.0904V37.097C37.4391 37.097 37.4391 37.1014 37.4391 37.1037C37.4391 37.2489 37.4966 37.3881 37.5988 37.4908C37.7011 37.5934 37.8398 37.6511 37.9844 37.6511H40.5547C40.8407 37.6511 41.1151 37.7652 41.3174 37.9683C41.5196 38.1714 41.6333 38.4468 41.6333 38.7341C41.6333 39.0213 41.5196 39.2967 41.3174 39.4998C41.1151 39.7029 40.8407 39.817 40.5547 39.817H30.473C29.9171 39.8162 29.3684 39.6915 28.8665 39.4518L26.22 38.1835C25.5713 37.8737 24.8622 37.7125 24.1439 37.7115H21.4029V33.1712L22.1931 33.9831C22.6273 34.4184 23.2153 34.6636 23.8288 34.6651C24.4424 34.6667 25.0316 34.4245 25.4679 33.9914C25.9043 33.5583 26.1522 32.9695 26.1577 32.3535C26.1632 31.7375 25.9257 31.1443 25.4972 30.7035L24.4171 29.4008L31.4742 23.4485L31.5091 23.4165C31.7396 23.1838 32.0528 23.0526 32.3798 23.0517C32.7067 23.0509 33.0206 23.1805 33.2523 23.412C33.4841 23.6435 33.6148 23.958 33.6156 24.2862C33.6164 24.6145 33.4874 24.9296 33.2568 25.1623L31.6466 26.7421C31.5568 26.83 31.4952 26.9429 31.4696 27.0662C31.444 27.1896 31.4556 27.3178 31.5029 27.4345C31.5502 27.5511 31.6311 27.651 31.7352 27.7213C31.8394 27.7916 31.962 27.8291 32.0875 27.8291H40.5547C40.8407 27.8291 41.1151 27.9432 41.3174 28.1463C41.5196 28.3494 41.6333 28.6248 41.6333 28.912C41.6333 29.1992 41.5196 29.4747 41.3174 29.6778C41.1151 29.8809 40.8407 29.995 40.5547 29.995H37.9844C37.8398 29.995 37.7011 30.0526 37.5988 30.1553C37.4966 30.258 37.4391 30.3972 37.4391 30.5424V30.5491C37.4391 30.5491 37.4391 30.5534 37.4391 30.5557C37.4392 30.7009 37.4966 30.8401 37.5989 30.9428C37.7011 31.0454 37.8398 31.1031 37.9844 31.1031H41.8311C42.1172 31.1031 42.3915 31.2172 42.5938 31.4203C42.7961 31.6234 42.9097 31.8989 42.9097 32.1861C42.9097 32.4733 42.7961 32.7487 42.5938 32.9518C42.3915 33.1549 42.1172 33.269 41.8311 33.269H37.9844C37.8398 33.269 37.7011 33.3267 37.5989 33.4293C37.4966 33.532 37.4392 33.6712 37.4391 33.8164V33.823C37.4391 33.823 37.4391 33.8274 37.4391 33.8297C37.4391 33.9016 37.4532 33.9728 37.4805 34.0393C37.5079 34.1058 37.5481 34.1662 37.5987 34.217C37.6493 34.2679 37.7095 34.3083 37.7756 34.3358C37.8418 34.3633 37.9127 34.3775 37.9844 34.3775H41.284C41.4264 34.3763 41.5676 34.4034 41.6996 34.4573C41.8315 34.5112 41.9515 34.5907 42.0526 34.6914C42.1537 34.7921 42.234 34.9119 42.2888 35.0439C42.3436 35.1759 42.3718 35.3174 42.3718 35.4604C42.3718 35.6034 42.3436 35.745 42.2888 35.877C42.234 36.009 42.1537 36.1287 42.0526 36.2294C41.9515 36.3301 41.8315 36.4097 41.6996 36.4636C41.5676 36.5174 41.4264 36.5445 41.284 36.5433L41.2843 36.5429Z" fill="#4A2C21"/>
</svg>
