<svg width="48" height="48" viewBox="0 0 48 48" fill="none" xmlns="http://www.w3.org/2000/svg">
<path d="M10 32.4001C10 40.1188 16.2813 46.4001 24 46.4001C31.7187 46.4001 38 40.1188 38 32.4001C38 27.9948 35.9467 24.0561 32.7453 21.4894L36.3667 5.53876C36.46 5.13743 36.2733 4.72676 35.9187 4.52143L30.9907 1.73076C30.916 1.69343 30.804 1.64676 30.7293 1.6281C30.692 1.61876 30.6547 1.6281 30.6173 1.61876C30.5707 1.61876 30.5333 1.6001 30.496 1.6001H17.4667C17.4013 1.6001 17.3453 1.6281 17.2893 1.63743C17.2707 1.63743 17.252 1.63743 17.2333 1.63743C17.224 1.63743 17.2053 1.64676 17.196 1.6561C17.14 1.67476 17.084 1.69343 17.0373 1.72143C17.028 1.72143 17.0187 1.73076 17.0093 1.73076L12.0813 4.52143C11.7267 4.72676 11.54 5.13743 11.6333 5.53876L15.2547 21.4894C12.0533 24.0561 10 27.9948 10 32.4001ZM36.1333 32.4001C36.1333 39.0921 30.692 44.5334 24 44.5334C17.308 44.5334 11.8667 39.0921 11.8667 32.4001C11.8667 25.7081 17.308 20.2668 24 20.2668C30.692 20.2668 36.1333 25.7081 36.1333 32.4001ZM28.48 7.2001H19.52L18.6707 3.46676H29.32L28.48 7.2001ZM28.0507 9.06676L25.8947 18.5494C25.2787 18.4561 24.644 18.4001 24 18.4001C23.356 18.4001 22.7213 18.4561 22.096 18.5494L19.94 9.06676H28.0507ZM31.0933 20.3508C30.048 19.7348 28.928 19.2494 27.7333 18.9228L31.1307 3.9521L34.3973 5.8001L31.0933 20.3508ZM13.6027 5.8001L16.8693 3.9521L20.2667 18.9228C19.072 19.2494 17.952 19.7348 16.9067 20.3508L13.6027 5.8001Z" fill="#F8E1AD"/>
<path d="M30.5593 29.2984L27.2908 27.9571L24.9989 25.2615C24.504 24.6755 23.5143 24.6755 23.0195 25.2615L20.7276 27.9571L17.459 29.2984C17.1074 29.4416 16.834 29.7412 16.7168 30.1058C16.5996 30.4704 16.6517 30.8611 16.847 31.1866L18.6961 34.2078L18.9696 37.7368C18.9956 38.1144 19.191 38.466 19.5035 38.6874C19.816 38.9088 20.2067 38.9869 20.5713 38.8957L23.9962 38.0623L27.434 38.8957C27.5382 38.9218 27.6424 38.9348 27.7465 38.9348C28.02 38.9348 28.2935 38.8436 28.5149 38.6874C28.8274 38.466 29.0227 38.1144 29.0488 37.7368L29.3222 34.2078L31.1714 31.1866C31.3667 30.8611 31.4188 30.4704 31.3016 30.1058C31.1714 29.7281 30.9109 29.4416 30.5593 29.2984ZM26.9262 33.1009C26.822 33.2702 26.7569 33.4785 26.7308 33.6869L26.5485 36.0048L24.2957 35.4579C24.1915 35.4318 24.0873 35.4188 23.9831 35.4188C23.879 35.4188 23.7748 35.4318 23.6706 35.4579L21.4178 36.0048L21.2355 33.6869C21.2224 33.4785 21.1573 33.2832 21.0401 33.1009L19.816 31.1215L21.9647 30.236C22.16 30.1579 22.3293 30.0276 22.4595 29.8714L23.9962 28.1004L25.5067 29.8714C25.637 30.0276 25.8062 30.1579 26.0016 30.236L28.1502 31.1215L26.9262 33.1009Z" fill="#F8E1AD"/>
</svg>
