<svg width="36" height="36" viewBox="0 0 36 36" fill="none" xmlns="http://www.w3.org/2000/svg">
<path d="M26.535 26.535C23.9709 28.4895 20.8487 29.5723 17.625 29.625C7.125 29.625 1.125 17.625 1.125 17.625C2.99083 14.1478 5.5787 11.1099 8.715 8.715M14.475 5.985C15.5075 5.74332 16.5646 5.62251 17.625 5.625C28.125 5.625 34.125 17.625 34.125 17.625C33.2145 19.3284 32.1286 20.9321 30.885 22.41M20.805 20.805C20.393 21.2471 19.8962 21.6017 19.3442 21.8477C18.7922 22.0936 18.1964 22.2259 17.5921 22.2365C16.9879 22.2472 16.3877 22.1361 15.8274 21.9097C15.2671 21.6834 14.7581 21.3465 14.3308 20.9192C13.9035 20.4919 13.5666 19.9829 13.3403 19.4226C13.1139 18.8623 13.0028 18.2621 13.0135 17.6579C13.0241 17.0536 13.1564 16.4578 13.4023 15.9058C13.6483 15.3538 14.0029 14.857 14.445 14.445M1.125 1.125L34.125 34.125" stroke="#A3A3A3" stroke-width="2.25" stroke-linecap="round" stroke-linejoin="round"/>
</svg>
