<svg width="35" height="50" viewBox="0 0 35 50" fill="none" xmlns="http://www.w3.org/2000/svg">
<path d="M17.5 50C16.9167 50 16.4167 49.8333 16 49.5C15.5833 49.1667 15.2708 48.7292 15.0625 48.1875C14.2708 45.8542 13.2708 43.6667 12.0625 41.625C10.8958 39.5833 9.25 37.1875 7.125 34.4375C5 31.6875 3.27083 29.0625 1.9375 26.5625C0.645833 24.0625 0 21.0417 0 17.5C0 12.625 1.6875 8.5 5.0625 5.125C8.47917 1.70833 12.625 0 17.5 0C22.375 0 26.5 1.70833 29.875 5.125C33.2917 8.5 35 12.625 35 17.5C35 21.2917 34.2708 24.4583 32.8125 27C31.3958 29.5 29.75 31.9792 27.875 34.4375C25.625 37.4375 23.9167 39.9375 22.75 41.9375C21.625 43.8958 20.6875 45.9792 19.9375 48.1875C19.7292 48.7708 19.3958 49.2292 18.9375 49.5625C18.5208 49.8542 18.0417 50 17.5 50ZM17.5 23.75C19.25 23.75 20.7292 23.1458 21.9375 21.9375C23.1458 20.7292 23.75 19.25 23.75 17.5C23.75 15.75 23.1458 14.2708 21.9375 13.0625C20.7292 11.8542 19.25 11.25 17.5 11.25C15.75 11.25 14.2708 11.8542 13.0625 13.0625C11.8542 14.2708 11.25 15.75 11.25 17.5C11.25 19.25 11.8542 20.7292 13.0625 21.9375C14.2708 23.1458 15.75 23.75 17.5 23.75Z" fill="#0D0D0D"/>
</svg>
