<svg width="28" height="23" viewBox="0 0 28 23" fill="none" xmlns="http://www.w3.org/2000/svg">
<path d="M2.49197 20.5882C0.93392 18.7765 -0.000911713 16.8 -0.000911713 13.5059C-0.000911713 7.74117 3.89422 2.63529 9.3474 -5.72205e-06L10.7496 2.14117C5.60808 5.10588 4.51744 8.89411 4.20583 11.3647C4.98485 10.8706 6.07549 10.7059 7.16613 10.8706C9.97062 11.2 12.1519 13.5059 12.1519 16.6353C12.1519 18.1176 11.5287 19.6 10.5938 20.7529C9.50321 21.9059 8.25677 22.4 6.69871 22.4C4.98486 22.4 3.4268 21.5765 2.49197 20.5882ZM18.0725 20.5882C16.5144 18.7765 15.5796 16.8 15.5796 13.5059C15.5796 7.74117 19.4747 2.63529 24.9279 -5.72205e-06L26.3302 2.14117C21.1886 5.10588 20.098 8.89411 19.7864 11.3647C20.5654 10.8706 21.656 10.7059 22.7467 10.8706C25.5511 11.2 27.7324 13.6706 27.7324 16.6353C27.7324 18.1176 27.1092 19.6 26.1744 20.7529C25.0837 21.9059 23.8373 22.4 22.2792 22.4C20.5654 22.4 19.0073 21.5765 18.0725 20.5882Z" fill="#CBCBCB"/>
</svg>
