<svg width="28" height="28" viewBox="0 0 28 28" fill="none" xmlns="http://www.w3.org/2000/svg">
<path d="M13.9452 2.33325C10.8605 2.34765 7.90699 3.58316 5.73082 5.76953C3.55466 7.9559 2.33297 10.9151 2.33301 13.9999C2.33301 17.0941 3.56217 20.0616 5.7501 22.2495C7.93802 24.4374 10.9055 25.6666 13.9997 25.6666C17.0939 25.6666 20.0613 24.4374 22.2493 22.2495C24.4372 20.0616 25.6663 17.0941 25.6663 13.9999C25.6663 10.9057 24.4372 7.93826 22.2493 5.75034C20.0613 3.56242 17.0939 2.33325 13.9997 2.33325L13.9452 2.33325ZM18.7694 9.35659C18.8666 9.35464 19.0815 9.37895 19.2215 9.4927C19.315 9.57312 19.3744 9.68607 19.3877 9.80867C19.4033 9.89909 19.4227 10.1062 19.4072 10.2676C19.2322 12.1128 18.4719 16.5889 18.085 18.6549C17.9216 19.5299 17.5998 19.8226 17.2877 19.8508C16.6111 19.9139 16.0968 19.4035 15.4405 18.9738C14.4138 18.3001 13.8334 17.881 12.8369 17.2238C11.6848 16.4655 12.4315 16.0474 13.0877 15.3669C13.2598 15.188 16.2445 12.4726 16.3029 12.2266C16.3097 12.1955 16.3165 12.0808 16.2484 12.0205C16.1804 11.9602 16.0793 11.9806 16.0063 11.9971C15.9033 12.0211 14.2631 13.1052 11.0859 15.2492C10.6193 15.5701 10.1973 15.7256 9.82009 15.7159C9.40398 15.7081 8.60287 15.4816 8.0069 15.2881C7.27579 15.0499 6.69537 14.9245 6.74592 14.521C6.77185 14.311 7.06125 14.0962 7.61412 13.8764C11.015 12.3948 13.2828 11.418 14.4177 10.9462C17.6572 9.59867 18.3309 9.36436 18.7694 9.35659Z" fill="#4D4D4D"/>
</svg>
