<svg width="42" height="42" viewBox="0 0 42 42" fill="none" xmlns="http://www.w3.org/2000/svg">
<path d="M20.9183 3.49902C16.2912 3.52062 11.861 5.37389 8.59672 8.65344C5.33248 11.933 3.49995 16.3718 3.5 20.999C3.5 25.6403 5.34374 30.0915 8.62563 33.3734C11.9075 36.6553 16.3587 38.499 21 38.499C25.6413 38.499 30.0925 36.6553 33.3744 33.3734C36.6562 30.0915 38.5 25.6403 38.5 20.999C38.5 16.3577 36.6562 11.9065 33.3744 8.62465C30.0925 5.34277 25.6413 3.49902 21 3.49902L20.9183 3.49902ZM28.1546 14.034C28.3004 14.0311 28.6227 14.0676 28.8327 14.2382C28.9729 14.3588 29.0621 14.5282 29.0821 14.7121C29.1054 14.8478 29.1346 15.1584 29.1112 15.4005C28.8487 18.1684 27.7083 24.8826 27.1279 27.9815C26.8829 29.294 26.4002 29.733 25.9321 29.7753C24.9171 29.8701 24.1456 29.1044 23.1612 28.4598C21.6212 27.4492 20.7506 26.8207 19.2558 25.8349C17.5277 24.6974 18.6477 24.0703 19.6321 23.0494C19.8902 22.7811 24.3673 18.708 24.4548 18.339C24.465 18.2924 24.4752 18.1203 24.3731 18.0299C24.271 17.9394 24.1194 17.9701 24.01 17.9949C23.8554 18.0308 21.3952 19.6569 16.6294 22.873C15.9294 23.3542 15.2965 23.5876 14.7306 23.573C14.1065 23.5613 12.9048 23.2215 12.0108 22.9313C10.9142 22.574 10.0435 22.3859 10.1194 21.7807C10.1583 21.4657 10.5924 21.1434 11.4217 20.8138C16.5229 18.5913 19.9247 17.1262 21.6271 16.4184C26.4862 14.3971 27.4969 14.0457 28.1546 14.034Z" fill="#4D4D4D"/>
</svg>
