<svg width="32" height="32" viewBox="0 0 32 32" fill="none" xmlns="http://www.w3.org/2000/svg">
<path d="M17.2891 15.9775V14.6885C17.2891 13.9765 17.8662 13.3994 18.5781 13.3994C19.29 13.3994 19.8672 13.9765 19.8672 14.6885V15.9775" stroke="white" stroke-miterlimit="10" stroke-linecap="round" stroke-linejoin="round"/>
<path d="M19.8672 15.9776C19.8672 15.2657 20.4443 14.6885 21.1562 14.6885C21.8682 14.6885 22.4453 15.2657 22.4453 15.9776V18.2514C22.4453 20.147 22.004 22.0165 21.1562 23.712V26.3555H13.4219V23.712C13.4219 23.7045 13.0807 23.3586 12.6466 22.9214C11.4923 21.759 10.8437 20.1855 10.8437 18.5473C10.8437 17.5939 11.3637 16.7616 12.1328 16.3155C12.1353 14.2667 12.1353 9.51172 12.1353 9.51172C12.1353 8.79977 12.71 8.22265 13.4219 8.22265C14.1338 8.22265 14.7109 8.79977 14.7109 9.51172V15.957V13.3789C14.7109 12.667 15.2881 12.0898 16 12.0898C16.7119 12.0898 17.2891 12.667 17.2891 13.3789V15.957" stroke="white" stroke-miterlimit="10" stroke-linecap="round" stroke-linejoin="round"/>
<path d="M17.2891 9.51172C17.2891 7.37591 15.5577 5.64453 13.4219 5.64453C11.2861 5.64453 9.55469 7.37591 9.55469 9.51172" stroke="white" stroke-miterlimit="10" stroke-linecap="round" stroke-linejoin="round"/>
</svg>
