<svg width="180" height="180" viewBox="0 0 180 180" fill="none" xmlns="http://www.w3.org/2000/svg">
<path d="M113.777 99.5164L36.6826 144.347C36.0034 144.686 34.9845 144.686 33.626 144.007C31.2487 142.648 29.2109 139.252 29.2109 136.535L106.305 91.7051C106.305 94.4221 108.343 97.4787 110.381 98.8371C111.739 99.856 112.758 99.856 113.777 99.5164Z" fill="#DDB040"/>
<path d="M29.5506 78.1231L106.645 33.293L106.305 91.708L29.2109 136.538L29.5506 78.1231Z" fill="#DDB040"/>
<path d="M24.4531 75.0628L101.547 30.5723L106.642 33.2892L29.5475 78.1194L24.4531 75.0628Z" fill="#FFE2A9"/>
<path d="M32.6022 73.0257L27.5078 69.9691L98.4889 28.5352L103.583 31.5918L32.6022 73.0257Z" fill="#FFE2A9"/>
<path d="M27.5078 70.3073L87.2814 35.3262L92.3757 38.3828L32.6021 73.0243L27.5078 70.3073Z" fill="#EFC348"/>
<path d="M106.641 33.2902L29.5469 78.1204C29.5469 76.0827 30.9054 73.7053 32.6035 73.0261L103.585 31.5921C105.283 30.5733 106.641 31.2525 106.641 33.2902Z" fill="#DDB040"/>
<path d="M37.6959 140.613L32.6016 137.556V72.3486L37.6959 75.0656V140.613Z" fill="#C4C2C0"/>
<path d="M37.6959 140.612L32.6016 137.556V113.782L37.6959 116.839V140.612Z" fill="#E9E8E6"/>
<path d="M37.6959 54.3473L32.6016 51.6303L106.639 8.83789L111.734 11.8945L37.6959 54.3473Z" fill="#D9DDDD"/>
<path d="M37.6959 54.3471L32.6016 51.6301L93.7337 15.9697L98.828 19.0263L37.6959 54.3471Z" fill="#D9DDDD"/>
<path d="M31.9225 57.7439L26.8281 54.6873L66.2244 31.9326L71.3187 34.9892L31.9225 57.7439Z" fill="#D9DDDD"/>
<path d="M100.87 28.535L105.964 31.252C105.285 30.9124 104.605 30.9124 103.926 31.5916L98.4922 28.535C99.5111 28.1954 100.19 28.1954 100.87 28.535Z" fill="#FFE2A9"/>
<path d="M111.827 11.7441V97.6686L32.3552 143.518L32.0156 57.5932L111.827 11.7441Z" fill="#F9FAFA"/>
<path d="M117.172 105.63L40.0781 150.12C41.7762 149.102 42.7951 147.064 42.7951 144.347L119.889 99.5166C119.889 102.573 118.871 104.611 117.172 105.63Z" fill="#FFD651"/>
<path d="M42.7891 87.2911L119.883 42.4609V99.5175L42.7891 144.348V87.2911Z" fill="#FFD651"/>
<path d="M38.0391 84.2316L115.133 39.4014L119.888 42.458L42.7938 87.2882L38.0391 84.2316Z" fill="#FFE2A9"/>
<path d="M38.0391 84.2304L99.8504 48.2305L104.605 51.2871L42.7938 87.2871L38.0391 84.2304Z" fill="#E8A658"/>
<path d="M38.0391 84.2314L74.0391 63.1748L78.7938 66.2314L42.7938 87.288L38.0391 84.2314Z" fill="#EFC248"/>
<path d="M29.5475 78.1169V136.532C29.5475 139.249 31.5852 142.306 33.6229 143.664C35.6607 145.023 37.6984 144.004 37.6984 141.287V83.8905L42.7928 86.6075V144.004C42.7928 149.777 38.7173 152.155 33.6229 149.098C28.5286 146.041 24.4531 138.909 24.4531 133.136V74.7207L29.5475 78.1169Z" fill="#E8A658"/>
<path d="M29.5475 85.2485L24.4531 82.5315V75.3994L29.5475 78.1164V85.2485Z" fill="#E8A658"/>
<path d="M29.5475 78.118L24.4531 75.401C24.4531 73.3632 25.8116 70.9859 27.5097 70.3066L31.5852 73.3632C30.2267 74.0425 29.5475 76.4198 29.5475 78.118Z" fill="#E8A658"/>
<path d="M114.112 30.2286L119.206 32.9455C118.527 32.6059 117.848 32.6059 117.168 33.2852L111.734 30.5682C112.753 30.2286 113.432 29.8889 114.112 30.2286Z" fill="#FFE2A9"/>
<path d="M87.6219 61.1301L82.8672 58.0735V50.9414L87.6219 53.6584V61.1301Z" fill="#E8A658"/>
<path d="M90.6725 48.5674L85.5781 45.8504L111.729 30.5674L116.823 33.2844L90.6725 48.5674Z" fill="#FFD651"/>
<path d="M87.6219 53.6609L82.8672 50.9439C82.8672 48.9062 84.2257 46.5289 85.9238 45.8496L91.0181 48.5666C88.9804 49.5855 87.6219 51.9628 87.6219 53.6609Z" fill="#E8A658"/>
<path d="M116.833 33.2865C118.531 32.2676 119.889 32.9468 119.889 34.9846V42.1166L87.625 61.1355V54.0034C87.625 51.9657 88.9835 49.5883 90.6816 48.9091L116.833 33.2865Z" fill="#EFC248"/>
<path d="M32.2621 143.661L27.1677 140.944L26.8281 54.6797L31.9225 57.7363L32.2621 143.661Z" fill="#CCCECE"/>
<path d="M149.422 119.892L72.3274 164.723C71.6481 165.062 70.6293 165.062 69.2708 164.383C66.8934 163.024 65.1953 159.628 65.1953 157.251L141.95 112.081C141.95 114.798 143.988 117.855 146.025 119.213C147.384 120.232 148.403 120.232 149.422 119.892Z" fill="#DDB040"/>
<path d="M65.199 98.4942L142.293 53.6641L141.954 112.079L64.8594 156.909L65.199 98.4942Z" fill="#DDB040"/>
<path d="M60.1016 95.4337L137.196 50.6035L142.29 53.6601L65.1959 98.4903L60.1016 95.4337Z" fill="#FFE2A9"/>
<path d="M68.2506 93.3988L63.1562 90.3422L134.137 48.9082L139.232 51.9648L68.2506 93.3988Z" fill="#FFE2A9"/>
<path d="M63.1562 90.6813L122.93 55.7002L128.024 58.7568L68.2506 93.3983L63.1562 90.6813Z" fill="#EFC348"/>
<path d="M142.29 53.6604L65.1953 98.4906C65.1953 96.4528 66.5538 94.0755 68.2519 93.3962L139.233 51.9622C140.931 50.9434 142.29 51.6226 142.29 53.6604Z" fill="#DDB040"/>
<path d="M73.3443 160.988L68.25 157.931V92.7236L73.3443 95.4406V160.988Z" fill="#C4C2C0"/>
<path d="M73.3443 160.985L68.25 157.929V134.155L73.3443 136.872V160.985Z" fill="#E9E8E6"/>
<path d="M73.3443 74.7174L68.25 72.0005L142.288 29.208L147.382 31.925L73.3443 74.7174Z" fill="#D9DDDD"/>
<path d="M73.3443 74.7192L68.25 72.0022L129.382 36.3418L134.816 39.3984L73.3443 74.7192Z" fill="#D9DDDD"/>
<path d="M67.5709 78.118L62.4766 75.0614L101.873 52.3066L106.967 55.3632L67.5709 78.118Z" fill="#D9DDDD"/>
<path d="M136.522 48.9057L141.616 51.6227C140.937 51.2831 140.258 51.2831 139.579 51.9623L134.484 49.2453C135.164 48.5661 135.843 48.5661 136.522 48.9057Z" fill="#FFE2A9"/>
<path d="M147.475 31.7734V118.038L68.0037 163.887L67.6641 77.9621L147.475 31.7734Z" fill="#F9FAFA"/>
<path d="M152.821 125.663L75.7266 170.493C77.4247 169.475 78.4435 167.437 78.4435 164.72L155.538 119.89C155.538 122.946 154.519 124.984 152.821 125.663Z" fill="#FFD651"/>
<path d="M78.4453 107.323L155.54 62.832V119.889L78.4453 164.719V107.323Z" fill="#FFD651"/>
<path d="M73.6875 104.601L150.782 59.7705L155.537 62.8271L78.4422 107.318L73.6875 104.601Z" fill="#FFE2A9"/>
<path d="M73.6875 104.604L135.499 68.6035L140.254 71.6601L78.4422 107.321L73.6875 104.604Z" fill="#E8A658"/>
<path d="M73.6875 104.605L109.687 83.5488L114.442 86.6054L78.4422 107.322L73.6875 104.605Z" fill="#EFC248"/>
<path d="M65.1959 98.4929V156.908C65.1959 159.625 67.2336 162.682 69.2714 164.04C71.6487 165.399 73.3468 164.38 73.3468 161.663V104.266L78.4412 106.983V164.38C78.4412 170.153 74.3657 172.531 69.2714 169.474C64.177 166.417 60.1016 159.285 60.1016 153.512V95.0967L65.1959 98.4929Z" fill="#E8A658"/>
<path d="M65.1959 105.622L60.1016 102.905V95.7725L65.1959 98.4894V105.622Z" fill="#E8A658"/>
<path d="M65.1959 98.4891L60.1016 95.7721C60.1016 93.7343 61.4601 91.357 63.1582 90.6777L67.2336 93.7343C65.8751 94.4136 65.1959 96.7909 65.1959 98.4891Z" fill="#E8A658"/>
<path d="M149.764 50.6006L154.859 53.3176C154.179 52.978 153.5 52.978 152.821 53.6572L147.727 50.9403C148.406 50.6006 149.085 50.261 149.764 50.6006Z" fill="#FFE2A9"/>
<path d="M123.278 81.5051L118.523 78.4485V71.3164L123.278 74.0334V81.5051Z" fill="#E8A658"/>
<path d="M126.333 68.9404L121.578 65.8838L147.729 50.9404L152.484 53.6574L126.333 68.9404Z" fill="#FFD651"/>
<path d="M123.278 74.0369L118.523 71.3199C118.523 69.2822 119.882 66.9048 121.58 66.2256L126.674 68.9426C124.637 69.9614 123.278 72.3388 123.278 74.0369Z" fill="#E8A658"/>
<path d="M152.489 53.6605C154.187 52.6416 155.545 53.3209 155.545 55.3586V62.4907L123.281 81.5095V74.3775C123.281 72.3397 124.64 69.9624 126.338 69.2831L152.489 53.6605Z" fill="#EFC248"/>
<path d="M67.9183 164.037L62.824 161.32L62.4844 75.0557L67.5787 78.1123L67.9183 164.037Z" fill="#CCCECE"/>
</svg>
