<svg width="180" height="180" viewBox="0 0 180 180" fill="none" xmlns="http://www.w3.org/2000/svg">
<path d="M130.35 11.494L130.034 122.901C130.029 125.725 129.269 127.942 127.975 129.379C127.555 129.848 127.082 130.238 126.558 130.539L51.9691 173.885C50.8779 174.531 49.5695 174.808 48.1081 174.675C46.6811 174.541 45.1061 174.018 43.4718 173.07C41.0178 171.658 38.7073 169.456 36.8211 166.888C34.9201 164.316 33.4242 161.364 32.5257 158.381C31.9232 156.392 31.5975 154.392 31.6023 152.511L31.6517 134.47C31.6517 133.605 31.4345 132.712 31.0493 131.833C30.6691 130.954 30.1211 130.115 29.4842 129.438C29.0644 128.989 28.6054 128.609 28.1018 128.323L20.9821 124.21C19.1453 123.148 17.659 120.576 17.6641 118.463C17.6691 117.401 18.0443 116.66 18.6516 116.32L48.9473 98.713L49.0806 51.0128C49.0857 49.9513 49.4608 49.2107 50.0681 48.87L124.662 5.51974C125.27 5.16917 126.109 5.21856 127.032 5.75181C128.874 6.81333 130.355 9.38078 130.35 11.494Z" fill="#EDEEF2"/>
<path d="M121.845 122.43L47.2301 165.791C46.9883 165.934 46.7217 166.033 46.4353 166.092C45.5859 166.255 44.5936 166.057 43.4926 165.425C42.7568 165.001 42.0755 164.438 41.4535 163.771C40.5152 162.774 39.7105 161.535 39.1427 160.241C38.5798 158.947 38.2539 157.619 38.2589 156.355L38.3084 138.309C38.3132 136.7 38.0318 134.976 37.5183 133.273C36.7432 130.715 35.4595 128.183 33.8351 125.98C32.2157 123.778 30.2407 121.892 28.1274 120.673L21.0029 116.56C20.0796 116.027 19.2401 115.977 18.6328 116.328L90.6693 74.4687C91.2717 74.1132 92.111 74.1625 93.0394 74.7007L100.159 78.8086C102.272 80.0331 106.83 80.418 108.45 82.6151C110.074 84.8172 111.363 87.3501 112.133 89.9126C112.647 91.616 112.928 93.3342 112.923 94.9487L112.874 112.99C112.869 114.254 113.195 115.587 113.758 116.881C114.325 118.174 115.13 119.414 116.068 120.406C116.695 121.073 117.377 121.635 118.107 122.06C119.209 122.692 120.201 122.894 121.05 122.727C121.336 122.672 121.603 122.569 121.845 122.43Z" fill="#D9DDDD"/>
<path d="M130.443 11.3436L130.127 122.751C130.123 125.575 129.362 127.792 128.069 129.229C127.649 129.698 127.175 130.088 126.651 130.389L52.0317 173.754C52.5599 173.448 53.0339 173.058 53.4536 172.589C54.7473 171.152 55.5076 168.935 55.5127 166.111L55.8285 54.704C55.8336 52.5957 54.3473 50.0233 52.5107 48.9618C51.5874 48.4286 50.7479 48.3792 50.1406 48.7297L124.756 5.36933C125.363 5.0188 126.202 5.06816 127.125 5.60141C128.967 6.66296 130.449 9.23038 130.443 11.3436Z" fill="#F9FAFA"/>
<path d="M130.356 11.496L130.04 122.903C130.035 125.727 129.275 127.944 127.981 129.381C127.561 129.85 127.087 130.24 126.564 130.541L51.9453 173.906C52.4735 173.6 52.9475 173.21 53.3672 172.741C54.6609 171.304 55.4213 169.088 55.4261 166.263L55.5939 106.57C58.7933 107.563 62.1706 108.091 65.6663 108.091C85.6083 108.091 101.768 90.8348 101.768 69.5498C101.768 52.6096 91.5283 38.2171 77.2986 33.0526L124.668 5.52169C125.275 5.17113 126.115 5.22052 127.038 5.75376C128.88 6.81528 130.361 9.38273 130.356 11.496Z" fill="#F9FAFA"/>
<path d="M52.4197 49.1104C54.2575 50.1715 55.7406 52.7402 55.7346 54.852L55.4188 166.259C55.4138 169.083 54.6529 171.3 53.3606 172.738C52.0714 174.177 50.2571 174.864 48.1105 174.67C46.6837 174.539 45.1064 174.013 43.4704 173.068C41.0177 171.652 38.7096 169.453 36.8191 166.885C34.9225 164.313 33.4248 161.362 32.5238 158.378C31.9231 156.388 31.5973 154.389 31.6027 152.509L31.6538 134.467C31.653 133.603 31.4346 132.707 31.0518 131.83C30.6692 130.952 30.1222 130.11 29.4862 129.434C29.0643 128.988 28.6044 128.606 28.1033 128.317L20.9821 124.205C19.1442 123.144 17.6581 120.57 17.6641 118.458C17.6701 116.346 19.1659 115.498 21.0038 116.559L28.125 120.67C30.2402 121.891 32.2153 123.779 33.8345 125.976C35.4575 128.18 36.7449 130.712 37.5176 133.273C38.0304 134.977 38.313 136.697 38.3084 138.309L38.2573 156.351C38.2537 157.615 38.5783 158.946 39.1429 160.24C39.7076 161.535 40.5125 162.773 41.4507 163.768C42.0771 164.434 42.7575 164.998 43.492 165.422C44.5921 166.053 45.5861 166.253 46.4329 166.089C47.2732 165.921 47.9473 165.378 48.3475 164.532C48.6112 163.962 48.7617 163.261 48.7641 162.417L49.08 51.01C49.0859 48.8982 50.5818 48.0493 52.4197 49.1104Z" fill="#CCCECE"/>
<path d="M63.2694 57.9838C62.9363 57.9838 62.6126 57.8108 62.4338 57.5017C62.168 57.0409 62.3256 56.4516 62.7867 56.1855L71.2043 51.3258C71.6663 51.059 72.254 51.2178 72.5207 51.6784C72.7866 52.1393 72.6289 52.7286 72.1679 52.9946L63.7503 57.8544C63.5983 57.9421 63.4327 57.9838 63.2694 57.9838Z" fill="#B5B7C6"/>
<path d="M78.4804 49.2036C78.1473 49.2036 77.8236 49.0307 77.6448 48.7216C77.3789 48.2608 77.5366 47.6715 77.9976 47.4054L103.633 32.6051C104.094 32.3383 104.683 32.4971 104.95 32.9577C105.216 33.4186 105.058 34.0079 104.597 34.2739L78.9612 49.0742C78.8092 49.162 78.6436 49.2036 78.4804 49.2036Z" fill="#B5B7C6"/>
<path d="M109.683 31.1913C109.35 31.1913 109.027 31.0184 108.848 30.7093C108.582 30.2485 108.74 29.6592 109.201 29.3931L120.2 23.0429C120.661 22.7756 121.25 22.9347 121.517 23.3955C121.783 23.8563 121.625 24.4456 121.164 24.7117L110.164 31.0619C110.012 31.1497 109.847 31.1913 109.683 31.1913Z" fill="#B5B7C6"/>
<path d="M63.2694 69.5643C62.9363 69.5643 62.6126 69.3914 62.4338 69.0823C62.168 68.6215 62.3256 68.0322 62.7867 67.7661L90.8159 51.584C91.2765 51.3165 91.8655 51.4758 92.1323 51.9366C92.3982 52.3975 92.2405 52.9868 91.7795 53.2528L63.7503 69.435C63.5983 69.5227 63.4327 69.5643 63.2694 69.5643Z" fill="#B5B7C6"/>
<path d="M98.5351 49.2035C98.2019 49.2035 97.8782 49.0306 97.6995 48.7214C97.4336 48.2606 97.5912 47.6713 98.0523 47.4052L120.193 34.6229C120.654 34.3557 121.242 34.5149 121.509 34.9755C121.775 35.4364 121.617 36.0257 121.156 36.2917L99.0159 49.0741C98.8639 49.1618 98.6983 49.2035 98.5351 49.2035Z" fill="#B5B7C6"/>
<path d="M63.2694 81.1442C62.9363 81.1442 62.6126 80.9713 62.4338 80.6622C62.168 80.2013 62.3256 79.612 62.7867 79.346L74.8294 72.3932C75.2915 72.1265 75.8786 72.285 76.1459 72.7459C76.4117 73.2067 76.2541 73.796 75.793 74.0621L63.7503 81.0148C63.5983 81.1025 63.4327 81.1442 63.2694 81.1442Z" fill="#B5B7C6"/>
<path d="M81.0194 70.8949C80.6863 70.8949 80.3626 70.7219 80.1838 70.4128C79.918 69.952 80.0756 69.3627 80.5367 69.0966L120.196 46.2001C120.658 45.9329 121.246 46.0919 121.513 46.5527C121.779 47.0136 121.621 47.6029 121.16 47.8689L81.5003 70.7655C81.3483 70.8532 81.1827 70.8949 81.0194 70.8949Z" fill="#B5B7C6"/>
<path d="M63.2694 104.3C62.9363 104.3 62.6126 104.128 62.4338 103.818C62.168 103.358 62.3256 102.768 62.7867 102.502L74.8294 95.5495C75.2915 95.2827 75.8786 95.4413 76.1459 95.9021C76.4117 96.363 76.2541 96.9523 75.793 97.2183L63.7503 104.171C63.5983 104.259 63.4327 104.3 63.2694 104.3Z" fill="#B5B7C6"/>
<path d="M81.0194 94.055C80.6863 94.055 80.3626 93.8821 80.1838 93.573C79.918 93.1121 80.0756 92.5229 80.5367 92.2568L120.196 69.3602C120.658 69.093 121.246 69.252 121.513 69.7129C121.779 70.1737 121.621 70.763 121.16 71.0291L81.5003 93.9256C81.3483 94.0134 81.1827 94.055 81.0194 94.055Z" fill="#B5B7C6"/>
<path d="M107.238 67.3409C106.905 67.3409 106.581 67.168 106.403 66.8589C106.137 66.3981 106.294 65.8088 106.755 65.5427L120.196 57.7831C120.657 57.5159 121.246 57.6749 121.512 58.1357C121.778 58.5966 121.621 59.1859 121.16 59.4519L107.719 67.2115C107.567 67.2993 107.401 67.3409 107.238 67.3409Z" fill="#B5B7C6"/>
<path d="M63.2694 92.7207C62.9363 92.7207 62.6126 92.5478 62.4338 92.2387C62.168 91.7779 62.3256 91.1886 62.7867 90.9225L101.011 68.8543C101.473 68.5873 102.06 68.7461 102.327 69.2069C102.593 69.6678 102.436 70.2571 101.975 70.5231L63.7503 92.5914C63.5983 92.6791 63.4327 92.7207 63.2694 92.7207Z" fill="#B5B7C6"/>
<path d="M107.238 90.4962C106.905 90.4962 106.581 90.3233 106.403 90.0142C106.137 89.5533 106.294 88.964 106.755 88.698L120.196 80.9384C120.657 80.6711 121.246 80.8302 121.512 81.291C121.778 81.7519 121.621 82.3411 121.16 82.6072L107.719 90.3668C107.567 90.4546 107.401 90.4962 107.238 90.4962Z" fill="#B5B7C6"/>
<path d="M63.2694 115.883C62.9363 115.883 62.6126 115.71 62.4338 115.401C62.168 114.94 62.3256 114.351 62.7867 114.085L101.011 92.0164C101.473 91.7494 102.06 91.9082 102.327 92.369C102.593 92.8299 102.436 93.4192 101.975 93.6852L63.7503 115.753C63.5983 115.841 63.4327 115.883 63.2694 115.883Z" fill="#B5B7C6"/>
<path d="M64.3007 57.9838C63.9676 57.9838 63.6439 57.8108 63.4651 57.5017C63.1993 57.0409 63.3569 56.4516 63.818 56.1855L72.2355 51.3258C72.6976 51.059 73.2852 51.2178 73.552 51.6784C73.8178 52.1393 73.6602 52.7286 73.1991 52.9946L64.7815 57.8544C64.6296 57.9421 64.4639 57.9838 64.3007 57.9838Z" fill="#423751"/>
<path d="M79.5116 49.2036C79.1785 49.2036 78.8548 49.0307 78.676 48.7216C78.4102 48.2608 78.5678 47.6715 79.0289 47.4054L104.665 32.6051C105.126 32.3383 105.714 32.4971 105.981 32.9577C106.247 33.4186 106.089 34.0079 105.628 34.2739L79.9925 49.0742C79.8405 49.162 79.6749 49.2036 79.5116 49.2036Z" fill="#423751"/>
<path d="M110.715 31.1913C110.382 31.1913 110.058 31.0184 109.879 30.7093C109.613 30.2485 109.771 29.6592 110.232 29.3931L121.232 23.0429C121.693 22.7756 122.281 22.9347 122.548 23.3955C122.814 23.8563 122.656 24.4456 122.195 24.7117L111.196 31.0619C111.044 31.1497 110.878 31.1913 110.715 31.1913Z" fill="#423751"/>
<path d="M64.3007 69.5643C63.9676 69.5643 63.6439 69.3914 63.4651 69.0823C63.1993 68.6215 63.3569 68.0322 63.818 67.7661L91.8471 51.584C92.3077 51.3165 92.8968 51.4758 93.1636 51.9366C93.4294 52.3975 93.2718 52.9868 92.8107 53.2528L64.7815 69.435C64.6296 69.5227 64.4639 69.5643 64.3007 69.5643Z" fill="#423751"/>
<path d="M99.5663 49.2035C99.2332 49.2035 98.9095 49.0306 98.7307 48.7214C98.4649 48.2606 98.6225 47.6713 99.0836 47.4052L121.224 34.6229C121.685 34.3557 122.274 34.5149 122.541 34.9755C122.806 35.4364 122.649 36.0257 122.188 36.2917L100.047 49.0741C99.8952 49.1618 99.7296 49.2035 99.5663 49.2035Z" fill="#423751"/>
<path d="M64.3007 81.1442C63.9676 81.1442 63.6439 80.9713 63.4651 80.6622C63.1993 80.2013 63.3569 79.612 63.818 79.346L75.8607 72.3932C76.3227 72.1265 76.9099 72.285 77.1771 72.7459C77.443 73.2067 77.2853 73.796 76.8243 74.0621L64.7815 81.0148C64.6296 81.1025 64.4639 81.1442 64.3007 81.1442Z" fill="#423751"/>
<path d="M82.0507 70.8949C81.7176 70.8949 81.3939 70.7219 81.2151 70.4128C80.9493 69.952 81.1069 69.3627 81.568 69.0966L121.228 46.2001C121.689 45.9329 122.277 46.0919 122.544 46.5527C122.81 47.0136 122.652 47.6029 122.191 47.8689L82.5315 70.7655C82.3795 70.8532 82.2139 70.8949 82.0507 70.8949Z" fill="#423751"/>
<path d="M64.3007 104.3C63.9676 104.3 63.6439 104.128 63.4651 103.818C63.1993 103.358 63.3569 102.768 63.818 102.502L75.8607 95.5495C76.3227 95.2827 76.9099 95.4413 77.1771 95.9021C77.443 96.363 77.2853 96.9523 76.8243 97.2183L64.7815 104.171C64.6296 104.259 64.4639 104.3 64.3007 104.3Z" fill="#423751"/>
<path d="M82.0507 94.055C81.7176 94.055 81.3939 93.8821 81.2151 93.573C80.9493 93.1121 81.1069 92.5229 81.568 92.2568L121.228 69.3602C121.689 69.093 122.277 69.252 122.544 69.7129C122.81 70.1737 122.652 70.763 122.191 71.0291L82.5315 93.9256C82.3795 94.0134 82.2139 94.055 82.0507 94.055Z" fill="#423751"/>
<path d="M63.2694 128.059C62.9363 128.059 62.6126 127.886 62.4338 127.577C62.168 127.116 62.3256 126.527 62.7867 126.261L74.8294 119.308C75.2915 119.042 75.8786 119.2 76.1459 119.661C76.4117 120.122 76.2541 120.711 75.793 120.977L63.7503 127.93C63.5983 128.018 63.4327 128.059 63.2694 128.059Z" fill="#B5B7C6"/>
<path d="M81.0194 117.814C80.6863 117.814 80.3626 117.641 80.1838 117.332C79.918 116.871 80.0756 116.282 80.5367 116.016L120.196 93.119C120.658 92.8518 121.246 93.0108 121.513 93.4717C121.779 93.9325 121.621 94.5218 121.16 94.7879L81.5003 117.684C81.3483 117.772 81.1827 117.814 81.0194 117.814Z" fill="#B5B7C6"/>
<path d="M64.3007 128.059C63.9676 128.059 63.6439 127.886 63.4651 127.577C63.1993 127.116 63.3569 126.527 63.818 126.261L75.8607 119.308C76.3227 119.042 76.9099 119.2 77.1771 119.661C77.443 120.122 77.2853 120.711 76.8243 120.977L64.7815 127.93C64.6296 128.018 64.4639 128.059 64.3007 128.059Z" fill="#423751"/>
<path d="M82.0507 117.814C81.7176 117.814 81.3939 117.641 81.2151 117.332C80.9493 116.871 81.1069 116.282 81.568 116.016L121.228 93.119C121.689 92.8518 122.277 93.0108 122.544 93.4717C122.81 93.9325 122.652 94.5218 122.191 94.7879L82.5315 117.684C82.3795 117.772 82.2139 117.814 82.0507 117.814Z" fill="#423751"/>
<path d="M108.269 67.3409C107.936 67.3409 107.613 67.168 107.434 66.8589C107.168 66.3981 107.326 65.8088 107.787 65.5427L121.227 57.7831C121.688 57.5159 122.277 57.6749 122.544 58.1357C122.81 58.5966 122.652 59.1859 122.191 59.4519L108.75 67.2115C108.598 67.2993 108.433 67.3409 108.269 67.3409Z" fill="#423751"/>
<path d="M64.3007 92.7207C63.9676 92.7207 63.6439 92.5478 63.4651 92.2387C63.1993 91.7779 63.3569 91.1886 63.818 90.9225L102.042 68.8543C102.504 68.5873 103.091 68.7461 103.359 69.2069C103.624 69.6678 103.467 70.2571 103.006 70.5231L64.7815 92.5914C64.6296 92.6791 64.4639 92.7207 64.3007 92.7207Z" fill="#423751"/>
<path d="M108.269 90.4962C107.936 90.4962 107.613 90.3233 107.434 90.0142C107.168 89.5533 107.326 88.964 107.787 88.698L121.227 80.9384C121.688 80.6711 122.277 80.8302 122.544 81.291C122.81 81.7519 122.652 82.3411 122.191 82.6072L108.75 90.3668C108.598 90.4546 108.433 90.4962 108.269 90.4962Z" fill="#423751"/>
<path d="M64.3007 115.883C63.9676 115.883 63.6439 115.71 63.4651 115.401C63.1993 114.94 63.3569 114.351 63.818 114.085L102.042 92.0164C102.504 91.7494 103.091 91.9082 103.359 92.369C103.624 92.8299 103.467 93.4192 103.006 93.6852L64.7815 115.753C64.6296 115.841 64.4639 115.883 64.3007 115.883Z" fill="#423751"/>
<path d="M107.238 115.083C106.905 115.083 106.581 114.91 106.403 114.601C106.137 114.14 106.294 113.551 106.755 113.285L120.196 105.525C120.657 105.258 121.246 105.417 121.512 105.878C121.778 106.339 121.621 106.928 121.16 107.194L107.719 114.954C107.567 115.041 107.401 115.083 107.238 115.083Z" fill="#B5B7C6"/>
<path d="M63.2694 140.469C62.9363 140.469 62.6126 140.296 62.4338 139.987C62.168 139.526 62.3256 138.937 62.7867 138.671L101.011 116.602C101.473 116.335 102.06 116.494 102.327 116.955C102.593 117.416 102.436 118.005 101.975 118.271L63.7503 140.339C63.5983 140.427 63.4327 140.469 63.2694 140.469Z" fill="#B5B7C6"/>
<path d="M108.269 115.083C107.936 115.083 107.613 114.91 107.434 114.601C107.168 114.14 107.326 113.551 107.787 113.285L121.227 105.525C121.688 105.258 122.277 105.417 122.544 105.878C122.81 106.339 122.652 106.928 122.191 107.194L108.75 114.954C108.598 115.041 108.433 115.083 108.269 115.083Z" fill="#423751"/>
<path d="M64.3007 140.469C63.9676 140.469 63.6439 140.296 63.4651 139.987C63.1993 139.526 63.3569 138.937 63.818 138.671L102.042 116.602C102.504 116.335 103.091 116.494 103.359 116.955C103.624 117.416 103.467 118.005 103.006 118.271L64.7815 140.339C64.6296 140.427 64.4639 140.469 64.3007 140.469Z" fill="#423751"/>
<path d="M107.238 115.083C106.905 115.083 106.581 114.91 106.403 114.601C106.137 114.14 106.294 113.551 106.755 113.285L120.196 105.525C120.657 105.258 121.246 105.417 121.512 105.878C121.778 106.339 121.621 106.928 121.16 107.194L107.719 114.954C107.567 115.041 107.401 115.083 107.238 115.083Z" fill="#B5B7C6"/>
<path d="M63.2694 140.469C62.9363 140.469 62.6126 140.296 62.4338 139.987C62.168 139.526 62.3256 138.937 62.7867 138.671L101.011 116.602C101.473 116.335 102.06 116.494 102.327 116.955C102.593 117.416 102.436 118.005 101.975 118.271L63.7503 140.339C63.5983 140.427 63.4327 140.469 63.2694 140.469Z" fill="#B5B7C6"/>
<path d="M108.269 115.083C107.936 115.083 107.613 114.91 107.434 114.601C107.168 114.14 107.326 113.551 107.787 113.285L121.227 105.525C121.688 105.258 122.277 105.417 122.544 105.878C122.81 106.339 122.652 106.928 122.191 107.194L108.75 114.954C108.598 115.041 108.433 115.083 108.269 115.083Z" fill="#423751"/>
<path d="M64.3007 140.469C63.9676 140.469 63.6439 140.296 63.4651 139.987C63.1993 139.526 63.3569 138.937 63.818 138.671L102.042 116.602C102.504 116.335 103.091 116.494 103.359 116.955C103.624 117.416 103.467 118.005 103.006 118.271L64.7815 140.339C64.6296 140.427 64.4639 140.469 64.3007 140.469Z" fill="#423751"/>
<path d="M63.2694 152.886C62.9363 152.886 62.6126 152.713 62.4338 152.404C62.168 151.943 62.3256 151.354 62.7867 151.088L101.011 129.019C101.473 128.752 102.06 128.911 102.327 129.372C102.593 129.833 102.436 130.422 101.975 130.688L63.7503 152.756C63.5983 152.844 63.4327 152.886 63.2694 152.886Z" fill="#B5B7C6"/>
<path d="M64.3007 152.886C63.9676 152.886 63.6439 152.713 63.4651 152.404C63.1993 151.943 63.3569 151.354 63.818 151.088L102.042 129.019C102.504 128.752 103.091 128.911 103.359 129.372C103.624 129.833 103.467 130.422 103.006 130.688L64.7815 152.756C64.6296 152.844 64.4639 152.886 64.3007 152.886Z" fill="#423751"/>
<path d="M108.512 132.675C108.076 132.675 107.719 132.326 107.709 131.889C107.7 131.445 108.052 131.078 108.496 131.069C108.783 131.063 109.132 130.709 109.454 130.099C109.854 129.337 110.18 128.503 110.428 127.604C110.09 127.558 109.732 127.486 109.346 127.387C108.664 127.211 107.889 126.945 107.322 126.314C106.859 125.798 106.588 125.074 106.539 124.221C106.475 123.077 106.796 122.001 107.445 121.192C108.198 120.252 109.365 119.752 110.484 119.879C111.039 119.943 111.519 120.155 111.874 120.492C112.553 121.135 112.641 122.053 112.637 122.866C112.632 123.898 112.563 124.885 112.431 125.823C112.726 125.69 112.972 125.503 113.144 125.276C113.419 124.911 113.552 124.392 113.692 123.843C113.875 123.127 114.083 122.315 114.669 121.664C115.076 121.211 115.584 120.93 116.071 120.693C116.608 120.433 117.255 120.161 117.975 120.124C118.627 120.087 119.235 120.254 119.773 120.398L120.008 120.461C120.483 120.585 120.976 120.684 121.371 120.564C121.643 120.482 121.84 120.242 121.822 120.098C121.766 119.658 122.079 119.257 122.518 119.201C122.958 119.148 123.36 119.458 123.416 119.898C123.535 120.847 122.856 121.795 121.835 122.102C121.058 122.336 120.271 122.19 119.602 122.016L119.356 121.95C118.893 121.825 118.456 121.706 118.059 121.728C117.624 121.751 117.165 121.948 116.772 122.139C116.432 122.304 116.086 122.491 115.863 122.739C115.541 123.096 115.399 123.652 115.248 124.242C115.083 124.888 114.895 125.621 114.426 126.243C113.902 126.937 113.058 127.423 112.091 127.591C111.801 128.771 111.395 129.858 110.875 130.847C110.248 132.041 109.458 132.656 108.529 132.675C108.523 132.675 108.518 132.675 108.512 132.675ZM110.134 121.466C109.612 121.466 109.064 121.741 108.699 122.197C108.304 122.689 108.101 123.394 108.144 124.13C108.163 124.468 108.243 124.935 108.518 125.241C108.799 125.554 109.297 125.715 109.748 125.831C110.125 125.929 110.464 125.994 110.774 126.027C110.939 125.037 111.025 123.979 111.03 122.858C111.033 122.416 111.005 121.881 110.769 121.658C110.67 121.564 110.503 121.499 110.299 121.475C110.245 121.469 110.19 121.466 110.134 121.466Z" fill="#FF2D07"/>
<path d="M130.313 118.341L128.319 120.24C127.479 121.04 126.086 120.537 125.953 119.383L125.641 116.666C127.565 114.561 130.067 115.384 130.313 118.341Z" fill="#FFD86A"/>
<path d="M130.309 118.341L128.315 120.24C127.476 121.041 126.083 120.537 125.949 119.383L125.922 119.145C125.989 119.173 126.057 119.2 126.128 119.225C127.211 119.598 128.349 119.144 128.671 118.21C128.993 117.275 128.376 116.216 127.293 115.843C127.149 115.793 127.005 115.758 126.859 115.738C128.485 114.984 130.113 115.987 130.309 118.341Z" fill="#FCCB4F"/>
<path d="M138.315 110.712L130.311 118.341L130.308 118.342C128.869 118.847 126.389 117.969 125.639 116.666L124.414 106.023L138.315 110.712Z" fill="#423751"/>
<path d="M138.317 110.714L130.313 118.343L130.31 118.344C128.871 118.849 126.391 117.971 125.641 116.668L125.312 113.814C125.605 113.976 125.917 114.116 126.245 114.229C128.952 115.161 131.818 113.977 132.643 111.581C132.961 110.657 132.928 109.687 132.611 108.79L138.317 110.714Z" fill="#382E49"/>
<path d="M157.16 56.6568L138.973 109.679C138.603 110.743 137.536 111.565 135.858 111.896C132.478 112.562 127.899 110.985 125.629 108.372C124.486 107.056 124.146 105.73 124.521 104.652L142.708 51.6299C142.333 52.7082 146.074 51.5256 147.217 52.8406C149.487 55.4536 150.553 55.3416 153.933 54.6753C155.611 54.3445 156.79 57.7209 157.16 56.6568Z" fill="#FFD86A"/>
<path d="M157.16 56.6574L138.973 109.679C138.602 110.744 137.535 111.566 135.858 111.895C132.478 112.562 127.899 110.984 125.629 108.371C124.487 107.057 124.146 105.73 124.52 104.653L132.913 79.8999C133.668 81.1211 134.785 82.074 136.185 82.5565C139.699 83.767 143.652 81.5444 145.014 77.5899C146.377 73.6354 144.632 69.4498 141.118 68.2393C139.728 67.7604 138.27 67.8191 136.93 68.309L142.708 51.6338C142.338 52.7081 146.074 51.5264 147.216 52.841C149.486 55.454 150.552 55.3417 153.933 54.6758C155.611 54.3445 156.79 57.7226 157.16 56.6574Z" fill="#FCCB4F"/>
<path d="M162.006 46.9881L151.907 76.0699C151.468 77.3325 150.203 78.3082 148.211 78.7008C144.201 79.4913 138.768 77.6195 136.074 74.5191C134.718 72.9587 134.314 71.3847 134.759 70.1053L144.858 41.0234C144.413 42.3029 148.851 40.8996 150.207 42.46C152.901 45.5604 154.166 45.4275 158.176 44.637C160.168 44.2444 161.567 48.2507 162.006 46.9881Z" fill="#382E49"/>
<path d="M162.005 46.9899L151.905 76.0723C151.468 77.334 150.202 78.3099 148.21 78.7016C144.201 79.4926 138.767 77.6203 136.073 74.5199C134.718 72.9612 134.314 71.3863 134.759 70.1064L138.852 58.3221C139.673 59.1357 140.665 59.7721 141.8 60.1631C146.35 61.7308 151.493 58.784 153.286 53.5796C154.427 50.2668 153.934 46.8375 152.252 44.3779C153.84 45.4348 155.304 45.2049 158.176 44.6395C160.168 44.2456 161.567 48.2537 162.005 46.9899Z" fill="#312944"/>
<path d="M160.694 42.5766C163.388 45.677 162.322 48.8301 158.313 49.6204C154.302 50.411 148.869 48.5391 146.175 45.4388C143.481 42.3384 144.547 39.1843 148.557 38.3938C152.566 37.6035 158 39.4762 160.694 42.5766Z" fill="#423751"/>
<path d="M160.065 42.9457L159.409 44.8512C159.122 45.6749 158.297 46.3114 156.998 46.5675C154.382 47.0832 150.837 45.8621 149.08 43.8396C148.195 42.8216 147.932 41.7949 148.222 40.9602L148.879 39.0547C148.589 39.8893 151.484 38.9739 152.368 39.9918C154.126 42.0144 154.951 41.9277 157.567 41.412C158.866 41.1559 159.779 43.7693 160.065 42.9457Z" fill="#F7B92F"/>
<path d="M159.207 40.0654C160.965 42.0879 160.269 44.1449 157.654 44.6604C155.038 45.1761 151.494 43.955 149.736 41.9325C147.979 39.91 148.674 37.8525 151.29 37.3368C153.905 36.8212 157.45 38.0429 159.207 40.0654Z" fill="#FFD86A"/>
<path d="M156.94 40.5164C157.857 41.5716 157.494 42.6448 156.129 42.9137C154.765 43.1828 152.915 42.5457 151.999 41.4905C151.082 40.4353 151.444 39.3619 152.809 39.0928C154.174 38.8238 156.023 39.4612 156.94 40.5164Z" fill="#FCCB4F"/>
<path d="M162.161 50.0814L155.577 69.0772L151.81 69.8193L151.156 69.0669L157.74 50.0711C157.943 49.4893 157.778 48.6375 157.372 48.17L155.201 45.6724L155.527 44.7369L159.292 43.9941L161.464 46.4917C162.229 47.3718 162.541 48.9839 162.161 50.0814Z" fill="#FFD86A"/>
<path d="M161.466 46.4913L159.295 43.9932L155.529 44.7356L157.7 47.2337C158.466 48.1148 158.778 49.7254 158.396 50.824L151.812 69.8185L155.579 69.0761L162.162 50.0816C162.544 48.983 162.232 47.3724 161.466 46.4913Z" fill="#FFD86A"/>
<path d="M157.697 47.2335C158.463 48.1147 158.776 49.7252 158.394 50.8238L151.81 69.8183L151.156 69.0661L157.74 50.0715C157.942 49.4896 157.777 48.6365 157.372 48.1703L155.201 45.6721C155.001 45.3438 155.099 45.031 155.527 44.7354L157.697 47.2335Z" fill="#F7B92F"/>
</svg>
