<svg width="180" height="180" viewBox="0 0 180 180" fill="none" xmlns="http://www.w3.org/2000/svg">
<path d="M22.2673 81.9377L22.5327 165.325C22.5327 167.846 23.4172 169.572 24.8327 170.412L34.211 175.853C32.7513 175.013 31.8667 173.287 31.8667 170.766L31.6457 87.3784C31.6457 82.2916 35.1845 76.1421 39.5642 73.6214L149.538 10.1404C151.75 8.85734 153.741 8.72558 155.156 9.56582L145.822 4.12477C144.362 3.28237 142.372 3.41629 140.16 4.69933L30.1859 68.1803C25.8061 70.701 22.2673 76.8506 22.2673 81.9377Z" fill="#CCCECE"/>
<path d="M31.7279 87.2114L31.9799 170.623C31.9799 175.663 35.5439 177.679 39.9359 175.158L149.916 111.655C154.272 109.135 157.836 102.979 157.836 97.9744L157.584 14.5627C157.584 9.48597 153.984 7.46997 149.628 9.99069L39.6479 73.4951C35.2556 76.0144 31.7279 82.1351 31.7279 87.2114Z" fill="#F9FAFA"/>
<path d="M38.8353 87.3633L39.0153 149.103L39.0513 161.452L130.923 108.422V108.387L141.039 102.554C143.163 101.331 145.359 97.5866 145.359 95.1379L145.323 88.6939L145.143 20.9775L43.1553 79.875C40.9949 81.0986 38.8353 84.8779 38.8353 87.3633Z" fill="white"/>
<path d="M141.041 102.572C142.093 101.964 143.152 100.742 143.961 99.3691L149.219 102.238C148.402 103.665 147.308 104.945 146.223 105.573L39.0753 167.439L39.0573 161.459L141.041 102.572Z" fill="#D9DDDD"/>
<path d="M145.366 95.1247L145.141 20.9942L150.305 18.0127L150.547 98.1253C150.547 99.3313 150.014 100.853 149.222 102.237L143.964 99.368C144.799 97.9511 145.366 96.3692 145.366 95.1247Z" fill="#D9DDDD"/>
<path d="M109.662 54.6783C105.762 55.314 100.728 61.2998 100.536 67.1393C97.9992 69.7716 96.2291 73.6589 96.2385 76.9878C96.2593 84.3909 104.436 83.0063 108.448 75.0852C109.723 76.0464 111.657 76.0403 113.791 74.8084C115.416 73.8695 116.939 72.2895 118.155 70.4736C121.272 71.6364 125.092 68.2794 126.895 65.4279C131.228 68.6949 139.044 60.245 139.023 53.2221C139.007 47.4095 133.775 46.6535 129.349 51.4408C128.931 47.7033 126.026 46.3979 122.47 48.4514L121.962 48.7448C119.951 44.1724 112.693 47.2288 109.662 54.6783Z" fill="#E8E8E8"/>
<path d="M111.051 104.356C117.444 103.462 125.938 105.204 130.275 107.849L130.923 108.389L141.039 102.557C143.163 101.333 145.359 97.589 145.359 95.1403L145.323 88.6963C133.853 91.7815 121.219 98.1269 111.051 104.356Z" fill="#E3E3E3"/>
<path d="M39.0138 149.103L39.0498 161.452L130.922 108.422V108.387L130.274 107.847C124.907 103.788 112.668 100.941 104.03 102.231C95.3179 103.563 84.7699 107.487 73.3938 114.075C57.7698 123.075 46.7178 136.215 39.0138 149.103Z" fill="#CFCFCF"/>
<path d="M70.9427 75.4384C65.5182 78.57 61.1194 86.1617 61.1374 92.4221C61.155 98.6551 65.5823 101.151 71.0068 98.0194C76.4312 94.8877 80.8301 87.296 80.8124 81.0626C80.7944 74.8022 76.3672 72.3063 70.9427 75.4384Z" fill="#FFD651"/>
</svg>
