<svg width="64" height="64" viewBox="0 0 64 64" fill="none" xmlns="http://www.w3.org/2000/svg">
<path d="M0 14C0 6.26801 6.26801 0 14 0H50C57.732 0 64 6.26801 64 14V50C64 57.732 57.732 64 50 64H14C6.26801 64 0 57.732 0 50V14Z" fill="#CD7F23"/>
<path d="M32.2933 18.6666H31.7067C30.9994 18.6666 30.3211 18.9476 29.8211 19.4477C29.321 19.9478 29.04 20.626 29.04 21.3333V21.5733C29.0395 22.0409 28.9161 22.5002 28.6821 22.9051C28.448 23.3099 28.1117 23.6461 27.7067 23.88L27.1333 24.2133C26.728 24.4473 26.2681 24.5706 25.8 24.5706C25.3319 24.5706 24.8721 24.4473 24.4667 24.2133L24.2667 24.1066C23.6548 23.7536 22.9278 23.6579 22.2453 23.8404C21.5629 24.0229 20.9807 24.4687 20.6267 25.08L20.3333 25.5866C19.9804 26.1985 19.8846 26.9255 20.0671 27.608C20.2496 28.2904 20.6954 28.8726 21.3067 29.2266L21.5067 29.36C21.9097 29.5926 22.2448 29.9267 22.4787 30.3291C22.7126 30.7314 22.8372 31.1879 22.84 31.6533V32.3333C22.8419 32.8032 22.7195 33.2652 22.4854 33.6726C22.2513 34.08 21.9136 34.4183 21.5067 34.6533L21.3067 34.7733C20.6954 35.1274 20.2496 35.7095 20.0671 36.392C19.8846 37.0744 19.9804 37.8014 20.3333 38.4133L20.6267 38.92C20.9807 39.5312 21.5629 39.9771 22.2453 40.1595C22.9278 40.342 23.6548 40.2463 24.2667 39.8933L24.4667 39.7866C24.8721 39.5526 25.3319 39.4294 25.8 39.4294C26.2681 39.4294 26.728 39.5526 27.1333 39.7866L27.7067 40.12C28.1117 40.3538 28.448 40.69 28.6821 41.0948C28.9161 41.4997 29.0395 41.959 29.04 42.4266V42.6666C29.04 43.3739 29.321 44.0521 29.8211 44.5522C30.3211 45.0523 30.9994 45.3333 31.7067 45.3333H32.2933C33.0006 45.3333 33.6789 45.0523 34.179 44.5522C34.6791 44.0521 34.96 43.3739 34.96 42.6666V42.4266C34.9605 41.959 35.0839 41.4997 35.318 41.0948C35.552 40.69 35.8884 40.3538 36.2933 40.12L36.8667 39.7866C37.2721 39.5526 37.7319 39.4294 38.2 39.4294C38.6681 39.4294 39.128 39.5526 39.5333 39.7866L39.7333 39.8933C40.3452 40.2463 41.0722 40.342 41.7547 40.1595C42.4371 39.9771 43.0193 39.5312 43.3733 38.92L43.6667 38.4C44.0197 37.788 44.1154 37.0611 43.9329 36.3786C43.7504 35.6962 43.3046 35.114 42.6933 34.76L42.4933 34.6533C42.0864 34.4183 41.7488 34.08 41.5146 33.6726C41.2805 33.2652 41.1581 32.8032 41.16 32.3333V31.6666C41.1581 31.1967 41.2805 30.7347 41.5146 30.3273C41.7488 29.9199 42.0864 29.5816 42.4933 29.3466L42.6933 29.2266C43.3046 28.8726 43.7504 28.2904 43.9329 27.608C44.1154 26.9255 44.0197 26.1985 43.6667 25.5866L43.3733 25.08C43.0193 24.4687 42.4371 24.0229 41.7547 23.8404C41.0722 23.6579 40.3452 23.7536 39.7333 24.1066L39.5333 24.2133C39.128 24.4473 38.6681 24.5706 38.2 24.5706C37.7319 24.5706 37.2721 24.4473 36.8667 24.2133L36.2933 23.88C35.8884 23.6461 35.552 23.3099 35.318 22.9051C35.0839 22.5002 34.9605 22.0409 34.96 21.5733V21.3333C34.96 20.626 34.6791 19.9478 34.179 19.4477C33.6789 18.9476 33.0006 18.6666 32.2933 18.6666Z" stroke="#F8E1AD" stroke-width="2" stroke-linecap="round" stroke-linejoin="round"/>
<path d="M32 36C34.2091 36 36 34.2091 36 32C36 29.7909 34.2091 28 32 28C29.7909 28 28 29.7909 28 32C28 34.2091 29.7909 36 32 36Z" stroke="#F8E1AD" stroke-width="2" stroke-linecap="round" stroke-linejoin="round"/>
</svg>
