<svg width="42" height="42" viewBox="0 0 42 42" fill="none" xmlns="http://www.w3.org/2000/svg">
<g clip-path="url(#clip0_2976_29635)">
<path d="M20.4072 5.25531L21.0458 5.25266L22.1889 5.25797C23.7157 5.2686 26.4986 5.3058 29.2842 5.40942L29.7336 5.42802C32.8871 5.55555 35.988 5.77342 37.3545 6.15071C38.2451 6.39444 39.057 6.86978 39.7094 7.52939C40.3618 8.189 40.8319 9.00988 41.073 9.91031C42.4605 15.5696 42.1399 24.4705 41.0992 30.3423C40.8582 31.2428 40.388 32.0636 39.7356 32.7233C39.0832 33.3829 38.2713 33.8582 37.3808 34.1019C34.3061 34.9469 22.5331 34.9973 21.1404 35L19.7292 34.9947C17.5826 34.9778 15.4363 34.9335 13.2908 34.8618L12.4762 34.8353L11.6983 34.8007C8.75507 34.6705 5.91694 34.4553 4.62927 34.0993C3.73869 33.8555 2.92679 33.3802 2.27439 32.7206C1.62199 32.061 1.15186 31.2401 0.910793 30.3397C-0.481993 24.7069 -0.103575 15.7795 0.884514 9.93422C1.12558 9.03379 1.59572 8.21291 2.24811 7.5533C2.90051 6.89369 3.71241 6.41836 4.60299 6.17462C7.44112 5.38816 17.8476 5.27126 20.4229 5.25L20.4072 5.25531ZM16.807 13.7576V26.511L27.6865 20.1343L16.807 13.7576Z" fill="#4D4D4D"/>
</g>
<defs>
<clipPath id="clip0_2976_29635">
<rect width="42" height="42" fill="white"/>
</clipPath>
</defs>
</svg>
